<svg width="503" height="188" viewBox="0 0 503 188" fill="none" xmlns="http://www.w3.org/2000/svg">
<rect x="21" y="123" width="73" height="12" rx="6" transform="rotate(-90 21 123)" fill="#667EEA"/>
<rect x="93" y="123" width="73" height="12" rx="6" transform="rotate(-90 93 123)" fill="#667EEA"/>
<rect x="111" y="140" width="66" height="12" rx="6" transform="rotate(-90 111 140)" fill="#667EEA"/>
<rect x="75" y="104" width="66" height="12" rx="6" transform="rotate(-89.9093 75 104)" fill="#667EEA"/>
<rect x="39" y="101.763" width="30.7628" height="12" rx="6" transform="rotate(-90 39 101.763)" fill="#667EEA"/>
<rect x="57" y="113.763" width="30.7628" height="12.2455" rx="6.12272" transform="rotate(-90 57 113.763)" fill="#667EEA"/>
<path d="M173.48 131.48C167.784 131.48 162.632 130.2 158.024 127.64C153.48 125.08 149.864 121.336 147.176 116.408C144.488 111.416 143.144 105.464 143.144 98.552C143.144 88.824 144.904 80.248 148.424 72.824C152.008 65.4 156.84 59.672 162.92 55.64C169.064 51.608 175.848 49.592 183.272 49.592C188.968 49.592 194.088 50.872 198.632 53.432C203.24 55.992 206.888 59.768 209.576 64.76C212.264 69.688 213.608 75.608 213.608 82.52C213.608 92.248 211.816 100.824 208.232 108.248C204.712 115.672 199.88 121.4 193.736 125.432C187.656 129.464 180.904 131.48 173.48 131.48ZM174.44 120.152C179.432 120.152 183.816 118.616 187.592 115.544C191.432 112.472 194.376 108.216 196.424 102.776C198.472 97.272 199.496 91.064 199.496 84.152C199.496 76.536 197.896 70.776 194.696 66.872C191.496 62.904 187.368 60.92 182.312 60.92C177.384 60.92 173.032 62.456 169.256 65.528C165.48 68.536 162.536 72.792 160.424 78.296C158.312 83.736 157.256 89.944 157.256 96.92C157.256 104.536 158.856 110.328 162.056 114.296C165.256 118.2 169.384 120.152 174.44 120.152ZM225.862 131.48C223.43 131.48 221.702 130.2 220.678 127.64C219.718 125.08 219.238 120.984 219.238 115.352C219.238 107.032 220.422 99.128 222.79 91.64C223.366 89.784 224.294 88.44 225.574 87.608C226.918 86.712 228.774 86.264 231.142 86.264C232.422 86.264 233.318 86.424 233.83 86.744C234.342 87.064 234.598 87.672 234.598 88.568C234.598 89.592 234.118 91.896 233.158 95.48C232.518 98.04 232.006 100.28 231.622 102.2C231.238 104.12 230.918 106.488 230.662 109.304C232.774 103.8 235.142 99.32 237.766 95.864C240.39 92.408 242.95 89.944 245.446 88.472C248.006 87 250.342 86.264 252.454 86.264C256.614 86.264 258.694 88.344 258.694 92.504C258.694 93.336 258.406 95.352 257.83 98.552C257.318 101.112 257.062 102.712 257.062 103.352C257.062 105.592 257.862 106.712 259.462 106.712C261.254 106.712 263.558 105.304 266.374 102.488C267.206 101.656 268.07 101.24 268.966 101.24C269.798 101.24 270.438 101.624 270.885 102.392C271.398 103.096 271.654 104.056 271.654 105.272C271.654 107.64 271.014 109.496 269.734 110.84C267.942 112.696 265.83 114.296 263.398 115.64C261.03 116.92 258.502 117.56 255.814 117.56C252.422 117.56 249.83 116.696 248.038 114.968C246.31 113.24 245.446 110.904 245.446 107.96C245.446 107 245.542 106.04 245.734 105.08C245.862 103.8 245.926 102.936 245.926 102.488C245.926 101.464 245.574 100.952 244.87 100.952C243.91 100.952 242.63 102.04 241.03 104.216C239.494 106.328 237.958 109.144 236.422 112.664C234.886 116.184 233.638 119.896 232.678 123.8C231.974 126.808 231.142 128.856 230.182 129.944C229.286 130.968 227.846 131.48 225.862 131.48ZM311.885 109.784C312.717 109.784 313.357 110.2 313.805 111.032C314.317 111.8 314.573 112.792 314.573 114.008C314.573 115.48 314.349 116.632 313.901 117.464C313.453 118.296 312.749 119.032 311.789 119.672C306.285 123.384 302.253 126.136 299.693 127.928L293.549 132.056C291.117 145.304 287.917 155.704 283.949 163.256C280.045 170.872 275.053 174.68 268.973 174.68C265.709 174.68 263.053 173.656 261.005 171.608C258.957 169.624 257.933 167 257.933 163.736C257.933 159.192 259.725 154.296 263.309 149.048C266.893 143.864 273.613 137.464 283.469 129.848L284.045 126.104C282.957 127.832 281.517 129.176 279.725 130.136C277.997 131.032 276.269 131.48 274.541 131.48C270.573 131.48 267.405 130.04 265.037 127.16C262.669 124.28 261.485 120.504 261.485 115.832C261.485 110.712 262.669 105.88 265.037 101.336C267.405 96.728 270.541 93.048 274.445 90.296C278.413 87.48 282.605 86.072 287.021 86.072C288.429 86.072 289.357 86.36 289.805 86.936C290.317 87.448 290.733 88.408 291.053 89.816C292.269 89.56 293.677 89.432 295.277 89.432C296.877 89.432 297.997 89.688 298.637 90.2C299.341 90.648 299.693 91.576 299.693 92.984C299.693 93.752 299.661 94.36 299.597 94.808C299.341 96.792 298.541 101.816 297.197 109.88C296.941 111.416 296.653 113.112 296.333 114.968C296.077 116.76 295.789 118.68 295.469 120.728C300.397 116.888 305.133 113.496 309.677 110.552C310.509 110.04 311.245 109.784 311.885 109.784ZM277.997 121.784C279.469 121.784 280.877 120.888 282.221 119.096C283.565 117.304 284.525 114.744 285.101 111.416L288.173 95C285.549 95.064 283.117 96.088 280.877 98.072C278.637 99.992 276.845 102.552 275.501 105.752C274.157 108.952 273.485 112.344 273.485 115.928C273.485 117.912 273.869 119.384 274.637 120.344C275.469 121.304 276.589 121.784 277.997 121.784ZM270.029 165.368C271.629 165.368 273.421 163.448 275.405 159.608C277.453 155.768 279.405 149.656 281.261 141.272C276.333 145.496 272.781 149.304 270.605 152.696C268.429 156.088 267.341 159.064 267.341 161.624C267.341 162.712 267.533 163.608 267.917 164.312C268.365 165.016 269.069 165.368 270.029 165.368ZM317.431 131.48C314.551 131.48 312.183 130.168 310.327 127.544C308.535 124.856 307.639 121.528 307.639 117.56C307.639 112.76 307.959 108.376 308.599 104.408C309.239 100.376 310.295 96.12 311.767 91.64C312.407 89.72 313.303 88.344 314.455 87.512C315.607 86.68 317.431 86.264 319.927 86.264C321.335 86.264 322.295 86.488 322.807 86.936C323.383 87.384 323.671 88.056 323.671 88.952C323.671 89.464 323.319 91.192 322.615 94.136C321.975 96.504 321.463 98.648 321.079 100.568C319.799 107.288 319.159 111.768 319.159 114.008C319.159 115.352 319.319 116.312 319.639 116.888C319.959 117.4 320.471 117.656 321.175 117.656C322.135 117.656 323.319 116.696 324.727 114.776C326.199 112.856 327.735 109.944 329.335 106.04C330.999 102.136 332.599 97.336 334.135 91.64C334.647 89.72 335.415 88.344 336.439 87.512C337.527 86.68 339.127 86.264 341.239 86.264C342.711 86.264 343.735 86.456 344.311 86.84C344.887 87.16 345.175 87.8 345.175 88.76C345.175 90.36 344.375 94.744 342.775 101.912C340.983 110.104 340.087 115.16 340.087 117.08C340.087 118.296 340.343 119.256 340.855 119.96C341.367 120.6 342.039 120.92 342.871 120.92C344.151 120.92 345.655 120.152 347.383 118.616C349.175 117.016 351.543 114.456 354.487 110.936C355.255 110.04 356.119 109.592 357.079 109.592C357.911 109.592 358.551 109.976 358.999 110.744C359.511 111.512 359.767 112.568 359.767 113.912C359.767 116.472 359.159 118.456 357.943 119.864C355.191 123.256 352.215 126.04 349.015 128.216C345.879 130.392 342.295 131.48 338.263 131.48C335.191 131.48 332.919 130.296 331.447 127.928C330.039 125.56 329.335 122.232 329.335 117.944C328.247 122.296 326.615 125.656 324.439 128.024C322.263 130.328 319.927 131.48 317.431 131.48ZM369.839 133.592C366.511 133.592 363.951 132.824 362.159 131.288C360.431 129.752 359.567 128.024 359.567 126.104C359.567 124.44 360.175 123 361.391 121.784C362.607 120.568 364.399 119.96 366.767 119.96C367.599 119.96 368.559 120.056 369.647 120.248C370.799 120.376 371.663 120.472 372.239 120.536C372.175 118.872 371.791 117.304 371.087 115.832C370.447 114.36 369.615 112.952 368.591 111.608C367.567 110.2 366.607 108.984 365.711 107.96C363.727 111.736 361.743 114.872 359.759 117.368C357.839 119.864 355.727 122.232 353.423 124.472C352.271 125.624 351.055 126.2 349.775 126.2C348.751 126.2 347.919 125.848 347.279 125.144C346.639 124.376 346.319 123.448 346.319 122.36C346.319 121.08 346.767 119.896 347.663 118.808L348.911 117.272C352.431 112.92 355.087 109.336 356.879 106.52C357.967 104.664 359.247 102.2 360.719 99.128C362.191 95.992 363.631 92.76 365.039 89.432C366.255 86.616 368.783 85.208 372.623 85.208C374.415 85.208 375.663 85.368 376.367 85.688C377.071 86.008 377.423 86.52 377.423 87.224C377.423 87.608 377.295 88.216 377.039 89.048C376.783 89.88 376.431 90.712 375.983 91.544C374.831 93.848 374.255 95.8 374.255 97.4C374.255 98.36 374.575 99.416 375.215 100.568C375.919 101.72 376.975 103.16 378.383 104.888C380.431 107.576 381.967 109.88 382.991 111.8C384.079 113.656 384.623 115.704 384.623 117.944C384.623 118.584 384.559 119.48 384.431 120.632C387.567 119.416 391.247 116.184 395.471 110.936C396.239 110.04 397.103 109.592 398.063 109.592C398.895 109.592 399.535 109.976 399.983 110.744C400.495 111.512 400.751 112.568 400.751 113.912C400.751 116.344 400.143 118.328 398.927 119.864C395.727 123.832 392.655 126.552 389.711 128.024C386.831 129.432 383.247 130.2 378.959 130.328C376.399 132.504 373.359 133.592 369.839 133.592ZM435.768 109.592C436.6 109.592 437.24 109.976 437.688 110.744C438.2 111.512 438.456 112.568 438.456 113.912C438.456 116.472 437.848 118.456 436.632 119.864C433.88 123.256 430.872 126.04 427.608 128.216C424.344 130.392 420.6 131.48 416.376 131.48C403.32 131.48 396.792 122.296 396.792 103.928C396.792 101.112 396.888 98.264 397.08 95.384H393.336C391.416 95.384 390.104 95.032 389.4 94.328C388.76 93.624 388.44 92.504 388.44 90.968C388.44 87.384 389.88 85.592 392.76 85.592H398.232C399.32 78.552 400.984 72.12 403.224 66.296C405.464 60.472 408.152 55.832 411.288 52.376C414.488 48.92 417.912 47.192 421.56 47.192C424.248 47.192 426.36 48.376 427.896 50.744C429.432 53.112 430.2 56.088 430.2 59.672C430.2 69.592 426.04 78.232 417.72 85.592H428.472C429.496 85.592 430.232 85.816 430.68 86.264C431.128 86.712 431.352 87.544 431.352 88.76C431.352 93.176 427.736 95.384 420.504 95.384H408.792C408.664 98.584 408.6 101.08 408.6 102.872C408.6 109.528 409.368 114.2 410.904 116.888C412.504 119.576 415 120.92 418.392 120.92C421.144 120.92 423.576 120.088 425.688 118.424C427.8 116.76 430.296 114.264 433.176 110.936C433.944 110.04 434.808 109.592 435.768 109.592ZM418.968 56.408C418.008 56.408 416.92 57.624 415.704 60.056C414.552 62.424 413.432 65.752 412.344 70.04C411.32 74.264 410.456 78.968 409.752 84.152C413.528 80.888 416.344 77.24 418.2 73.208C420.12 69.112 421.08 65.4 421.08 62.072C421.08 58.296 420.376 56.408 418.968 56.408ZM446.863 131.48C443.087 131.48 439.855 130.552 437.167 128.696C434.543 126.776 432.559 124.28 431.215 121.208C429.871 118.136 429.199 114.84 429.199 111.32C429.199 106.456 430.095 102.136 431.887 98.36C433.743 94.52 436.239 91.544 439.375 89.432C442.511 87.256 446.031 86.168 449.935 86.168C453.711 86.168 456.943 87.128 459.631 89.048C462.319 90.904 464.335 93.368 465.679 96.44C467.023 99.512 467.695 102.808 467.695 106.328C467.695 111.192 466.767 115.544 464.911 119.384C463.055 123.16 460.527 126.136 457.327 128.312C454.191 130.424 450.703 131.48 446.863 131.48ZM447.919 121.112C450.095 121.112 451.919 119.928 453.391 117.56C454.927 115.192 455.695 111.736 455.695 107.192C455.695 103.672 455.055 101.016 453.775 99.224C452.495 97.432 450.959 96.536 449.167 96.536C446.863 96.536 444.943 97.72 443.407 100.088C441.935 102.392 441.199 105.848 441.199 110.456C441.199 114.104 441.839 116.792 443.119 118.52C444.399 120.248 445.999 121.112 447.919 121.112Z" fill="#3B3B3B"/>
</svg>
