<svg width="1276" height="695" viewBox="0 0 1276 695" fill="none" xmlns="http://www.w3.org/2000/svg">
<rect width="1276" height="695" fill="#F7FAFC"/>
<g filter="url(#filter0_d)">
<path d="M355.272 348.48C352.904 348.48 351.208 347.968 350.184 346.944C349.16 345.856 348.648 343.84 348.648 340.896C348.648 338.912 348.84 336.384 349.224 333.312C349.672 330.176 350.376 325.888 351.336 320.448C353 310.4 354.312 301.696 355.272 294.336C355.848 289.728 356.136 285.888 356.136 282.816C356.136 279.936 355.08 278.496 352.968 278.496C351.304 278.496 349.288 279.36 346.92 281.088C344.616 282.752 342.056 285.44 339.24 289.152C338.344 290.368 337.352 290.976 336.264 290.976C335.368 290.976 334.568 290.56 333.864 289.728C333.224 288.832 332.904 287.84 332.904 286.752C332.904 285.728 333.096 284.704 333.48 283.68C333.928 282.592 334.632 281.376 335.592 280.032C338.664 275.744 342.088 272.448 345.864 270.144C349.64 267.776 353.416 266.592 357.192 266.592C360.712 266.592 363.4 267.712 365.256 269.952C367.176 272.192 368.136 275.456 368.136 279.744C368.136 281.472 367.976 283.52 367.656 285.888C367.336 288.192 367.048 290.08 366.792 291.552C366.536 293.024 366.344 294.048 366.216 294.624C369.864 284.192 373.96 276.928 378.504 272.832C383.048 268.672 388.04 266.592 393.48 266.592C397.64 266.592 400.904 268.064 403.272 271.008C405.704 273.952 406.92 278.112 406.92 283.488C406.92 285.6 406.632 288.224 406.056 291.36C409.256 282.528 413 276.192 417.288 272.352C421.576 268.512 426.504 266.592 432.072 266.592C436.552 266.592 439.976 268.032 442.344 270.912C444.776 273.792 445.992 277.824 445.992 283.008C445.992 285.824 445.576 289.248 444.744 293.28L438.888 320.736C438.248 323.936 437.928 326.688 437.928 328.992C437.928 331.68 438.536 333.696 439.752 335.04C441.032 336.384 442.792 337.056 445.032 337.056C447.144 337.056 449.192 336.352 451.176 334.944C453.224 333.536 455.624 331.2 458.376 327.936C459.144 327.04 460.008 326.592 460.968 326.592C461.8 326.592 462.44 326.976 462.888 327.744C463.4 328.512 463.656 329.568 463.656 330.912C463.656 333.408 463.048 335.392 461.832 336.864C458.504 340.896 455.208 343.84 451.944 345.696C448.68 347.552 445.256 348.48 441.672 348.48C436.232 348.48 431.976 346.88 428.904 343.68C425.832 340.416 424.296 336.064 424.296 330.624C424.296 326.848 425.064 321.376 426.6 314.208L430.44 296.64C430.568 296.064 430.792 295.04 431.112 293.568C431.432 292.096 431.688 290.72 431.88 289.44C432.072 288.096 432.168 286.784 432.168 285.504C432.168 283.264 431.72 281.6 430.824 280.512C429.992 279.36 428.776 278.784 427.176 278.784C424.168 278.784 421 280.736 417.672 284.64C414.408 288.48 411.272 294.88 408.264 303.84C405.32 312.8 402.92 324.448 401.064 338.784C400.616 342.624 399.816 345.216 398.664 346.56C397.576 347.84 395.784 348.48 393.288 348.48C391.112 348.48 389.512 347.968 388.488 346.944C387.528 345.92 387.048 344 387.048 341.184C387.048 338.56 387.4 335.136 388.104 330.912C388.808 326.624 389.704 321.6 390.792 315.84C393.736 300.352 395.208 290.368 395.208 285.888C395.208 283.456 394.728 281.664 393.768 280.512C392.872 279.36 391.496 278.784 389.64 278.784C386.504 278.784 383.272 280.576 379.944 284.16C376.616 287.68 373.352 293.984 370.152 303.072C367.016 312.096 364.392 324.32 362.28 339.744C361.832 343.008 361.16 345.28 360.264 346.56C359.432 347.84 357.768 348.48 355.272 348.48ZM467.729 348.48C463.761 348.48 460.593 347.04 458.225 344.16C455.857 341.28 454.673 337.504 454.673 332.832C454.673 327.712 455.857 322.88 458.225 318.336C460.593 313.728 463.729 310.048 467.633 307.296C471.601 304.48 475.793 303.072 480.209 303.072C481.617 303.072 482.545 303.36 482.993 303.936C483.505 304.448 483.921 305.408 484.241 306.816C485.585 306.56 486.993 306.432 488.465 306.432C491.601 306.432 493.169 307.552 493.169 309.792C493.169 311.136 492.689 314.336 491.729 319.392C490.257 326.752 489.521 331.872 489.521 334.752C489.521 335.712 489.745 336.48 490.193 337.056C490.705 337.632 491.345 337.92 492.113 337.92C493.329 337.92 494.801 337.152 496.529 335.616C498.257 334.016 500.593 331.456 503.537 327.936C504.305 327.04 505.169 326.592 506.129 326.592C506.961 326.592 507.601 326.976 508.049 327.744C508.561 328.512 508.817 329.568 508.817 330.912C508.817 333.472 508.209 335.456 506.993 336.864C504.369 340.128 501.585 342.88 498.641 345.12C495.697 347.36 492.849 348.48 490.097 348.48C487.985 348.48 486.033 347.776 484.241 346.368C482.513 344.896 481.201 342.912 480.305 340.416C476.977 345.792 472.785 348.48 467.729 348.48ZM471.185 338.784C472.593 338.784 473.937 337.952 475.217 336.288C476.497 334.624 477.425 332.416 478.001 329.664L481.553 312C478.865 312.064 476.369 313.088 474.065 315.072C471.825 316.992 470.033 319.552 468.689 322.752C467.345 325.952 466.673 329.344 466.673 332.928C466.673 334.912 467.057 336.384 467.825 337.344C468.657 338.304 469.777 338.784 471.185 338.784ZM519.35 348.48C513.078 348.48 508.182 346.72 504.662 343.2C501.206 339.616 499.478 334.912 499.478 329.088C499.478 323.904 500.502 319.36 502.55 315.456C504.598 311.552 507.254 308.544 510.518 306.432C513.782 304.32 517.206 303.264 520.79 303.264C524.31 303.264 527.03 304.32 528.95 306.432C530.934 308.48 531.926 311.136 531.926 314.4C531.926 317.088 531.318 319.36 530.102 321.216C528.95 323.072 527.414 324 525.494 324C524.278 324 523.286 323.712 522.518 323.136C521.814 322.56 521.462 321.76 521.462 320.736C521.462 320.288 521.526 319.776 521.654 319.2C521.782 318.624 521.878 318.208 521.942 317.952C522.262 316.992 522.422 316.096 522.422 315.264C522.422 314.432 522.198 313.792 521.75 313.344C521.366 312.896 520.79 312.672 520.022 312.672C518.55 312.672 517.174 313.344 515.894 314.688C514.614 315.968 513.59 317.728 512.822 319.968C512.054 322.208 511.67 324.672 511.67 327.36C511.67 334.784 514.902 338.496 521.366 338.496C523.99 338.496 526.806 337.632 529.814 335.904C532.886 334.112 535.894 331.456 538.838 327.936C539.606 327.04 540.47 326.592 541.43 326.592C542.262 326.592 542.902 326.976 543.35 327.744C543.862 328.512 544.118 329.568 544.118 330.912C544.118 333.344 543.51 335.328 542.294 336.864C539.286 340.576 535.67 343.456 531.446 345.504C527.286 347.488 523.254 348.48 519.35 348.48ZM570.342 303.264C572.39 303.264 573.926 303.808 574.95 304.896C576.038 305.92 576.582 307.456 576.582 309.504C576.582 311.168 576.23 314.304 575.526 318.912C574.886 322.816 574.374 326.528 573.99 330.048C573.606 333.504 573.414 337.376 573.414 341.664C573.414 344.096 572.902 345.856 571.878 346.944C570.918 347.968 569.318 348.48 567.078 348.48C564.966 348.48 563.43 347.936 562.47 346.848C561.51 345.76 561.03 344.128 561.03 341.952C561.03 339.392 561.478 335.168 562.374 329.28C563.142 324.16 563.526 320.896 563.526 319.488C563.526 318.464 563.174 317.952 562.47 317.952C561.638 317.952 560.454 319.04 558.918 321.216C557.382 323.328 555.846 326.144 554.31 329.664C552.774 333.184 551.526 336.896 550.566 340.8C549.862 343.808 549.03 345.856 548.07 346.944C547.174 347.968 545.734 348.48 543.75 348.48C541.766 348.48 540.294 347.776 539.334 346.368C538.438 344.896 537.83 342.656 537.51 339.648C537.19 336.64 537.03 332.224 537.03 326.4C537.03 316.544 538.022 306.272 540.006 295.584C542.054 284.896 545.03 275.936 548.934 268.704C552.902 261.408 557.638 257.76 563.142 257.76C566.086 257.76 568.454 259.04 570.246 261.6C572.102 264.096 573.03 267.36 573.03 271.392C573.03 277.856 571.142 284.576 567.366 291.552C563.59 298.464 557.446 306.56 548.934 315.84C548.742 319.168 548.646 322.592 548.646 326.112C550.758 320.672 553.094 316.256 555.654 312.864C558.278 309.408 560.838 306.944 563.334 305.472C565.894 304 568.23 303.264 570.342 303.264ZM561.126 267.264C559.974 267.264 558.694 268.928 557.286 272.256C555.878 275.52 554.502 279.968 553.158 285.6C551.878 291.168 550.822 297.248 549.99 303.84C553.958 299.168 557.222 294.08 559.782 288.576C562.406 283.072 563.718 278.08 563.718 273.6C563.718 271.552 563.494 269.984 563.046 268.896C562.598 267.808 561.958 267.264 561.126 267.264ZM663.355 326.592C664.187 326.592 664.827 326.976 665.275 327.744C665.787 328.512 666.043 329.568 666.043 330.912C666.043 333.472 665.435 335.456 664.219 336.864C661.595 340.064 658.715 342.816 655.579 345.12C652.443 347.36 649.339 348.48 646.267 348.48C641.403 348.48 637.691 345.632 635.131 339.936C632.443 343.328 630.075 345.6 628.027 346.752C626.043 347.904 623.707 348.48 621.019 348.48C617.115 348.48 613.883 347.04 611.323 344.16C608.827 341.216 607.579 337.408 607.579 332.736C607.579 327.616 608.667 322.88 610.843 318.528C613.019 314.112 615.995 310.528 619.771 307.776C623.611 304.96 627.899 303.296 632.635 302.784C633.851 290.368 636.155 279.776 639.547 271.008C643.003 262.176 647.515 257.76 653.083 257.76C655.835 257.76 658.107 259.008 659.899 261.504C661.755 264 662.683 267.776 662.683 272.832C662.683 280 660.923 288.384 657.403 297.984C653.883 307.584 649.179 317.44 643.291 327.552C643.547 331.264 644.091 333.92 644.923 335.52C645.819 337.12 646.939 337.92 648.283 337.92C650.011 337.92 651.771 337.152 653.563 335.616C655.355 334.08 657.755 331.52 660.763 327.936C661.531 327.04 662.395 326.592 663.355 326.592ZM652.027 267.168C650.811 267.168 649.595 269.344 648.379 273.696C647.163 277.984 646.107 283.616 645.211 290.592C644.379 297.568 643.771 304.864 643.387 312.48C650.555 296.864 654.139 284.32 654.139 274.848C654.139 272.416 653.915 270.528 653.467 269.184C653.083 267.84 652.603 267.168 652.027 267.168ZM624.379 338.784C625.595 338.784 626.811 338.304 628.027 337.344C629.243 336.32 630.779 334.464 632.635 331.776C631.995 328.32 631.675 324.448 631.675 320.16C631.675 318.624 631.739 316.128 631.867 312.672C628.347 313.76 625.403 316.128 623.035 319.776C620.731 323.36 619.579 327.36 619.579 331.776C619.579 336.448 621.179 338.784 624.379 338.784ZM669.104 348.48C665.136 348.48 661.968 347.04 659.6 344.16C657.232 341.28 656.048 337.504 656.048 332.832C656.048 327.712 657.232 322.88 659.6 318.336C661.968 313.728 665.104 310.048 669.008 307.296C672.976 304.48 677.168 303.072 681.584 303.072C682.992 303.072 683.92 303.36 684.368 303.936C684.88 304.448 685.296 305.408 685.616 306.816C686.96 306.56 688.368 306.432 689.84 306.432C692.976 306.432 694.544 307.552 694.544 309.792C694.544 311.136 694.064 314.336 693.104 319.392C691.632 326.752 690.896 331.872 690.896 334.752C690.896 335.712 691.12 336.48 691.568 337.056C692.08 337.632 692.72 337.92 693.488 337.92C694.704 337.92 696.176 337.152 697.904 335.616C699.632 334.016 701.968 331.456 704.912 327.936C705.68 327.04 706.544 326.592 707.504 326.592C708.336 326.592 708.976 326.976 709.424 327.744C709.936 328.512 710.192 329.568 710.192 330.912C710.192 333.472 709.584 335.456 708.368 336.864C705.744 340.128 702.96 342.88 700.016 345.12C697.072 347.36 694.224 348.48 691.472 348.48C689.36 348.48 687.408 347.776 685.616 346.368C683.888 344.896 682.576 342.912 681.68 340.416C678.352 345.792 674.16 348.48 669.104 348.48ZM672.56 338.784C673.968 338.784 675.312 337.952 676.592 336.288C677.872 334.624 678.8 332.416 679.376 329.664L682.928 312C680.24 312.064 677.744 313.088 675.44 315.072C673.2 316.992 671.408 319.552 670.064 322.752C668.72 325.952 668.048 329.344 668.048 332.928C668.048 334.912 668.432 336.384 669.2 337.344C670.032 338.304 671.152 338.784 672.56 338.784ZM720.245 350.592C716.917 350.592 714.357 349.824 712.565 348.288C710.837 346.752 709.973 345.024 709.973 343.104C709.973 341.44 710.581 340 711.797 338.784C713.013 337.568 714.805 336.96 717.173 336.96C718.005 336.96 718.965 337.056 720.053 337.248C721.205 337.376 722.069 337.472 722.645 337.536C722.581 335.872 722.197 334.304 721.493 332.832C720.853 331.36 720.021 329.952 718.997 328.608C717.973 327.2 717.013 325.984 716.117 324.96C714.133 328.736 712.149 331.872 710.165 334.368C708.245 336.864 706.133 339.232 703.829 341.472C702.677 342.624 701.461 343.2 700.181 343.2C699.157 343.2 698.325 342.848 697.685 342.144C697.045 341.376 696.725 340.448 696.725 339.36C696.725 338.08 697.173 336.896 698.069 335.808L699.317 334.272C702.837 329.92 705.493 326.336 707.285 323.52C708.437 321.664 709.589 319.456 710.741 316.896C711.957 314.336 713.525 310.848 715.445 306.432C716.661 303.616 719.189 302.208 723.029 302.208C724.821 302.208 726.069 302.368 726.773 302.688C727.477 303.008 727.829 303.52 727.829 304.224C727.829 304.608 727.701 305.216 727.445 306.048C727.189 306.88 726.837 307.712 726.389 308.544C725.237 310.848 724.661 312.8 724.661 314.4C724.661 315.36 724.981 316.416 725.621 317.568C726.325 318.72 727.381 320.16 728.789 321.888C730.837 324.576 732.373 326.88 733.397 328.8C734.485 330.656 735.029 332.704 735.029 334.944C735.029 337.632 734.389 340.192 733.109 342.624C731.893 344.992 730.165 346.912 727.925 348.384C725.685 349.856 723.125 350.592 720.245 350.592ZM816.649 318.528C817.481 318.528 818.121 318.944 818.569 319.776C819.017 320.608 819.241 321.664 819.241 322.944C819.241 324.544 819.017 325.792 818.569 326.688C818.121 327.52 817.417 328.096 816.457 328.416C812.617 329.76 808.393 330.528 803.785 330.72C802.505 336.032 800.073 340.32 796.489 343.584C792.969 346.848 789.065 348.48 784.777 348.48C778.313 348.48 773.609 346.016 770.665 341.088C767.721 336.16 766.249 329.024 766.249 319.68C766.249 311.424 767.273 302.464 769.321 292.8C771.369 283.072 774.345 274.816 778.249 268.032C782.217 261.184 786.921 257.76 792.361 257.76C795.305 257.76 797.673 259.04 799.465 261.6C801.257 264.096 802.153 267.36 802.153 271.392C802.153 276.64 801.161 281.856 799.177 287.04C797.193 292.224 793.897 297.664 789.289 303.36C793.577 303.68 797.065 305.472 799.753 308.736C802.441 311.936 804.041 315.904 804.553 320.64C807.561 320.448 811.145 319.808 815.305 318.72C815.689 318.592 816.137 318.528 816.649 318.528ZM790.153 267.264C788.873 267.264 787.465 269.184 785.929 273.024C784.457 276.8 783.081 281.952 781.801 288.48C780.521 295.008 779.561 302.144 778.921 309.888C783.145 302.144 786.505 295.328 789.001 289.44C791.561 283.488 792.841 278.208 792.841 273.6C792.841 271.552 792.585 269.984 792.073 268.896C791.625 267.808 790.985 267.264 790.153 267.264ZM785.161 338.304C787.145 338.304 788.905 337.472 790.441 335.808C791.977 334.144 793.001 331.744 793.513 328.608C791.529 327.264 789.993 325.504 788.905 323.328C787.881 321.152 787.369 318.848 787.369 316.416C787.369 315.52 787.497 314.304 787.753 312.768H787.465C784.841 312.768 782.633 314.08 780.841 316.704C779.113 319.264 778.249 322.72 778.249 327.072C778.249 330.72 778.921 333.504 780.265 335.424C781.673 337.344 783.305 338.304 785.161 338.304ZM853.768 326.592C854.6 326.592 855.24 326.976 855.688 327.744C856.2 328.512 856.456 329.568 856.456 330.912C856.456 333.472 855.848 335.456 854.632 336.864C852.264 339.744 848.904 342.4 844.552 344.832C840.264 347.264 835.656 348.48 830.728 348.48C824.008 348.48 818.792 346.656 815.08 343.008C811.368 339.36 809.512 334.368 809.512 328.032C809.512 323.616 810.44 319.52 812.296 315.744C814.152 311.904 816.712 308.864 819.976 306.624C823.304 304.384 827.048 303.264 831.208 303.264C834.92 303.264 837.896 304.384 840.136 306.624C842.376 308.8 843.496 311.776 843.496 315.552C843.496 319.968 841.896 323.776 838.696 326.976C835.56 330.112 830.216 332.608 822.664 334.464C824.264 337.408 827.304 338.88 831.784 338.88C834.664 338.88 837.928 337.888 841.576 335.904C845.288 333.856 848.488 331.2 851.176 327.936C851.944 327.04 852.808 326.592 853.768 326.592ZM829.576 312.672C827.208 312.672 825.192 314.048 823.528 316.8C821.928 319.552 821.128 322.88 821.128 326.784V326.976C824.904 326.08 827.88 324.736 830.056 322.944C832.232 321.152 833.32 319.072 833.32 316.704C833.32 315.488 832.968 314.528 832.264 313.824C831.624 313.056 830.728 312.672 829.576 312.672ZM866.495 350.592C863.167 350.592 860.607 349.824 858.815 348.288C857.087 346.752 856.223 345.024 856.223 343.104C856.223 341.44 856.831 340 858.047 338.784C859.263 337.568 861.055 336.96 863.423 336.96C864.255 336.96 865.215 337.056 866.303 337.248C867.455 337.376 868.319 337.472 868.895 337.536C868.831 335.872 868.447 334.304 867.743 332.832C867.103 331.36 866.271 329.952 865.247 328.608C864.223 327.2 863.263 325.984 862.367 324.96C860.383 328.736 858.399 331.872 856.415 334.368C854.495 336.864 852.383 339.232 850.079 341.472C848.927 342.624 847.711 343.2 846.431 343.2C845.407 343.2 844.575 342.848 843.935 342.144C843.295 341.376 842.975 340.448 842.975 339.36C842.975 338.08 843.423 336.896 844.319 335.808L845.567 334.272C849.087 329.92 851.743 326.336 853.535 323.52C854.623 321.664 855.903 319.2 857.375 316.128C858.847 312.992 860.287 309.76 861.695 306.432C862.911 303.616 865.439 302.208 869.279 302.208C871.071 302.208 872.319 302.368 873.023 302.688C873.727 303.008 874.079 303.52 874.079 304.224C874.079 304.608 873.951 305.216 873.695 306.048C873.439 306.88 873.087 307.712 872.639 308.544C871.487 310.848 870.911 312.8 870.911 314.4C870.911 315.36 871.231 316.416 871.871 317.568C872.575 318.72 873.631 320.16 875.039 321.888C877.087 324.576 878.623 326.88 879.647 328.8C880.735 330.656 881.279 332.704 881.279 334.944C881.279 335.584 881.215 336.48 881.087 337.632C884.223 336.416 887.903 333.184 892.127 327.936C892.895 327.04 893.759 326.592 894.719 326.592C895.551 326.592 896.191 326.976 896.639 327.744C897.151 328.512 897.407 329.568 897.407 330.912C897.407 333.344 896.799 335.328 895.583 336.864C892.383 340.832 889.311 343.552 886.367 345.024C883.487 346.432 879.903 347.2 875.615 347.328C873.055 349.504 870.015 350.592 866.495 350.592ZM932.424 326.592C933.256 326.592 933.896 326.976 934.344 327.744C934.856 328.512 935.112 329.568 935.112 330.912C935.112 333.472 934.504 335.456 933.288 336.864C930.536 340.256 927.528 343.04 924.264 345.216C921 347.392 917.256 348.48 913.032 348.48C899.976 348.48 893.448 339.296 893.448 320.928C893.448 318.112 893.544 315.264 893.736 312.384H889.992C888.072 312.384 886.76 312.032 886.056 311.328C885.416 310.624 885.096 309.504 885.096 307.968C885.096 304.384 886.536 302.592 889.416 302.592H894.888C895.976 295.552 897.64 289.12 899.88 283.296C902.12 277.472 904.808 272.832 907.944 269.376C911.144 265.92 914.568 264.192 918.216 264.192C920.904 264.192 923.016 265.376 924.552 267.744C926.088 270.112 926.856 273.088 926.856 276.672C926.856 286.592 922.696 295.232 914.376 302.592H925.128C926.152 302.592 926.888 302.816 927.336 303.264C927.784 303.712 928.008 304.544 928.008 305.76C928.008 310.176 924.392 312.384 917.16 312.384H905.448C905.32 315.584 905.256 318.08 905.256 319.872C905.256 326.528 906.024 331.2 907.56 333.888C909.16 336.576 911.656 337.92 915.048 337.92C917.8 337.92 920.232 337.088 922.344 335.424C924.456 333.76 926.952 331.264 929.832 327.936C930.6 327.04 931.464 326.592 932.424 326.592ZM915.624 273.408C914.664 273.408 913.576 274.624 912.36 277.056C911.208 279.424 910.088 282.752 909 287.04C907.976 291.264 907.112 295.968 906.408 301.152C910.184 297.888 913 294.24 914.856 290.208C916.776 286.112 917.736 282.4 917.736 279.072C917.736 275.296 917.032 273.408 915.624 273.408ZM961.664 329.472C962.496 329.472 963.136 329.856 963.584 330.624C964.096 331.392 964.352 332.448 964.352 333.792C964.352 336.096 963.808 338.08 962.72 339.744C960.928 342.496 958.56 344.64 955.616 346.176C952.736 347.712 949.28 348.48 945.248 348.48C939.104 348.48 934.336 346.656 930.944 343.008C927.552 339.296 925.855 334.304 925.855 328.032C925.855 323.616 926.784 319.52 928.64 315.744C930.496 311.904 933.056 308.864 936.32 306.624C939.648 304.384 943.392 303.264 947.552 303.264C951.264 303.264 954.24 304.384 956.48 306.624C958.72 308.8 959.84 311.776 959.84 315.552C959.84 319.968 958.24 323.776 955.04 326.976C951.904 330.112 946.528 332.608 938.912 334.464C940.448 337.408 943.04 338.88 946.688 338.88C949.312 338.88 951.456 338.272 953.12 337.056C954.848 335.84 956.832 333.792 959.072 330.912C959.84 329.952 960.704 329.472 961.664 329.472ZM945.92 312.672C943.552 312.672 941.536 314.048 939.872 316.8C938.272 319.552 937.472 322.88 937.472 326.784V326.976C941.248 326.08 944.224 324.736 946.4 322.944C948.576 321.152 949.664 319.072 949.664 316.704C949.664 315.488 949.312 314.528 948.608 313.824C947.968 313.056 947.072 312.672 945.92 312.672Z" fill="#2D3748"/>
<path d="M502.312 442.36C499.336 442.36 496.96 441.28 495.184 439.12C493.408 436.96 492.52 434.128 492.52 430.624C492.52 426.784 493.408 423.16 495.184 419.752C496.96 416.296 499.312 413.536 502.24 411.472C505.216 409.36 508.36 408.304 511.672 408.304C512.728 408.304 513.424 408.52 513.76 408.952C514.144 409.336 514.456 410.056 514.696 411.112C515.704 410.92 516.76 410.824 517.864 410.824C520.216 410.824 521.392 411.664 521.392 413.344C521.392 414.352 521.032 416.752 520.312 420.544C519.208 426.064 518.656 429.904 518.656 432.064C518.656 432.784 518.824 433.36 519.16 433.792C519.544 434.224 520.024 434.44 520.6 434.44C521.512 434.44 522.616 433.864 523.912 432.712C525.208 431.512 526.96 429.592 529.168 426.952C529.744 426.28 530.392 425.944 531.112 425.944C531.736 425.944 532.216 426.232 532.552 426.808C532.936 427.384 533.128 428.176 533.128 429.184C533.128 431.104 532.672 432.592 531.76 433.648C529.792 436.096 527.704 438.16 525.496 439.84C523.288 441.52 521.152 442.36 519.088 442.36C517.504 442.36 516.04 441.832 514.696 440.776C513.4 439.672 512.416 438.184 511.744 436.312C509.248 440.344 506.104 442.36 502.312 442.36ZM504.904 435.088C505.96 435.088 506.968 434.464 507.928 433.216C508.888 431.968 509.584 430.312 510.016 428.248L512.68 415C510.664 415.048 508.792 415.816 507.064 417.304C505.384 418.744 504.04 420.664 503.032 423.064C502.024 425.464 501.52 428.008 501.52 430.696C501.52 432.184 501.808 433.288 502.384 434.008C503.008 434.728 503.848 435.088 504.904 435.088ZM534.62 442.36C532.46 442.36 530.684 441.376 529.292 439.408C527.948 437.392 527.276 434.896 527.276 431.92C527.276 428.32 527.516 425.032 527.996 422.056C528.476 419.032 529.268 415.84 530.372 412.48C530.852 411.04 531.524 410.008 532.388 409.384C533.252 408.76 534.62 408.448 536.492 408.448C537.548 408.448 538.268 408.616 538.652 408.952C539.084 409.288 539.3 409.792 539.3 410.464C539.3 410.848 539.036 412.144 538.508 414.352C538.028 416.128 537.644 417.736 537.356 419.176C536.396 424.216 535.916 427.576 535.916 429.256C535.916 430.264 536.036 430.984 536.276 431.416C536.516 431.8 536.9 431.992 537.428 431.992C538.148 431.992 539.036 431.272 540.092 429.832C541.196 428.392 542.348 426.208 543.548 423.28C544.796 420.352 545.996 416.752 547.148 412.48C547.532 411.04 548.108 410.008 548.876 409.384C549.692 408.76 550.892 408.448 552.476 408.448C553.58 408.448 554.348 408.592 554.78 408.88C555.212 409.12 555.428 409.6 555.428 410.32C555.428 411.52 554.828 414.808 553.628 420.184C552.284 426.328 551.612 430.12 551.612 431.56C551.612 432.472 551.804 433.192 552.188 433.72C552.572 434.2 553.076 434.44 553.7 434.44C554.66 434.44 555.788 433.864 557.084 432.712C558.428 431.512 560.204 429.592 562.412 426.952C562.988 426.28 563.636 425.944 564.356 425.944C564.98 425.944 565.46 426.232 565.796 426.808C566.18 427.384 566.372 428.176 566.372 429.184C566.372 431.104 565.916 432.592 565.004 433.648C562.94 436.192 560.708 438.28 558.308 439.912C555.956 441.544 553.268 442.36 550.244 442.36C547.94 442.36 546.236 441.472 545.132 439.696C544.076 437.92 543.548 435.424 543.548 432.208C542.732 435.472 541.508 437.992 539.876 439.768C538.244 441.496 536.492 442.36 534.62 442.36ZM573.926 443.944C571.43 443.944 569.51 443.368 568.166 442.216C566.87 441.064 566.222 439.768 566.222 438.328C566.222 437.08 566.678 436 567.59 435.088C568.502 434.176 569.846 433.72 571.622 433.72C572.246 433.72 572.966 433.792 573.782 433.936C574.646 434.032 575.294 434.104 575.726 434.152C575.678 432.904 575.39 431.728 574.862 430.624C574.382 429.52 573.758 428.464 572.99 427.456C572.222 426.4 571.502 425.488 570.83 424.72C569.342 427.552 567.854 429.904 566.366 431.776C564.926 433.648 563.342 435.424 561.614 437.104C560.75 437.968 559.838 438.4 558.878 438.4C558.11 438.4 557.486 438.136 557.006 437.608C556.526 437.032 556.286 436.336 556.286 435.52C556.286 434.56 556.622 433.672 557.294 432.856L558.23 431.704C560.87 428.44 562.862 425.752 564.206 423.64C565.07 422.248 565.934 420.592 566.798 418.672C567.71 416.752 568.886 414.136 570.326 410.824C571.238 408.712 573.134 407.656 576.014 407.656C577.358 407.656 578.294 407.776 578.822 408.016C579.35 408.256 579.614 408.64 579.614 409.168C579.614 409.456 579.518 409.912 579.326 410.536C579.134 411.16 578.87 411.784 578.534 412.408C577.67 414.136 577.238 415.6 577.238 416.8C577.238 417.52 577.478 418.312 577.958 419.176C578.486 420.04 579.278 421.12 580.334 422.416C581.87 424.432 583.022 426.16 583.79 427.6C584.606 428.992 585.014 430.528 585.014 432.208C585.014 434.224 584.534 436.144 583.574 437.968C582.662 439.744 581.366 441.184 579.686 442.288C578.006 443.392 576.086 443.944 573.926 443.944ZM648.821 425.944C649.445 425.944 649.925 426.232 650.261 426.808C650.645 427.384 650.837 428.176 650.837 429.184C650.837 431.104 650.381 432.592 649.469 433.648C647.501 436.048 645.341 438.112 642.989 439.84C640.637 441.52 638.309 442.36 636.005 442.36C632.357 442.36 629.573 440.224 627.653 435.952C625.637 438.496 623.861 440.2 622.325 441.064C620.837 441.928 619.085 442.36 617.069 442.36C614.141 442.36 611.717 441.28 609.797 439.12C607.925 436.912 606.989 434.056 606.989 430.552C606.989 426.712 607.805 423.16 609.437 419.896C611.069 416.584 613.301 413.896 616.133 411.832C619.013 409.72 622.229 408.472 625.781 408.088C626.693 398.776 628.421 390.832 630.965 384.256C633.557 377.632 636.941 374.32 641.117 374.32C643.181 374.32 644.885 375.256 646.229 377.128C647.621 379 648.317 381.832 648.317 385.624C648.317 391 646.997 397.288 644.357 404.488C641.717 411.688 638.189 419.08 633.773 426.664C633.965 429.448 634.373 431.44 634.997 432.64C635.669 433.84 636.509 434.44 637.517 434.44C638.813 434.44 640.133 433.864 641.477 432.712C642.821 431.56 644.621 429.64 646.877 426.952C647.453 426.28 648.101 425.944 648.821 425.944ZM640.325 381.376C639.413 381.376 638.501 383.008 637.589 386.272C636.677 389.488 635.885 393.712 635.213 398.944C634.589 404.176 634.133 409.648 633.845 415.36C639.221 403.648 641.909 394.24 641.909 387.136C641.909 385.312 641.741 383.896 641.405 382.888C641.117 381.88 640.757 381.376 640.325 381.376ZM619.589 435.088C620.501 435.088 621.413 434.728 622.325 434.008C623.237 433.24 624.389 431.848 625.781 429.832C625.301 427.24 625.061 424.336 625.061 421.12C625.061 419.968 625.109 418.096 625.205 415.504C622.565 416.32 620.357 418.096 618.581 420.832C616.853 423.52 615.989 426.52 615.989 429.832C615.989 433.336 617.189 435.088 619.589 435.088ZM677.091 425.944C677.715 425.944 678.195 426.232 678.531 426.808C678.915 427.384 679.107 428.176 679.107 429.184C679.107 431.104 678.651 432.592 677.739 433.648C675.963 435.808 673.443 437.8 670.179 439.624C666.963 441.448 663.507 442.36 659.811 442.36C654.771 442.36 650.859 440.992 648.075 438.256C645.291 435.52 643.899 431.776 643.899 427.024C643.899 423.712 644.595 420.64 645.987 417.808C647.379 414.928 649.299 412.648 651.747 410.968C654.243 409.288 657.051 408.448 660.171 408.448C662.955 408.448 665.187 409.288 666.867 410.968C668.547 412.6 669.387 414.832 669.387 417.664C669.387 420.976 668.187 423.832 665.787 426.232C663.435 428.584 659.427 430.456 653.763 431.848C654.963 434.056 657.243 435.16 660.603 435.16C662.763 435.16 665.211 434.416 667.947 432.928C670.731 431.392 673.131 429.4 675.147 426.952C675.723 426.28 676.371 425.944 677.091 425.944ZM658.947 415.504C657.171 415.504 655.659 416.536 654.411 418.6C653.211 420.664 652.611 423.16 652.611 426.088V426.232C655.443 425.56 657.675 424.552 659.307 423.208C660.939 421.864 661.755 420.304 661.755 418.528C661.755 417.616 661.491 416.896 660.963 416.368C660.483 415.792 659.811 415.504 658.947 415.504ZM682.677 403.696C680.661 403.696 679.149 403.24 678.141 402.328C677.133 401.368 676.629 400.048 676.629 398.368C676.629 396.688 677.277 395.296 678.573 394.192C679.917 393.04 681.573 392.464 683.541 392.464C685.317 392.464 686.757 392.896 687.861 393.76C688.965 394.624 689.517 395.848 689.517 397.432C689.517 399.352 688.893 400.888 687.645 402.04C686.397 403.144 684.741 403.696 682.677 403.696ZM682.101 442.36C678.981 442.36 676.701 441.256 675.261 439.048C673.869 436.84 673.173 433.912 673.173 430.264C673.173 428.104 673.437 425.344 673.965 421.984C674.541 418.576 675.261 415.408 676.125 412.48C676.557 410.944 677.133 409.888 677.853 409.312C678.573 408.736 679.725 408.448 681.309 408.448C683.757 408.448 684.981 409.264 684.981 410.896C684.981 412.096 684.525 414.88 683.613 419.248C682.461 424.528 681.885 428.104 681.885 429.976C681.885 431.416 682.077 432.52 682.461 433.288C682.845 434.056 683.493 434.44 684.405 434.44C685.269 434.44 686.349 433.84 687.645 432.64C688.941 431.44 690.669 429.544 692.829 426.952C693.405 426.28 694.053 425.944 694.773 425.944C695.397 425.944 695.877 426.232 696.213 426.808C696.597 427.384 696.789 428.176 696.789 429.184C696.789 431.104 696.333 432.592 695.421 433.648C690.669 439.456 686.229 442.36 682.101 442.36ZM696.076 442.36C694.252 442.36 692.956 441.4 692.188 439.48C691.468 437.56 691.108 434.488 691.108 430.264C691.108 424.024 691.996 418.096 693.772 412.48C694.204 411.088 694.9 410.08 695.86 409.456C696.868 408.784 698.26 408.448 700.036 408.448C700.996 408.448 701.668 408.568 702.052 408.808C702.436 409.048 702.628 409.504 702.628 410.176C702.628 410.944 702.268 412.672 701.548 415.36C701.068 417.28 700.684 418.96 700.396 420.4C700.108 421.84 699.868 423.616 699.676 425.728C701.26 421.6 703.036 418.24 705.004 415.648C706.972 413.056 708.892 411.208 710.764 410.104C712.684 409 714.436 408.448 716.02 408.448C719.14 408.448 720.7 410.008 720.7 413.128C720.7 415 720.172 418.384 719.116 423.28C718.204 427.456 717.748 430.216 717.748 431.56C717.748 433.48 718.444 434.44 719.836 434.44C720.796 434.44 721.924 433.864 723.22 432.712C724.564 431.512 726.34 429.592 728.548 426.952C729.124 426.28 729.772 425.944 730.492 425.944C731.116 425.944 731.596 426.232 731.932 426.808C732.316 427.384 732.508 428.176 732.508 429.184C732.508 431.104 732.052 432.592 731.14 433.648C729.076 436.192 726.844 438.28 724.444 439.912C722.092 441.544 719.404 442.36 716.38 442.36C713.932 442.36 712.084 441.664 710.836 440.272C709.588 438.832 708.964 436.768 708.964 434.08C708.964 432.736 709.3 430.336 709.972 426.88C710.596 423.856 710.908 421.768 710.908 420.616C710.908 419.848 710.644 419.464 710.116 419.464C709.492 419.464 708.604 420.28 707.452 421.912C706.348 423.496 705.196 425.608 703.996 428.248C702.844 430.888 701.908 433.672 701.188 436.6C700.66 438.856 700.036 440.392 699.316 441.208C698.644 441.976 697.564 442.36 696.076 442.36ZM758.795 425.944C759.419 425.944 759.899 426.232 760.235 426.808C760.619 427.384 760.811 428.176 760.811 429.184C760.811 431.104 760.355 432.592 759.443 433.648C757.667 435.808 755.147 437.8 751.883 439.624C748.667 441.448 745.211 442.36 741.515 442.36C736.475 442.36 732.563 440.992 729.779 438.256C726.995 435.52 725.603 431.776 725.603 427.024C725.603 423.712 726.299 420.64 727.691 417.808C729.083 414.928 731.003 412.648 733.451 410.968C735.947 409.288 738.755 408.448 741.875 408.448C744.659 408.448 746.891 409.288 748.571 410.968C750.251 412.6 751.091 414.832 751.091 417.664C751.091 420.976 749.891 423.832 747.491 426.232C745.139 428.584 741.131 430.456 735.467 431.848C736.667 434.056 738.947 435.16 742.307 435.16C744.467 435.16 746.915 434.416 749.651 432.928C752.435 431.392 754.835 429.4 756.851 426.952C757.427 426.28 758.075 425.944 758.795 425.944ZM740.651 415.504C738.875 415.504 737.363 416.536 736.115 418.6C734.915 420.664 734.315 423.16 734.315 426.088V426.232C737.147 425.56 739.379 424.552 741.011 423.208C742.643 421.864 743.459 420.304 743.459 418.528C743.459 417.616 743.195 416.896 742.667 416.368C742.187 415.792 741.515 415.504 740.651 415.504ZM760.06 442.36C758.236 442.36 756.94 441.4 756.172 439.48C755.452 437.56 755.092 434.488 755.092 430.264C755.092 424.024 755.98 418.096 757.756 412.48C758.188 411.088 758.884 410.08 759.844 409.456C760.852 408.784 762.244 408.448 764.02 408.448C764.98 408.448 765.652 408.568 766.036 408.808C766.42 409.048 766.612 409.504 766.612 410.176C766.612 410.944 766.252 412.672 765.532 415.36C765.052 417.28 764.668 418.96 764.38 420.4C764.092 421.792 763.852 423.544 763.66 425.656C764.956 421.912 766.492 418.744 768.268 416.152C770.092 413.56 771.94 411.64 773.812 410.392C775.732 409.096 777.532 408.448 779.212 408.448C780.892 408.448 782.068 408.832 782.74 409.6C783.46 410.368 783.82 411.544 783.82 413.128C783.82 414.664 783.364 417.448 782.452 421.48C782.068 423.208 781.804 424.504 781.66 425.368C783.244 421.336 784.996 418.048 786.916 415.504C788.884 412.96 790.804 411.16 792.676 410.104C794.548 409 796.276 408.448 797.86 408.448C799.396 408.448 800.548 408.856 801.316 409.672C802.132 410.44 802.54 411.592 802.54 413.128C802.54 414.376 802.276 416.728 801.748 420.184C801.268 423.112 800.884 425.896 800.596 428.536C800.308 431.128 800.164 434.032 800.164 437.248C800.164 439.072 799.78 440.392 799.012 441.208C798.292 441.976 797.092 442.36 795.412 442.36C793.828 442.36 792.676 441.952 791.956 441.136C791.236 440.32 790.876 439.096 790.876 437.464C790.876 435.544 791.212 432.376 791.884 427.96C792.46 424.12 792.748 421.672 792.748 420.616C792.748 419.848 792.484 419.464 791.956 419.464C791.332 419.464 790.444 420.28 789.292 421.912C788.14 423.496 786.988 425.608 785.836 428.248C784.684 430.888 783.748 433.672 783.028 436.6C782.5 438.904 781.876 440.44 781.156 441.208C780.484 441.976 779.38 442.36 777.844 442.36C776.26 442.36 775.06 441.616 774.244 440.128C773.476 438.592 773.092 436.744 773.092 434.584C773.092 432.76 773.332 430.12 773.812 426.664C774.196 423.592 774.388 421.576 774.388 420.616C774.388 419.848 774.124 419.464 773.596 419.464C772.876 419.464 771.964 420.328 770.86 422.056C769.756 423.784 768.676 425.992 767.62 428.68C766.612 431.368 765.796 434.008 765.172 436.6C764.644 438.856 764.02 440.392 763.3 441.208C762.628 441.976 761.548 442.36 760.06 442.36Z" fill="#2D3748"/>
<path d="M509.176 536.592C510.008 536.592 510.648 536.976 511.096 537.744C511.608 538.512 511.864 539.568 511.864 540.912C511.864 543.408 511.256 545.392 510.04 546.864C506.968 550.576 503.864 553.456 500.728 555.504C497.592 557.488 493.88 558.48 489.592 558.48C485.432 558.48 481.88 557.36 478.936 555.12C476.056 552.88 473.304 549.04 470.68 543.6C468.568 539.248 466.904 536.048 465.688 534C464.472 531.888 463.256 530.384 462.04 529.488C460.888 528.592 459.448 528.048 457.72 527.856C457.464 529.2 456.728 533.424 455.512 540.528C455 543.728 454.68 545.68 454.552 546.384C453.912 550.288 452.632 553.296 450.712 555.408C448.792 557.456 445.88 558.48 441.976 558.48C437.688 558.48 433.88 557.232 430.552 554.736C427.288 552.176 424.76 548.656 422.968 544.176C421.176 539.632 420.28 534.48 420.28 528.72C420.28 517.968 422.136 508.688 425.848 500.88C429.624 493.072 434.872 487.12 441.592 483.024C448.376 478.864 456.184 476.784 465.016 476.784C471.16 476.784 476.312 477.712 480.472 479.568C484.632 481.424 487.704 483.984 489.688 487.248C491.736 490.512 492.76 494.192 492.76 498.288C492.76 501.872 491.896 505.392 490.168 508.848C488.504 512.24 485.976 515.248 482.584 517.872C479.192 520.496 475.064 522.448 470.2 523.728C473.272 524.56 475.64 525.904 477.304 527.76C478.968 529.616 480.632 532.336 482.296 535.92C484.088 539.76 485.848 542.576 487.576 544.368C489.368 546.16 491.416 547.056 493.72 547.056C495.768 547.056 497.72 546.384 499.576 545.04C501.432 543.632 503.768 541.264 506.584 537.936C507.352 537.04 508.216 536.592 509.176 536.592ZM444.472 527.76C442.296 527.76 440.792 527.248 439.96 526.224C439.192 525.2 438.808 524.048 438.808 522.768C438.808 521.232 439.288 520.016 440.248 519.12C441.272 518.224 442.424 517.776 443.704 517.776H446.104C447.128 511.504 448.088 506.096 448.984 501.552C449.816 497.392 452.504 495.312 457.048 495.312C460.696 495.312 462.52 496.944 462.52 500.208C462.52 500.912 462.488 501.456 462.424 501.84L459.544 517.776C463 517.584 466.136 516.752 468.952 515.28C471.832 513.808 474.104 511.76 475.768 509.136C477.496 506.512 478.36 503.536 478.36 500.208C478.36 496.176 476.984 493.008 474.232 490.704C471.48 488.4 467.448 487.248 462.136 487.248C455.864 487.248 450.36 488.816 445.624 491.952C440.952 495.024 437.304 499.632 434.68 505.776C432.056 511.856 430.744 519.28 430.744 528.048C430.744 532.144 431.16 535.664 431.992 538.608C432.824 541.552 433.848 543.76 435.064 545.232C436.28 546.704 437.432 547.44 438.52 547.44C439.352 547.44 440.024 547.024 440.536 546.192C441.112 545.36 441.56 544.016 441.88 542.16L444.472 527.76ZM545.018 536.592C545.85 536.592 546.49 536.976 546.938 537.744C547.45 538.512 547.706 539.568 547.706 540.912C547.706 543.472 547.098 545.456 545.882 546.864C543.514 549.744 540.154 552.4 535.802 554.832C531.514 557.264 526.906 558.48 521.978 558.48C515.258 558.48 510.042 556.656 506.33 553.008C502.618 549.36 500.762 544.368 500.762 538.032C500.762 533.616 501.69 529.52 503.546 525.744C505.402 521.904 507.962 518.864 511.226 516.624C514.554 514.384 518.298 513.264 522.458 513.264C526.17 513.264 529.146 514.384 531.386 516.624C533.626 518.8 534.746 521.776 534.746 525.552C534.746 529.968 533.146 533.776 529.946 536.976C526.81 540.112 521.466 542.608 513.914 544.464C515.514 547.408 518.554 548.88 523.034 548.88C525.914 548.88 529.178 547.888 532.826 545.904C536.538 543.856 539.738 541.2 542.426 537.936C543.194 537.04 544.058 536.592 545.018 536.592ZM520.826 522.672C518.458 522.672 516.442 524.048 514.778 526.8C513.178 529.552 512.378 532.88 512.378 536.784V536.976C516.154 536.08 519.13 534.736 521.306 532.944C523.482 531.152 524.57 529.072 524.57 526.704C524.57 525.488 524.218 524.528 523.514 523.824C522.874 523.056 521.978 522.672 520.826 522.672ZM557.745 560.592C554.417 560.592 551.857 559.824 550.065 558.288C548.337 556.752 547.473 555.024 547.473 553.104C547.473 551.44 548.081 550 549.297 548.784C550.513 547.568 552.305 546.96 554.673 546.96C555.505 546.96 556.465 547.056 557.553 547.248C558.705 547.376 559.569 547.472 560.145 547.536C560.081 545.872 559.697 544.304 558.993 542.832C558.353 541.36 557.521 539.952 556.497 538.608C555.473 537.2 554.513 535.984 553.617 534.96C551.633 538.736 549.649 541.872 547.665 544.368C545.745 546.864 543.633 549.232 541.329 551.472C540.177 552.624 538.961 553.2 537.681 553.2C536.657 553.2 535.825 552.848 535.185 552.144C534.545 551.376 534.225 550.448 534.225 549.36C534.225 548.08 534.673 546.896 535.569 545.808L536.817 544.272C540.337 539.92 542.993 536.336 544.785 533.52C545.873 531.664 547.153 529.2 548.625 526.128C550.097 522.992 551.537 519.76 552.945 516.432C554.161 513.616 556.689 512.208 560.529 512.208C562.321 512.208 563.569 512.368 564.273 512.688C564.977 513.008 565.329 513.52 565.329 514.224C565.329 514.608 565.201 515.216 564.945 516.048C564.689 516.88 564.337 517.712 563.889 518.544C562.737 520.848 562.161 522.8 562.161 524.4C562.161 525.36 562.481 526.416 563.121 527.568C563.825 528.72 564.881 530.16 566.289 531.888C568.337 534.576 569.873 536.88 570.897 538.8C571.985 540.656 572.529 542.704 572.529 544.944C572.529 545.584 572.465 546.48 572.337 547.632C575.473 546.416 579.153 543.184 583.377 537.936C584.145 537.04 585.009 536.592 585.969 536.592C586.801 536.592 587.441 536.976 587.889 537.744C588.401 538.512 588.657 539.568 588.657 540.912C588.657 543.344 588.049 545.328 586.833 546.864C583.633 550.832 580.561 553.552 577.617 555.024C574.737 556.432 571.153 557.2 566.865 557.328C564.305 559.504 561.265 560.592 557.745 560.592ZM623.674 536.592C624.506 536.592 625.146 536.976 625.594 537.744C626.106 538.512 626.362 539.568 626.362 540.912C626.362 543.472 625.754 545.456 624.538 546.864C621.786 550.256 618.778 553.04 615.514 555.216C612.25 557.392 608.506 558.48 604.282 558.48C591.226 558.48 584.698 549.296 584.698 530.928C584.698 528.112 584.794 525.264 584.986 522.384H581.242C579.322 522.384 578.01 522.032 577.306 521.328C576.666 520.624 576.346 519.504 576.346 517.968C576.346 514.384 577.786 512.592 580.666 512.592H586.138C587.226 505.552 588.89 499.12 591.13 493.296C593.37 487.472 596.058 482.832 599.194 479.376C602.394 475.92 605.818 474.192 609.466 474.192C612.154 474.192 614.266 475.376 615.802 477.744C617.338 480.112 618.106 483.088 618.106 486.672C618.106 496.592 613.946 505.232 605.626 512.592H616.378C617.402 512.592 618.138 512.816 618.586 513.264C619.034 513.712 619.258 514.544 619.258 515.76C619.258 520.176 615.642 522.384 608.41 522.384H596.698C596.57 525.584 596.506 528.08 596.506 529.872C596.506 536.528 597.274 541.2 598.81 543.888C600.41 546.576 602.906 547.92 606.298 547.92C609.05 547.92 611.482 547.088 613.594 545.424C615.706 543.76 618.202 541.264 621.082 537.936C621.85 537.04 622.714 536.592 623.674 536.592ZM606.874 483.408C605.914 483.408 604.826 484.624 603.61 487.056C602.458 489.424 601.338 492.752 600.25 497.04C599.226 501.264 598.362 505.968 597.658 511.152C601.434 507.888 604.25 504.24 606.106 500.208C608.026 496.112 608.986 492.4 608.986 489.072C608.986 485.296 608.282 483.408 606.874 483.408ZM630.354 558.48C626.386 558.48 623.218 557.04 620.85 554.16C618.482 551.28 617.298 547.504 617.298 542.832C617.298 537.712 618.482 532.88 620.85 528.336C623.218 523.728 626.354 520.048 630.258 517.296C634.226 514.48 638.418 513.072 642.834 513.072C644.242 513.072 645.17 513.36 645.618 513.936C646.13 514.448 646.546 515.408 646.866 516.816C648.21 516.56 649.618 516.432 651.09 516.432C654.226 516.432 655.794 517.552 655.794 519.792C655.794 521.136 655.314 524.336 654.354 529.392C652.882 536.752 652.146 541.872 652.146 544.752C652.146 545.712 652.37 546.48 652.818 547.056C653.33 547.632 653.97 547.92 654.738 547.92C655.954 547.92 657.426 547.152 659.154 545.616C660.882 544.016 663.218 541.456 666.162 537.936C666.93 537.04 667.794 536.592 668.754 536.592C669.586 536.592 670.226 536.976 670.674 537.744C671.186 538.512 671.442 539.568 671.442 540.912C671.442 543.472 670.834 545.456 669.618 546.864C666.994 550.128 664.21 552.88 661.266 555.12C658.322 557.36 655.474 558.48 652.722 558.48C650.61 558.48 648.658 557.776 646.866 556.368C645.138 554.896 643.826 552.912 642.93 550.416C639.602 555.792 635.41 558.48 630.354 558.48ZM633.81 548.784C635.218 548.784 636.562 547.952 637.842 546.288C639.122 544.624 640.05 542.416 640.626 539.664L644.178 522C641.49 522.064 638.994 523.088 636.69 525.072C634.45 526.992 632.658 529.552 631.314 532.752C629.97 535.952 629.298 539.344 629.298 542.928C629.298 544.912 629.682 546.384 630.45 547.344C631.282 548.304 632.402 548.784 633.81 548.784ZM673.431 558.48C670.551 558.48 668.183 557.168 666.327 554.544C664.535 551.856 663.639 548.528 663.639 544.56C663.639 539.76 663.959 535.376 664.599 531.408C665.239 527.376 666.295 523.12 667.767 518.64C668.407 516.72 669.303 515.344 670.455 514.512C671.607 513.68 673.431 513.264 675.927 513.264C677.335 513.264 678.295 513.488 678.807 513.936C679.383 514.384 679.671 515.056 679.671 515.952C679.671 516.464 679.319 518.192 678.615 521.136C677.975 523.504 677.463 525.648 677.079 527.568C675.799 534.288 675.159 538.768 675.159 541.008C675.159 542.352 675.319 543.312 675.639 543.888C675.959 544.4 676.471 544.656 677.175 544.656C678.135 544.656 679.319 543.696 680.727 541.776C682.199 539.856 683.735 536.944 685.335 533.04C686.999 529.136 688.599 524.336 690.135 518.64C690.647 516.72 691.415 515.344 692.439 514.512C693.527 513.68 695.127 513.264 697.239 513.264C698.711 513.264 699.735 513.456 700.311 513.84C700.887 514.16 701.175 514.8 701.175 515.76C701.175 517.36 700.375 521.744 698.775 528.912C696.983 537.104 696.087 542.16 696.087 544.08C696.087 545.296 696.343 546.256 696.855 546.96C697.367 547.6 698.039 547.92 698.871 547.92C700.151 547.92 701.655 547.152 703.383 545.616C705.175 544.016 707.543 541.456 710.487 537.936C711.255 537.04 712.119 536.592 713.079 536.592C713.911 536.592 714.551 536.976 714.999 537.744C715.511 538.512 715.767 539.568 715.767 540.912C715.767 543.472 715.159 545.456 713.943 546.864C711.191 550.256 708.215 553.04 705.015 555.216C701.879 557.392 698.295 558.48 694.263 558.48C691.191 558.48 688.919 557.296 687.447 554.928C686.039 552.56 685.335 549.232 685.335 544.944C684.247 549.296 682.615 552.656 680.439 555.024C678.263 557.328 675.927 558.48 673.431 558.48ZM714.799 558.48C712.367 558.48 710.639 557.2 709.615 554.64C708.655 552.08 708.175 547.984 708.175 542.352C708.175 534.032 709.359 526.128 711.727 518.64C712.303 516.784 713.231 515.44 714.511 514.608C715.855 513.712 717.711 513.264 720.079 513.264C721.359 513.264 722.255 513.424 722.767 513.744C723.279 514.064 723.535 514.672 723.535 515.568C723.535 516.592 723.055 518.896 722.095 522.48C721.455 525.04 720.943 527.28 720.559 529.2C720.175 531.12 719.855 533.488 719.599 536.304C721.711 530.8 724.079 526.32 726.703 522.864C729.327 519.408 731.887 516.944 734.383 515.472C736.943 514 739.279 513.264 741.391 513.264C745.551 513.264 747.631 515.344 747.631 519.504C747.631 520.336 747.343 522.352 746.767 525.552C746.255 528.112 745.999 529.712 745.999 530.352C745.999 532.592 746.799 533.712 748.399 533.712C750.191 533.712 752.495 532.304 755.311 529.488C756.143 528.656 757.007 528.24 757.903 528.24C758.735 528.24 759.375 528.624 759.823 529.392C760.335 530.096 760.591 531.056 760.591 532.272C760.591 534.64 759.951 536.496 758.671 537.84C756.879 539.696 754.767 541.296 752.335 542.64C749.967 543.92 747.439 544.56 744.751 544.56C741.359 544.56 738.767 543.696 736.975 541.968C735.247 540.24 734.383 537.904 734.383 534.96C734.383 534 734.479 533.04 734.671 532.08C734.799 530.8 734.863 529.936 734.863 529.488C734.863 528.464 734.511 527.952 733.807 527.952C732.847 527.952 731.567 529.04 729.967 531.216C728.431 533.328 726.895 536.144 725.359 539.664C723.823 543.184 722.575 546.896 721.615 550.8C720.911 553.808 720.079 555.856 719.119 556.944C718.223 557.968 716.783 558.48 714.799 558.48ZM763.479 558.48C759.511 558.48 756.343 557.04 753.975 554.16C751.607 551.28 750.423 547.504 750.423 542.832C750.423 537.712 751.607 532.88 753.975 528.336C756.343 523.728 759.479 520.048 763.383 517.296C767.351 514.48 771.543 513.072 775.959 513.072C777.367 513.072 778.295 513.36 778.743 513.936C779.255 514.448 779.671 515.408 779.991 516.816C781.335 516.56 782.743 516.432 784.215 516.432C787.351 516.432 788.919 517.552 788.919 519.792C788.919 521.136 788.439 524.336 787.479 529.392C786.007 536.752 785.271 541.872 785.271 544.752C785.271 545.712 785.495 546.48 785.943 547.056C786.455 547.632 787.095 547.92 787.863 547.92C789.079 547.92 790.551 547.152 792.279 545.616C794.007 544.016 796.343 541.456 799.287 537.936C800.055 537.04 800.919 536.592 801.879 536.592C802.711 536.592 803.351 536.976 803.799 537.744C804.311 538.512 804.567 539.568 804.567 540.912C804.567 543.472 803.959 545.456 802.743 546.864C800.119 550.128 797.335 552.88 794.391 555.12C791.447 557.36 788.599 558.48 785.847 558.48C783.735 558.48 781.783 557.776 779.991 556.368C778.263 554.896 776.951 552.912 776.055 550.416C772.727 555.792 768.535 558.48 763.479 558.48ZM766.935 548.784C768.343 548.784 769.687 547.952 770.967 546.288C772.247 544.624 773.175 542.416 773.751 539.664L777.303 522C774.615 522.064 772.119 523.088 769.815 525.072C767.575 526.992 765.783 529.552 764.439 532.752C763.095 535.952 762.423 539.344 762.423 542.928C762.423 544.912 762.807 546.384 763.575 547.344C764.407 548.304 765.527 548.784 766.935 548.784ZM803.58 558.48C801.148 558.48 799.42 557.2 798.396 554.64C797.436 552.08 796.956 547.984 796.956 542.352C796.956 534.032 798.14 526.128 800.508 518.64C801.084 516.784 802.012 515.44 803.292 514.608C804.636 513.712 806.492 513.264 808.86 513.264C810.14 513.264 811.036 513.424 811.548 513.744C812.06 514.064 812.316 514.672 812.316 515.568C812.316 516.592 811.836 518.896 810.876 522.48C810.236 525.04 809.724 527.28 809.34 529.2C808.956 531.12 808.636 533.488 808.38 536.304C810.492 530.8 812.86 526.32 815.484 522.864C818.108 519.408 820.668 516.944 823.164 515.472C825.724 514 828.06 513.264 830.172 513.264C834.332 513.264 836.412 515.344 836.412 519.504C836.412 522 835.708 526.512 834.3 533.04C833.084 538.608 832.476 542.288 832.476 544.08C832.476 546.64 833.404 547.92 835.26 547.92C836.54 547.92 838.044 547.152 839.772 545.616C841.564 544.016 843.932 541.456 846.876 537.936C847.644 537.04 848.508 536.592 849.468 536.592C850.3 536.592 850.94 536.976 851.388 537.744C851.9 538.512 852.156 539.568 852.156 540.912C852.156 543.472 851.548 545.456 850.332 546.864C847.58 550.256 844.604 553.04 841.404 555.216C838.268 557.392 834.684 558.48 830.652 558.48C827.388 558.48 824.924 557.552 823.26 555.696C821.596 553.776 820.764 551.024 820.764 547.44C820.764 545.648 821.212 542.448 822.108 537.84C822.94 533.808 823.356 531.024 823.356 529.488C823.356 528.464 823.004 527.952 822.3 527.952C821.468 527.952 820.284 529.04 818.748 531.216C817.276 533.328 815.74 536.144 814.14 539.664C812.604 543.184 811.356 546.896 810.396 550.8C809.692 553.808 808.86 555.856 807.9 556.944C807.004 557.968 805.564 558.48 803.58 558.48ZM860.229 522.384C860.101 525.584 860.037 528.08 860.037 529.872C860.037 534.48 860.261 538.096 860.709 540.72C861.221 543.28 862.021 545.136 863.109 546.288C864.261 547.376 865.829 547.92 867.813 547.92C868.837 547.92 870.053 547.6 871.461 546.96C872.869 546.32 874.149 545.488 875.301 544.464C876.005 543.824 876.709 543.504 877.413 543.504C878.181 543.504 878.789 543.952 879.237 544.848C879.749 545.68 880.005 546.704 880.005 547.92C880.005 549.136 879.749 550.32 879.237 551.472C878.789 552.624 878.085 553.584 877.125 554.352C873.797 557.104 870.021 558.48 865.797 558.48C859.717 558.48 855.269 555.952 852.453 550.896C849.637 545.776 848.229 539.12 848.229 530.928C848.229 528.112 848.325 525.264 848.517 522.384H844.773C842.853 522.384 841.541 522.032 840.837 521.328C840.197 520.624 839.877 519.504 839.877 517.968C839.877 514.384 841.317 512.592 844.197 512.592H849.669C850.757 505.552 852.421 499.12 854.661 493.296C856.901 487.472 859.589 482.832 862.725 479.376C865.925 475.92 869.349 474.192 872.997 474.192C875.685 474.192 877.797 475.376 879.333 477.744C880.869 480.112 881.637 483.088 881.637 486.672C881.637 496.592 877.477 505.232 869.157 512.592H879.909C880.933 512.592 881.669 512.816 882.117 513.264C882.565 513.712 882.789 514.544 882.789 515.76C882.789 520.176 879.173 522.384 871.941 522.384H860.229ZM870.405 483.408C869.445 483.408 868.357 484.624 867.141 487.056C865.989 489.424 864.869 492.752 863.781 497.04C862.757 501.264 861.893 505.968 861.189 511.152C864.965 507.888 867.781 504.24 869.637 500.208C871.557 496.112 872.517 492.4 872.517 489.072C872.517 485.296 871.813 483.408 870.405 483.408Z" fill="#2D3748"/>
</g>
<path d="M249.938 402.579C249.938 435.764 222.756 462.666 189.224 462.666C155.693 462.666 128.511 435.764 128.511 402.579C128.511 369.394 155.693 342.493 189.224 342.493C222.756 342.493 249.938 369.394 249.938 402.579Z" fill="#667EEA" fill-opacity="0.95"/>
<g filter="url(#filter1_d)">
<rect x="197.659" y="380.189" width="9.81819" height="63.2728" rx="4.90909" transform="rotate(38 197.659 380.189)" fill="#00EEE0"/>
</g>
<g filter="url(#filter2_d)">
<path d="M205.262 372.924C208.038 371.917 210.91 374.162 210.605 377.099L209.066 391.886C208.74 395.013 205.101 396.559 202.624 394.624L190.188 384.907C187.711 382.972 188.331 379.067 191.286 377.995L205.262 372.924Z" fill="#00EEE0"/>
</g>
<rect x="1029" y="494" width="121" height="140" rx="21" fill="#6E85EB" fill-opacity="0.95"/>
<g filter="url(#filter3_d)">
<rect x="1053" y="520" width="74" height="4" rx="2" fill="#00EEE0"/>
<rect x="1053" y="538.4" width="74" height="4" rx="2" fill="#00EEE0"/>
<rect x="1053" y="556.8" width="74" height="4" rx="2" fill="#00EEE0"/>
<rect x="1053" y="575.2" width="74" height="4" rx="2" fill="#00EEE0"/>
<rect x="1053" y="608" width="88" height="4.06593" rx="2.03297" transform="rotate(-90 1053 608)" fill="#00EEE0"/>
</g>
<rect x="927" y="90" width="42" height="114" rx="6" fill="#37B2AC"/>
<rect x="979" y="122" width="45" height="82" rx="6" fill="#37B2AC"/>
<rect x="1034" y="112" width="29" height="92" rx="6" fill="#37B2AC"/>
<circle cx="948" cy="112" r="10" fill="white"/>
<circle cx="1002" cy="158" r="10" fill="white"/>
<circle cx="1049" cy="147" r="10" fill="white"/>
<rect x="945" y="111.996" width="4" height="75.4855" transform="rotate(-48.5 945 111.996)" fill="white"/>
<rect x="1004.83" y="159.58" width="4" height="51.1956" transform="rotate(-105.5 1004.83 159.58)" fill="white"/>
<defs>
<filter id="filter0_d" x="328.904" y="221" width="639.448" height="387" filterUnits="userSpaceOnUse" color-interpolation-filters="sRGB">
<feFlood flood-opacity="0" result="BackgroundImageFix"/>
<feColorMatrix in="SourceAlpha" type="matrix" values="0 0 0 0 0 0 0 0 0 0 0 0 0 0 0 0 0 0 127 0"/>
<feOffset dy="2"/>
<feGaussianBlur stdDeviation="2"/>
<feColorMatrix type="matrix" values="0 0 0 0 0 0 0 0 0 0 0 0 0 0 0 0 0 0 0.25 0"/>
<feBlend mode="normal" in2="BackgroundImageFix" result="effect1_dropShadow"/>
<feBlend mode="normal" in="SourceGraphic" in2="effect1_dropShadow" result="shape"/>
</filter>
<filter id="filter1_d" x="156.686" y="382.17" width="50.7285" height="59.9414" filterUnits="userSpaceOnUse" color-interpolation-filters="sRGB">
<feFlood flood-opacity="0" result="BackgroundImageFix"/>
<feColorMatrix in="SourceAlpha" type="matrix" values="0 0 0 0 0 0 0 0 0 0 0 0 0 0 0 0 0 0 127 0"/>
<feOffset dy="4"/>
<feGaussianBlur stdDeviation="2"/>
<feColorMatrix type="matrix" values="0 0 0 0 0 0 0 0 0 0 0 0 0 0 0 0 0 0 0.25 0"/>
<feBlend mode="normal" in2="BackgroundImageFix" result="effect1_dropShadow"/>
<feBlend mode="normal" in="SourceGraphic" in2="effect1_dropShadow" result="shape"/>
</filter>
<filter id="filter2_d" x="184.649" y="372.68" width="29.9779" height="30.7972" filterUnits="userSpaceOnUse" color-interpolation-filters="sRGB">
<feFlood flood-opacity="0" result="BackgroundImageFix"/>
<feColorMatrix in="SourceAlpha" type="matrix" values="0 0 0 0 0 0 0 0 0 0 0 0 0 0 0 0 0 0 127 0"/>
<feOffset dy="4"/>
<feGaussianBlur stdDeviation="2"/>
<feColorMatrix type="matrix" values="0 0 0 0 0 0 0 0 0 0 0 0 0 0 0 0 0 0 0.25 0"/>
<feBlend mode="normal" in2="BackgroundImageFix" result="effect1_dropShadow"/>
<feBlend mode="normal" in="SourceGraphic" in2="effect1_dropShadow" result="shape"/>
</filter>
<filter id="filter3_d" x="1049" y="520" width="82" height="96" filterUnits="userSpaceOnUse" color-interpolation-filters="sRGB">
<feFlood flood-opacity="0" result="BackgroundImageFix"/>
<feColorMatrix in="SourceAlpha" type="matrix" values="0 0 0 0 0 0 0 0 0 0 0 0 0 0 0 0 0 0 127 0"/>
<feOffset dy="4"/>
<feGaussianBlur stdDeviation="2"/>
<feColorMatrix type="matrix" values="0 0 0 0 0 0 0 0 0 0 0 0 0 0 0 0 0 0 0.25 0"/>
<feBlend mode="normal" in2="BackgroundImageFix" result="effect1_dropShadow"/>
<feBlend mode="normal" in="SourceGraphic" in2="effect1_dropShadow" result="shape"/>
</filter>
</defs>
</svg>
