<svg width="1022" height="544" viewBox="0 0 1022 544" fill="none" xmlns="http://www.w3.org/2000/svg">
<g filter="url(#filter0_d)">
<path d="M226.761 258.48C224.393 258.48 222.697 257.968 221.673 256.944C220.649 255.856 220.137 253.84 220.137 250.896C220.137 248.912 220.329 246.384 220.713 243.312C221.161 240.176 221.865 235.888 222.825 230.448C224.489 220.4 225.801 211.696 226.761 204.336C227.337 199.728 227.625 195.888 227.625 192.816C227.625 189.936 226.569 188.496 224.457 188.496C222.793 188.496 220.777 189.36 218.409 191.088C216.105 192.752 213.545 195.44 210.729 199.152C209.833 200.368 208.841 200.976 207.753 200.976C206.857 200.976 206.057 200.56 205.353 199.728C204.713 198.832 204.393 197.84 204.393 196.752C204.393 195.728 204.585 194.704 204.969 193.68C205.417 192.592 206.121 191.376 207.081 190.032C210.153 185.744 213.577 182.448 217.353 180.144C221.129 177.776 224.905 176.592 228.681 176.592C232.201 176.592 234.889 177.712 236.745 179.952C238.665 182.192 239.625 185.456 239.625 189.744C239.625 191.472 239.465 193.52 239.145 195.888C238.825 198.192 238.537 200.08 238.281 201.552C238.025 203.024 237.833 204.048 237.705 204.624C241.353 194.192 245.449 186.928 249.993 182.832C254.537 178.672 259.529 176.592 264.969 176.592C269.129 176.592 272.393 178.064 274.761 181.008C277.193 183.952 278.409 188.112 278.409 193.488C278.409 195.6 278.121 198.224 277.545 201.36C280.745 192.528 284.489 186.192 288.777 182.352C293.065 178.512 297.993 176.592 303.561 176.592C308.041 176.592 311.465 178.032 313.833 180.912C316.265 183.792 317.481 187.824 317.481 193.008C317.481 195.824 317.065 199.248 316.233 203.28L310.377 230.736C309.737 233.936 309.417 236.688 309.417 238.992C309.417 241.68 310.025 243.696 311.241 245.04C312.521 246.384 314.281 247.056 316.521 247.056C318.633 247.056 320.681 246.352 322.665 244.944C324.713 243.536 327.113 241.2 329.865 237.936C330.633 237.04 331.497 236.592 332.457 236.592C333.289 236.592 333.929 236.976 334.377 237.744C334.889 238.512 335.145 239.568 335.145 240.912C335.145 243.408 334.537 245.392 333.321 246.864C329.993 250.896 326.697 253.84 323.433 255.696C320.169 257.552 316.745 258.48 313.161 258.48C307.721 258.48 303.465 256.88 300.393 253.68C297.321 250.416 295.785 246.064 295.785 240.624C295.785 236.848 296.553 231.376 298.089 224.208L301.929 206.64C302.057 206.064 302.281 205.04 302.601 203.568C302.921 202.096 303.177 200.72 303.369 199.44C303.561 198.096 303.657 196.784 303.657 195.504C303.657 193.264 303.209 191.6 302.313 190.512C301.481 189.36 300.265 188.784 298.665 188.784C295.657 188.784 292.489 190.736 289.161 194.64C285.897 198.48 282.761 204.88 279.753 213.84C276.809 222.8 274.409 234.448 272.553 248.784C272.105 252.624 271.305 255.216 270.153 256.56C269.065 257.84 267.273 258.48 264.777 258.48C262.601 258.48 261.001 257.968 259.977 256.944C259.017 255.92 258.537 254 258.537 251.184C258.537 248.56 258.889 245.136 259.593 240.912C260.297 236.624 261.193 231.6 262.281 225.84C265.225 210.352 266.697 200.368 266.697 195.888C266.697 193.456 266.217 191.664 265.257 190.512C264.361 189.36 262.985 188.784 261.129 188.784C257.993 188.784 254.761 190.576 251.433 194.16C248.105 197.68 244.841 203.984 241.641 213.072C238.505 222.096 235.881 234.32 233.769 249.744C233.321 253.008 232.649 255.28 231.753 256.56C230.921 257.84 229.257 258.48 226.761 258.48ZM339.218 258.48C335.25 258.48 332.082 257.04 329.714 254.16C327.346 251.28 326.162 247.504 326.162 242.832C326.162 237.712 327.346 232.88 329.714 228.336C332.082 223.728 335.218 220.048 339.122 217.296C343.09 214.48 347.282 213.072 351.698 213.072C353.106 213.072 354.034 213.36 354.482 213.936C354.994 214.448 355.41 215.408 355.73 216.816C357.074 216.56 358.482 216.432 359.954 216.432C363.09 216.432 364.658 217.552 364.658 219.792C364.658 221.136 364.178 224.336 363.218 229.392C361.746 236.752 361.01 241.872 361.01 244.752C361.01 245.712 361.234 246.48 361.682 247.056C362.194 247.632 362.834 247.92 363.602 247.92C364.818 247.92 366.29 247.152 368.018 245.616C369.746 244.016 372.082 241.456 375.026 237.936C375.794 237.04 376.658 236.592 377.618 236.592C378.45 236.592 379.09 236.976 379.538 237.744C380.05 238.512 380.306 239.568 380.306 240.912C380.306 243.472 379.698 245.456 378.482 246.864C375.858 250.128 373.074 252.88 370.13 255.12C367.186 257.36 364.338 258.48 361.586 258.48C359.474 258.48 357.522 257.776 355.73 256.368C354.002 254.896 352.69 252.912 351.794 250.416C348.466 255.792 344.274 258.48 339.218 258.48ZM342.674 248.784C344.082 248.784 345.426 247.952 346.706 246.288C347.986 244.624 348.914 242.416 349.49 239.664L353.042 222C350.354 222.064 347.858 223.088 345.554 225.072C343.314 226.992 341.522 229.552 340.178 232.752C338.834 235.952 338.162 239.344 338.162 242.928C338.162 244.912 338.546 246.384 339.314 247.344C340.146 248.304 341.266 248.784 342.674 248.784ZM390.84 258.48C384.568 258.48 379.672 256.72 376.152 253.2C372.696 249.616 370.968 244.912 370.968 239.088C370.968 233.904 371.992 229.36 374.04 225.456C376.088 221.552 378.744 218.544 382.008 216.432C385.272 214.32 388.696 213.264 392.28 213.264C395.8 213.264 398.52 214.32 400.44 216.432C402.424 218.48 403.416 221.136 403.416 224.4C403.416 227.088 402.808 229.36 401.592 231.216C400.44 233.072 398.904 234 396.984 234C395.768 234 394.776 233.712 394.008 233.136C393.304 232.56 392.952 231.76 392.952 230.736C392.952 230.288 393.016 229.776 393.144 229.2C393.272 228.624 393.368 228.208 393.432 227.952C393.752 226.992 393.912 226.096 393.912 225.264C393.912 224.432 393.688 223.792 393.24 223.344C392.856 222.896 392.28 222.672 391.512 222.672C390.04 222.672 388.664 223.344 387.384 224.688C386.104 225.968 385.08 227.728 384.312 229.968C383.544 232.208 383.16 234.672 383.16 237.36C383.16 244.784 386.392 248.496 392.856 248.496C395.48 248.496 398.296 247.632 401.304 245.904C404.376 244.112 407.384 241.456 410.328 237.936C411.096 237.04 411.96 236.592 412.92 236.592C413.752 236.592 414.392 236.976 414.84 237.744C415.352 238.512 415.608 239.568 415.608 240.912C415.608 243.344 415 245.328 413.784 246.864C410.776 250.576 407.16 253.456 402.936 255.504C398.776 257.488 394.744 258.48 390.84 258.48ZM441.831 213.264C443.879 213.264 445.415 213.808 446.439 214.896C447.527 215.92 448.071 217.456 448.071 219.504C448.071 221.168 447.719 224.304 447.015 228.912C446.375 232.816 445.863 236.528 445.479 240.048C445.095 243.504 444.903 247.376 444.903 251.664C444.903 254.096 444.391 255.856 443.367 256.944C442.407 257.968 440.807 258.48 438.567 258.48C436.455 258.48 434.919 257.936 433.959 256.848C432.999 255.76 432.519 254.128 432.519 251.952C432.519 249.392 432.967 245.168 433.863 239.28C434.631 234.16 435.015 230.896 435.015 229.488C435.015 228.464 434.663 227.952 433.959 227.952C433.127 227.952 431.943 229.04 430.407 231.216C428.871 233.328 427.335 236.144 425.799 239.664C424.263 243.184 423.015 246.896 422.055 250.8C421.351 253.808 420.519 255.856 419.559 256.944C418.663 257.968 417.223 258.48 415.239 258.48C413.255 258.48 411.783 257.776 410.823 256.368C409.927 254.896 409.319 252.656 408.999 249.648C408.679 246.64 408.519 242.224 408.519 236.4C408.519 226.544 409.511 216.272 411.495 205.584C413.543 194.896 416.519 185.936 420.423 178.704C424.391 171.408 429.127 167.76 434.631 167.76C437.575 167.76 439.943 169.04 441.735 171.6C443.591 174.096 444.519 177.36 444.519 181.392C444.519 187.856 442.631 194.576 438.855 201.552C435.079 208.464 428.935 216.56 420.423 225.84C420.231 229.168 420.135 232.592 420.135 236.112C422.247 230.672 424.583 226.256 427.143 222.864C429.767 219.408 432.327 216.944 434.823 215.472C437.383 214 439.719 213.264 441.831 213.264ZM432.615 177.264C431.463 177.264 430.183 178.928 428.775 182.256C427.367 185.52 425.991 189.968 424.647 195.6C423.367 201.168 422.311 207.248 421.479 213.84C425.447 209.168 428.711 204.08 431.271 198.576C433.895 193.072 435.207 188.08 435.207 183.6C435.207 181.552 434.983 179.984 434.535 178.896C434.087 177.808 433.447 177.264 432.615 177.264ZM534.844 236.592C535.676 236.592 536.316 236.976 536.764 237.744C537.276 238.512 537.532 239.568 537.532 240.912C537.532 243.472 536.924 245.456 535.708 246.864C533.084 250.064 530.204 252.816 527.068 255.12C523.932 257.36 520.828 258.48 517.756 258.48C512.892 258.48 509.18 255.632 506.62 249.936C503.932 253.328 501.564 255.6 499.516 256.752C497.532 257.904 495.196 258.48 492.508 258.48C488.604 258.48 485.372 257.04 482.812 254.16C480.316 251.216 479.068 247.408 479.068 242.736C479.068 237.616 480.156 232.88 482.332 228.528C484.508 224.112 487.484 220.528 491.26 217.776C495.1 214.96 499.388 213.296 504.124 212.784C505.34 200.368 507.644 189.776 511.036 181.008C514.492 172.176 519.004 167.76 524.572 167.76C527.324 167.76 529.596 169.008 531.388 171.504C533.244 174 534.172 177.776 534.172 182.832C534.172 190 532.412 198.384 528.892 207.984C525.372 217.584 520.668 227.44 514.78 237.552C515.036 241.264 515.58 243.92 516.412 245.52C517.308 247.12 518.428 247.92 519.772 247.92C521.5 247.92 523.26 247.152 525.052 245.616C526.844 244.08 529.244 241.52 532.252 237.936C533.02 237.04 533.884 236.592 534.844 236.592ZM523.516 177.168C522.3 177.168 521.084 179.344 519.868 183.696C518.652 187.984 517.596 193.616 516.7 200.592C515.868 207.568 515.26 214.864 514.876 222.48C522.044 206.864 525.628 194.32 525.628 184.848C525.628 182.416 525.404 180.528 524.956 179.184C524.572 177.84 524.092 177.168 523.516 177.168ZM495.868 248.784C497.084 248.784 498.3 248.304 499.516 247.344C500.732 246.32 502.268 244.464 504.124 241.776C503.484 238.32 503.164 234.448 503.164 230.16C503.164 228.624 503.228 226.128 503.356 222.672C499.836 223.76 496.892 226.128 494.524 229.776C492.22 233.36 491.068 237.36 491.068 241.776C491.068 246.448 492.668 248.784 495.868 248.784ZM540.593 258.48C536.625 258.48 533.457 257.04 531.089 254.16C528.721 251.28 527.537 247.504 527.537 242.832C527.537 237.712 528.721 232.88 531.089 228.336C533.457 223.728 536.593 220.048 540.497 217.296C544.465 214.48 548.657 213.072 553.073 213.072C554.481 213.072 555.409 213.36 555.857 213.936C556.369 214.448 556.785 215.408 557.105 216.816C558.449 216.56 559.857 216.432 561.329 216.432C564.465 216.432 566.033 217.552 566.033 219.792C566.033 221.136 565.553 224.336 564.593 229.392C563.121 236.752 562.385 241.872 562.385 244.752C562.385 245.712 562.609 246.48 563.057 247.056C563.569 247.632 564.209 247.92 564.977 247.92C566.193 247.92 567.665 247.152 569.393 245.616C571.121 244.016 573.457 241.456 576.401 237.936C577.169 237.04 578.033 236.592 578.993 236.592C579.825 236.592 580.465 236.976 580.913 237.744C581.425 238.512 581.681 239.568 581.681 240.912C581.681 243.472 581.073 245.456 579.857 246.864C577.233 250.128 574.449 252.88 571.505 255.12C568.561 257.36 565.713 258.48 562.961 258.48C560.849 258.48 558.897 257.776 557.105 256.368C555.377 254.896 554.065 252.912 553.169 250.416C549.841 255.792 545.649 258.48 540.593 258.48ZM544.049 248.784C545.457 248.784 546.801 247.952 548.081 246.288C549.361 244.624 550.289 242.416 550.865 239.664L554.417 222C551.729 222.064 549.233 223.088 546.929 225.072C544.689 226.992 542.897 229.552 541.553 232.752C540.209 235.952 539.537 239.344 539.537 242.928C539.537 244.912 539.921 246.384 540.689 247.344C541.521 248.304 542.641 248.784 544.049 248.784ZM591.735 260.592C588.407 260.592 585.847 259.824 584.055 258.288C582.327 256.752 581.463 255.024 581.463 253.104C581.463 251.44 582.071 250 583.287 248.784C584.503 247.568 586.295 246.96 588.663 246.96C589.495 246.96 590.455 247.056 591.543 247.248C592.695 247.376 593.559 247.472 594.135 247.536C594.071 245.872 593.687 244.304 592.983 242.832C592.343 241.36 591.511 239.952 590.487 238.608C589.463 237.2 588.503 235.984 587.607 234.96C585.623 238.736 583.639 241.872 581.655 244.368C579.735 246.864 577.623 249.232 575.319 251.472C574.167 252.624 572.951 253.2 571.671 253.2C570.647 253.2 569.815 252.848 569.175 252.144C568.535 251.376 568.215 250.448 568.215 249.36C568.215 248.08 568.663 246.896 569.559 245.808L570.807 244.272C574.327 239.92 576.983 236.336 578.775 233.52C579.927 231.664 581.079 229.456 582.231 226.896C583.447 224.336 585.015 220.848 586.935 216.432C588.151 213.616 590.679 212.208 594.519 212.208C596.311 212.208 597.559 212.368 598.263 212.688C598.967 213.008 599.319 213.52 599.319 214.224C599.319 214.608 599.191 215.216 598.935 216.048C598.679 216.88 598.327 217.712 597.879 218.544C596.727 220.848 596.151 222.8 596.151 224.4C596.151 225.36 596.471 226.416 597.111 227.568C597.815 228.72 598.871 230.16 600.279 231.888C602.327 234.576 603.863 236.88 604.887 238.8C605.975 240.656 606.519 242.704 606.519 244.944C606.519 247.632 605.879 250.192 604.599 252.624C603.383 254.992 601.655 256.912 599.415 258.384C597.175 259.856 594.615 260.592 591.735 260.592ZM688.138 228.528C688.97 228.528 689.61 228.944 690.058 229.776C690.506 230.608 690.73 231.664 690.73 232.944C690.73 234.544 690.506 235.792 690.058 236.688C689.61 237.52 688.906 238.096 687.946 238.416C684.106 239.76 679.882 240.528 675.274 240.72C673.994 246.032 671.562 250.32 667.978 253.584C664.458 256.848 660.554 258.48 656.266 258.48C649.802 258.48 645.098 256.016 642.154 251.088C639.21 246.16 637.738 239.024 637.738 229.68C637.738 221.424 638.762 212.464 640.81 202.8C642.858 193.072 645.834 184.816 649.738 178.032C653.706 171.184 658.41 167.76 663.85 167.76C666.794 167.76 669.162 169.04 670.954 171.6C672.746 174.096 673.642 177.36 673.642 181.392C673.642 186.64 672.65 191.856 670.666 197.04C668.682 202.224 665.386 207.664 660.778 213.36C665.066 213.68 668.554 215.472 671.242 218.736C673.93 221.936 675.53 225.904 676.042 230.64C679.05 230.448 682.634 229.808 686.794 228.72C687.178 228.592 687.626 228.528 688.138 228.528ZM661.642 177.264C660.362 177.264 658.954 179.184 657.418 183.024C655.946 186.8 654.57 191.952 653.29 198.48C652.01 205.008 651.05 212.144 650.41 219.888C654.634 212.144 657.994 205.328 660.49 199.44C663.05 193.488 664.33 188.208 664.33 183.6C664.33 181.552 664.074 179.984 663.562 178.896C663.114 177.808 662.474 177.264 661.642 177.264ZM656.65 248.304C658.634 248.304 660.394 247.472 661.93 245.808C663.466 244.144 664.49 241.744 665.002 238.608C663.018 237.264 661.482 235.504 660.394 233.328C659.37 231.152 658.858 228.848 658.858 226.416C658.858 225.52 658.986 224.304 659.242 222.768H658.954C656.33 222.768 654.122 224.08 652.33 226.704C650.602 229.264 649.738 232.72 649.738 237.072C649.738 240.72 650.41 243.504 651.754 245.424C653.162 247.344 654.794 248.304 656.65 248.304ZM725.257 236.592C726.089 236.592 726.729 236.976 727.177 237.744C727.689 238.512 727.945 239.568 727.945 240.912C727.945 243.472 727.337 245.456 726.121 246.864C723.753 249.744 720.393 252.4 716.041 254.832C711.753 257.264 707.145 258.48 702.217 258.48C695.497 258.48 690.281 256.656 686.569 253.008C682.857 249.36 681.001 244.368 681.001 238.032C681.001 233.616 681.929 229.52 683.785 225.744C685.641 221.904 688.201 218.864 691.465 216.624C694.793 214.384 698.537 213.264 702.697 213.264C706.409 213.264 709.385 214.384 711.625 216.624C713.865 218.8 714.985 221.776 714.985 225.552C714.985 229.968 713.385 233.776 710.185 236.976C707.049 240.112 701.705 242.608 694.153 244.464C695.753 247.408 698.793 248.88 703.273 248.88C706.153 248.88 709.417 247.888 713.065 245.904C716.777 243.856 719.977 241.2 722.665 237.936C723.433 237.04 724.297 236.592 725.257 236.592ZM701.065 222.672C698.697 222.672 696.681 224.048 695.017 226.8C693.417 229.552 692.617 232.88 692.617 236.784V236.976C696.393 236.08 699.369 234.736 701.545 232.944C703.721 231.152 704.809 229.072 704.809 226.704C704.809 225.488 704.457 224.528 703.753 223.824C703.113 223.056 702.217 222.672 701.065 222.672ZM737.985 260.592C734.657 260.592 732.097 259.824 730.305 258.288C728.577 256.752 727.713 255.024 727.713 253.104C727.713 251.44 728.321 250 729.537 248.784C730.753 247.568 732.545 246.96 734.913 246.96C735.745 246.96 736.705 247.056 737.793 247.248C738.945 247.376 739.809 247.472 740.385 247.536C740.321 245.872 739.937 244.304 739.233 242.832C738.593 241.36 737.761 239.952 736.737 238.608C735.713 237.2 734.753 235.984 733.857 234.96C731.873 238.736 729.889 241.872 727.905 244.368C725.985 246.864 723.873 249.232 721.569 251.472C720.417 252.624 719.201 253.2 717.921 253.2C716.897 253.2 716.065 252.848 715.425 252.144C714.785 251.376 714.465 250.448 714.465 249.36C714.465 248.08 714.913 246.896 715.809 245.808L717.057 244.272C720.577 239.92 723.233 236.336 725.025 233.52C726.113 231.664 727.393 229.2 728.865 226.128C730.337 222.992 731.777 219.76 733.185 216.432C734.401 213.616 736.929 212.208 740.769 212.208C742.561 212.208 743.809 212.368 744.513 212.688C745.217 213.008 745.569 213.52 745.569 214.224C745.569 214.608 745.441 215.216 745.185 216.048C744.929 216.88 744.577 217.712 744.129 218.544C742.977 220.848 742.401 222.8 742.401 224.4C742.401 225.36 742.721 226.416 743.361 227.568C744.065 228.72 745.121 230.16 746.529 231.888C748.577 234.576 750.113 236.88 751.137 238.8C752.225 240.656 752.769 242.704 752.769 244.944C752.769 245.584 752.705 246.48 752.577 247.632C755.713 246.416 759.393 243.184 763.617 237.936C764.385 237.04 765.249 236.592 766.209 236.592C767.041 236.592 767.681 236.976 768.129 237.744C768.641 238.512 768.897 239.568 768.897 240.912C768.897 243.344 768.289 245.328 767.073 246.864C763.873 250.832 760.801 253.552 757.857 255.024C754.977 256.432 751.393 257.2 747.105 257.328C744.545 259.504 741.505 260.592 737.985 260.592ZM803.913 236.592C804.745 236.592 805.385 236.976 805.833 237.744C806.345 238.512 806.601 239.568 806.601 240.912C806.601 243.472 805.993 245.456 804.777 246.864C802.025 250.256 799.017 253.04 795.753 255.216C792.489 257.392 788.745 258.48 784.521 258.48C771.465 258.48 764.937 249.296 764.937 230.928C764.937 228.112 765.033 225.264 765.225 222.384H761.481C759.561 222.384 758.249 222.032 757.545 221.328C756.905 220.624 756.585 219.504 756.585 217.968C756.585 214.384 758.025 212.592 760.905 212.592H766.377C767.465 205.552 769.129 199.12 771.369 193.296C773.609 187.472 776.297 182.832 779.433 179.376C782.633 175.92 786.057 174.192 789.705 174.192C792.393 174.192 794.505 175.376 796.041 177.744C797.577 180.112 798.345 183.088 798.345 186.672C798.345 196.592 794.185 205.232 785.865 212.592H796.617C797.641 212.592 798.377 212.816 798.825 213.264C799.273 213.712 799.497 214.544 799.497 215.76C799.497 220.176 795.881 222.384 788.649 222.384H776.937C776.809 225.584 776.745 228.08 776.745 229.872C776.745 236.528 777.513 241.2 779.049 243.888C780.649 246.576 783.145 247.92 786.537 247.92C789.289 247.92 791.721 247.088 793.833 245.424C795.945 243.76 798.441 241.264 801.321 237.936C802.089 237.04 802.953 236.592 803.913 236.592ZM787.113 183.408C786.153 183.408 785.065 184.624 783.849 187.056C782.697 189.424 781.577 192.752 780.489 197.04C779.465 201.264 778.601 205.968 777.897 211.152C781.673 207.888 784.489 204.24 786.345 200.208C788.265 196.112 789.225 192.4 789.225 189.072C789.225 185.296 788.521 183.408 787.113 183.408ZM833.153 239.472C833.985 239.472 834.625 239.856 835.073 240.624C835.585 241.392 835.841 242.448 835.841 243.792C835.841 246.096 835.297 248.08 834.209 249.744C832.417 252.496 830.049 254.64 827.105 256.176C824.225 257.712 820.769 258.48 816.737 258.48C810.593 258.48 805.825 256.656 802.433 253.008C799.041 249.296 797.345 244.304 797.345 238.032C797.345 233.616 798.273 229.52 800.129 225.744C801.985 221.904 804.545 218.864 807.809 216.624C811.137 214.384 814.881 213.264 819.041 213.264C822.753 213.264 825.729 214.384 827.969 216.624C830.209 218.8 831.329 221.776 831.329 225.552C831.329 229.968 829.729 233.776 826.529 236.976C823.393 240.112 818.017 242.608 810.401 244.464C811.937 247.408 814.529 248.88 818.177 248.88C820.801 248.88 822.945 248.272 824.609 247.056C826.337 245.84 828.321 243.792 830.561 240.912C831.329 239.952 832.193 239.472 833.153 239.472ZM817.409 222.672C815.041 222.672 813.025 224.048 811.361 226.8C809.761 229.552 808.961 232.88 808.961 236.784V236.976C812.737 236.08 815.713 234.736 817.889 232.944C820.065 231.152 821.153 229.072 821.153 226.704C821.153 225.488 820.801 224.528 820.097 223.824C819.457 223.056 818.561 222.672 817.409 222.672Z" fill="#2D3748"/>
<path d="M373.801 352.36C370.825 352.36 368.449 351.28 366.673 349.12C364.897 346.96 364.009 344.128 364.009 340.624C364.009 336.784 364.897 333.16 366.673 329.752C368.449 326.296 370.801 323.536 373.729 321.472C376.705 319.36 379.849 318.304 383.161 318.304C384.217 318.304 384.913 318.52 385.249 318.952C385.633 319.336 385.945 320.056 386.185 321.112C387.193 320.92 388.249 320.824 389.353 320.824C391.705 320.824 392.881 321.664 392.881 323.344C392.881 324.352 392.521 326.752 391.801 330.544C390.697 336.064 390.145 339.904 390.145 342.064C390.145 342.784 390.313 343.36 390.649 343.792C391.033 344.224 391.513 344.44 392.089 344.44C393.001 344.44 394.105 343.864 395.401 342.712C396.697 341.512 398.449 339.592 400.657 336.952C401.233 336.28 401.881 335.944 402.601 335.944C403.225 335.944 403.705 336.232 404.041 336.808C404.425 337.384 404.617 338.176 404.617 339.184C404.617 341.104 404.161 342.592 403.249 343.648C401.281 346.096 399.193 348.16 396.985 349.84C394.777 351.52 392.641 352.36 390.577 352.36C388.993 352.36 387.529 351.832 386.185 350.776C384.889 349.672 383.905 348.184 383.233 346.312C380.737 350.344 377.593 352.36 373.801 352.36ZM376.393 345.088C377.449 345.088 378.457 344.464 379.417 343.216C380.377 341.968 381.073 340.312 381.505 338.248L384.169 325C382.153 325.048 380.281 325.816 378.553 327.304C376.873 328.744 375.529 330.664 374.521 333.064C373.513 335.464 373.009 338.008 373.009 340.696C373.009 342.184 373.297 343.288 373.873 344.008C374.497 344.728 375.337 345.088 376.393 345.088ZM406.11 352.36C403.95 352.36 402.174 351.376 400.782 349.408C399.438 347.392 398.766 344.896 398.766 341.92C398.766 338.32 399.006 335.032 399.486 332.056C399.966 329.032 400.758 325.84 401.862 322.48C402.342 321.04 403.014 320.008 403.878 319.384C404.742 318.76 406.11 318.448 407.982 318.448C409.038 318.448 409.758 318.616 410.142 318.952C410.574 319.288 410.79 319.792 410.79 320.464C410.79 320.848 410.526 322.144 409.998 324.352C409.518 326.128 409.134 327.736 408.846 329.176C407.886 334.216 407.406 337.576 407.406 339.256C407.406 340.264 407.526 340.984 407.766 341.416C408.006 341.8 408.39 341.992 408.918 341.992C409.638 341.992 410.526 341.272 411.582 339.832C412.686 338.392 413.838 336.208 415.038 333.28C416.286 330.352 417.486 326.752 418.638 322.48C419.022 321.04 419.598 320.008 420.366 319.384C421.182 318.76 422.382 318.448 423.966 318.448C425.07 318.448 425.838 318.592 426.27 318.88C426.702 319.12 426.918 319.6 426.918 320.32C426.918 321.52 426.318 324.808 425.118 330.184C423.774 336.328 423.102 340.12 423.102 341.56C423.102 342.472 423.294 343.192 423.678 343.72C424.062 344.2 424.566 344.44 425.19 344.44C426.15 344.44 427.278 343.864 428.574 342.712C429.918 341.512 431.694 339.592 433.902 336.952C434.478 336.28 435.126 335.944 435.846 335.944C436.47 335.944 436.95 336.232 437.286 336.808C437.67 337.384 437.862 338.176 437.862 339.184C437.862 341.104 437.406 342.592 436.494 343.648C434.43 346.192 432.198 348.28 429.798 349.912C427.446 351.544 424.758 352.36 421.734 352.36C419.43 352.36 417.726 351.472 416.622 349.696C415.566 347.92 415.038 345.424 415.038 342.208C414.222 345.472 412.998 347.992 411.366 349.768C409.734 351.496 407.982 352.36 406.11 352.36ZM445.415 353.944C442.919 353.944 440.999 353.368 439.655 352.216C438.359 351.064 437.711 349.768 437.711 348.328C437.711 347.08 438.167 346 439.079 345.088C439.991 344.176 441.335 343.72 443.111 343.72C443.735 343.72 444.455 343.792 445.271 343.936C446.135 344.032 446.783 344.104 447.215 344.152C447.167 342.904 446.879 341.728 446.351 340.624C445.871 339.52 445.247 338.464 444.479 337.456C443.711 336.4 442.991 335.488 442.319 334.72C440.831 337.552 439.343 339.904 437.855 341.776C436.415 343.648 434.831 345.424 433.103 347.104C432.239 347.968 431.327 348.4 430.367 348.4C429.599 348.4 428.975 348.136 428.495 347.608C428.015 347.032 427.775 346.336 427.775 345.52C427.775 344.56 428.111 343.672 428.783 342.856L429.719 341.704C432.359 338.44 434.351 335.752 435.695 333.64C436.559 332.248 437.423 330.592 438.287 328.672C439.199 326.752 440.375 324.136 441.815 320.824C442.727 318.712 444.623 317.656 447.503 317.656C448.847 317.656 449.783 317.776 450.311 318.016C450.839 318.256 451.103 318.64 451.103 319.168C451.103 319.456 451.007 319.912 450.815 320.536C450.623 321.16 450.359 321.784 450.023 322.408C449.159 324.136 448.727 325.6 448.727 326.8C448.727 327.52 448.967 328.312 449.447 329.176C449.975 330.04 450.767 331.12 451.823 332.416C453.359 334.432 454.511 336.16 455.279 337.6C456.095 338.992 456.503 340.528 456.503 342.208C456.503 344.224 456.023 346.144 455.063 347.968C454.151 349.744 452.855 351.184 451.175 352.288C449.495 353.392 447.575 353.944 445.415 353.944ZM520.31 335.944C520.934 335.944 521.414 336.232 521.75 336.808C522.134 337.384 522.326 338.176 522.326 339.184C522.326 341.104 521.87 342.592 520.958 343.648C518.99 346.048 516.83 348.112 514.478 349.84C512.126 351.52 509.798 352.36 507.494 352.36C503.846 352.36 501.062 350.224 499.142 345.952C497.126 348.496 495.35 350.2 493.814 351.064C492.326 351.928 490.574 352.36 488.558 352.36C485.63 352.36 483.206 351.28 481.286 349.12C479.414 346.912 478.478 344.056 478.478 340.552C478.478 336.712 479.294 333.16 480.926 329.896C482.558 326.584 484.79 323.896 487.622 321.832C490.502 319.72 493.718 318.472 497.27 318.088C498.182 308.776 499.91 300.832 502.454 294.256C505.046 287.632 508.43 284.32 512.606 284.32C514.67 284.32 516.374 285.256 517.718 287.128C519.11 289 519.806 291.832 519.806 295.624C519.806 301 518.486 307.288 515.846 314.488C513.206 321.688 509.678 329.08 505.262 336.664C505.454 339.448 505.862 341.44 506.486 342.64C507.158 343.84 507.998 344.44 509.006 344.44C510.302 344.44 511.622 343.864 512.966 342.712C514.31 341.56 516.11 339.64 518.366 336.952C518.942 336.28 519.59 335.944 520.31 335.944ZM511.814 291.376C510.902 291.376 509.99 293.008 509.078 296.272C508.166 299.488 507.374 303.712 506.702 308.944C506.078 314.176 505.622 319.648 505.334 325.36C510.71 313.648 513.398 304.24 513.398 297.136C513.398 295.312 513.23 293.896 512.894 292.888C512.606 291.88 512.246 291.376 511.814 291.376ZM491.078 345.088C491.99 345.088 492.902 344.728 493.814 344.008C494.726 343.24 495.878 341.848 497.27 339.832C496.79 337.24 496.55 334.336 496.55 331.12C496.55 329.968 496.598 328.096 496.694 325.504C494.054 326.32 491.846 328.096 490.07 330.832C488.342 333.52 487.478 336.52 487.478 339.832C487.478 343.336 488.678 345.088 491.078 345.088ZM548.581 335.944C549.205 335.944 549.685 336.232 550.021 336.808C550.405 337.384 550.597 338.176 550.597 339.184C550.597 341.104 550.141 342.592 549.229 343.648C547.453 345.808 544.933 347.8 541.669 349.624C538.453 351.448 534.997 352.36 531.301 352.36C526.261 352.36 522.349 350.992 519.565 348.256C516.781 345.52 515.389 341.776 515.389 337.024C515.389 333.712 516.085 330.64 517.477 327.808C518.869 324.928 520.789 322.648 523.237 320.968C525.733 319.288 528.541 318.448 531.661 318.448C534.445 318.448 536.677 319.288 538.357 320.968C540.037 322.6 540.877 324.832 540.877 327.664C540.877 330.976 539.677 333.832 537.277 336.232C534.925 338.584 530.917 340.456 525.253 341.848C526.453 344.056 528.733 345.16 532.093 345.16C534.253 345.16 536.701 344.416 539.437 342.928C542.221 341.392 544.621 339.4 546.637 336.952C547.213 336.28 547.861 335.944 548.581 335.944ZM530.437 325.504C528.661 325.504 527.149 326.536 525.901 328.6C524.701 330.664 524.101 333.16 524.101 336.088V336.232C526.933 335.56 529.165 334.552 530.797 333.208C532.429 331.864 533.245 330.304 533.245 328.528C533.245 327.616 532.981 326.896 532.453 326.368C531.973 325.792 531.301 325.504 530.437 325.504ZM554.166 313.696C552.15 313.696 550.638 313.24 549.63 312.328C548.622 311.368 548.118 310.048 548.118 308.368C548.118 306.688 548.766 305.296 550.062 304.192C551.406 303.04 553.062 302.464 555.03 302.464C556.806 302.464 558.246 302.896 559.35 303.76C560.454 304.624 561.006 305.848 561.006 307.432C561.006 309.352 560.382 310.888 559.134 312.04C557.886 313.144 556.23 313.696 554.166 313.696ZM553.59 352.36C550.47 352.36 548.19 351.256 546.75 349.048C545.358 346.84 544.662 343.912 544.662 340.264C544.662 338.104 544.926 335.344 545.454 331.984C546.03 328.576 546.75 325.408 547.614 322.48C548.046 320.944 548.622 319.888 549.342 319.312C550.062 318.736 551.214 318.448 552.798 318.448C555.246 318.448 556.47 319.264 556.47 320.896C556.47 322.096 556.014 324.88 555.102 329.248C553.95 334.528 553.374 338.104 553.374 339.976C553.374 341.416 553.566 342.52 553.95 343.288C554.334 344.056 554.982 344.44 555.894 344.44C556.758 344.44 557.838 343.84 559.134 342.64C560.43 341.44 562.158 339.544 564.318 336.952C564.894 336.28 565.542 335.944 566.262 335.944C566.886 335.944 567.366 336.232 567.702 336.808C568.086 337.384 568.278 338.176 568.278 339.184C568.278 341.104 567.822 342.592 566.91 343.648C562.158 349.456 557.718 352.36 553.59 352.36ZM567.565 352.36C565.741 352.36 564.445 351.4 563.677 349.48C562.957 347.56 562.597 344.488 562.597 340.264C562.597 334.024 563.485 328.096 565.261 322.48C565.693 321.088 566.389 320.08 567.349 319.456C568.357 318.784 569.749 318.448 571.525 318.448C572.485 318.448 573.157 318.568 573.541 318.808C573.925 319.048 574.117 319.504 574.117 320.176C574.117 320.944 573.757 322.672 573.037 325.36C572.557 327.28 572.173 328.96 571.885 330.4C571.597 331.84 571.357 333.616 571.165 335.728C572.749 331.6 574.525 328.24 576.493 325.648C578.461 323.056 580.381 321.208 582.253 320.104C584.173 319 585.925 318.448 587.509 318.448C590.629 318.448 592.189 320.008 592.189 323.128C592.189 325 591.661 328.384 590.605 333.28C589.693 337.456 589.237 340.216 589.237 341.56C589.237 343.48 589.933 344.44 591.325 344.44C592.285 344.44 593.413 343.864 594.709 342.712C596.053 341.512 597.829 339.592 600.037 336.952C600.613 336.28 601.261 335.944 601.981 335.944C602.605 335.944 603.085 336.232 603.421 336.808C603.805 337.384 603.997 338.176 603.997 339.184C603.997 341.104 603.541 342.592 602.629 343.648C600.565 346.192 598.333 348.28 595.933 349.912C593.581 351.544 590.893 352.36 587.869 352.36C585.421 352.36 583.573 351.664 582.325 350.272C581.077 348.832 580.453 346.768 580.453 344.08C580.453 342.736 580.789 340.336 581.461 336.88C582.085 333.856 582.397 331.768 582.397 330.616C582.397 329.848 582.133 329.464 581.605 329.464C580.981 329.464 580.093 330.28 578.941 331.912C577.837 333.496 576.685 335.608 575.485 338.248C574.333 340.888 573.397 343.672 572.677 346.6C572.149 348.856 571.525 350.392 570.805 351.208C570.133 351.976 569.053 352.36 567.565 352.36ZM630.284 335.944C630.908 335.944 631.388 336.232 631.724 336.808C632.108 337.384 632.3 338.176 632.3 339.184C632.3 341.104 631.844 342.592 630.932 343.648C629.156 345.808 626.636 347.8 623.372 349.624C620.156 351.448 616.7 352.36 613.004 352.36C607.964 352.36 604.052 350.992 601.268 348.256C598.484 345.52 597.092 341.776 597.092 337.024C597.092 333.712 597.788 330.64 599.18 327.808C600.572 324.928 602.492 322.648 604.94 320.968C607.436 319.288 610.244 318.448 613.364 318.448C616.148 318.448 618.38 319.288 620.06 320.968C621.74 322.6 622.58 324.832 622.58 327.664C622.58 330.976 621.38 333.832 618.98 336.232C616.628 338.584 612.62 340.456 606.956 341.848C608.156 344.056 610.436 345.16 613.796 345.16C615.956 345.16 618.404 344.416 621.14 342.928C623.924 341.392 626.324 339.4 628.34 336.952C628.916 336.28 629.564 335.944 630.284 335.944ZM612.14 325.504C610.364 325.504 608.852 326.536 607.604 328.6C606.404 330.664 605.804 333.16 605.804 336.088V336.232C608.636 335.56 610.868 334.552 612.5 333.208C614.132 331.864 614.948 330.304 614.948 328.528C614.948 327.616 614.684 326.896 614.156 326.368C613.676 325.792 613.004 325.504 612.14 325.504ZM631.55 352.36C629.726 352.36 628.43 351.4 627.662 349.48C626.942 347.56 626.582 344.488 626.582 340.264C626.582 334.024 627.47 328.096 629.246 322.48C629.678 321.088 630.374 320.08 631.334 319.456C632.342 318.784 633.734 318.448 635.51 318.448C636.47 318.448 637.142 318.568 637.526 318.808C637.91 319.048 638.102 319.504 638.102 320.176C638.102 320.944 637.742 322.672 637.022 325.36C636.542 327.28 636.158 328.96 635.87 330.4C635.582 331.792 635.342 333.544 635.15 335.656C636.446 331.912 637.982 328.744 639.758 326.152C641.582 323.56 643.43 321.64 645.302 320.392C647.222 319.096 649.022 318.448 650.702 318.448C652.382 318.448 653.558 318.832 654.23 319.6C654.95 320.368 655.31 321.544 655.31 323.128C655.31 324.664 654.854 327.448 653.942 331.48C653.558 333.208 653.294 334.504 653.15 335.368C654.734 331.336 656.486 328.048 658.406 325.504C660.374 322.96 662.294 321.16 664.166 320.104C666.038 319 667.766 318.448 669.35 318.448C670.886 318.448 672.038 318.856 672.806 319.672C673.622 320.44 674.03 321.592 674.03 323.128C674.03 324.376 673.766 326.728 673.238 330.184C672.758 333.112 672.374 335.896 672.086 338.536C671.798 341.128 671.654 344.032 671.654 347.248C671.654 349.072 671.27 350.392 670.502 351.208C669.782 351.976 668.582 352.36 666.902 352.36C665.318 352.36 664.166 351.952 663.446 351.136C662.726 350.32 662.366 349.096 662.366 347.464C662.366 345.544 662.702 342.376 663.374 337.96C663.95 334.12 664.238 331.672 664.238 330.616C664.238 329.848 663.974 329.464 663.446 329.464C662.822 329.464 661.934 330.28 660.782 331.912C659.63 333.496 658.478 335.608 657.326 338.248C656.174 340.888 655.238 343.672 654.518 346.6C653.99 348.904 653.366 350.44 652.646 351.208C651.974 351.976 650.87 352.36 649.334 352.36C647.75 352.36 646.55 351.616 645.734 350.128C644.966 348.592 644.582 346.744 644.582 344.584C644.582 342.76 644.822 340.12 645.302 336.664C645.686 333.592 645.878 331.576 645.878 330.616C645.878 329.848 645.614 329.464 645.086 329.464C644.366 329.464 643.454 330.328 642.35 332.056C641.246 333.784 640.166 335.992 639.11 338.68C638.102 341.368 637.286 344.008 636.662 346.6C636.134 348.856 635.51 350.392 634.79 351.208C634.118 351.976 633.038 352.36 631.55 352.36Z" fill="#2D3748"/>
<path d="M380.665 446.592C381.497 446.592 382.137 446.976 382.585 447.744C383.097 448.512 383.353 449.568 383.353 450.912C383.353 453.408 382.745 455.392 381.529 456.864C378.457 460.576 375.353 463.456 372.217 465.504C369.081 467.488 365.369 468.48 361.081 468.48C356.921 468.48 353.369 467.36 350.425 465.12C347.545 462.88 344.793 459.04 342.169 453.6C340.057 449.248 338.393 446.048 337.177 444C335.961 441.888 334.745 440.384 333.529 439.488C332.377 438.592 330.937 438.048 329.209 437.856C328.953 439.2 328.217 443.424 327.001 450.528C326.489 453.728 326.169 455.68 326.041 456.384C325.401 460.288 324.121 463.296 322.201 465.408C320.281 467.456 317.369 468.48 313.465 468.48C309.177 468.48 305.369 467.232 302.041 464.736C298.777 462.176 296.249 458.656 294.457 454.176C292.665 449.632 291.769 444.48 291.769 438.72C291.769 427.968 293.625 418.688 297.337 410.88C301.113 403.072 306.361 397.12 313.081 393.024C319.865 388.864 327.673 386.784 336.505 386.784C342.649 386.784 347.801 387.712 351.961 389.568C356.121 391.424 359.193 393.984 361.177 397.248C363.225 400.512 364.249 404.192 364.249 408.288C364.249 411.872 363.385 415.392 361.657 418.848C359.993 422.24 357.465 425.248 354.073 427.872C350.681 430.496 346.553 432.448 341.689 433.728C344.761 434.56 347.129 435.904 348.793 437.76C350.457 439.616 352.121 442.336 353.785 445.92C355.577 449.76 357.337 452.576 359.065 454.368C360.857 456.16 362.905 457.056 365.209 457.056C367.257 457.056 369.209 456.384 371.065 455.04C372.921 453.632 375.257 451.264 378.073 447.936C378.841 447.04 379.705 446.592 380.665 446.592ZM315.961 437.76C313.785 437.76 312.281 437.248 311.449 436.224C310.681 435.2 310.297 434.048 310.297 432.768C310.297 431.232 310.777 430.016 311.737 429.12C312.761 428.224 313.913 427.776 315.193 427.776H317.593C318.617 421.504 319.577 416.096 320.473 411.552C321.305 407.392 323.993 405.312 328.537 405.312C332.185 405.312 334.009 406.944 334.009 410.208C334.009 410.912 333.977 411.456 333.913 411.84L331.033 427.776C334.489 427.584 337.625 426.752 340.441 425.28C343.321 423.808 345.593 421.76 347.257 419.136C348.985 416.512 349.849 413.536 349.849 410.208C349.849 406.176 348.473 403.008 345.721 400.704C342.969 398.4 338.937 397.248 333.625 397.248C327.353 397.248 321.849 398.816 317.113 401.952C312.441 405.024 308.793 409.632 306.169 415.776C303.545 421.856 302.233 429.28 302.233 438.048C302.233 442.144 302.649 445.664 303.481 448.608C304.313 451.552 305.337 453.76 306.553 455.232C307.769 456.704 308.921 457.44 310.009 457.44C310.841 457.44 311.513 457.024 312.025 456.192C312.601 455.36 313.049 454.016 313.369 452.16L315.961 437.76ZM416.507 446.592C417.339 446.592 417.979 446.976 418.427 447.744C418.939 448.512 419.195 449.568 419.195 450.912C419.195 453.472 418.587 455.456 417.371 456.864C415.003 459.744 411.643 462.4 407.291 464.832C403.003 467.264 398.395 468.48 393.467 468.48C386.747 468.48 381.531 466.656 377.819 463.008C374.107 459.36 372.251 454.368 372.251 448.032C372.251 443.616 373.179 439.52 375.035 435.744C376.891 431.904 379.451 428.864 382.715 426.624C386.043 424.384 389.787 423.264 393.947 423.264C397.659 423.264 400.635 424.384 402.875 426.624C405.115 428.8 406.235 431.776 406.235 435.552C406.235 439.968 404.635 443.776 401.435 446.976C398.299 450.112 392.955 452.608 385.403 454.464C387.003 457.408 390.043 458.88 394.523 458.88C397.403 458.88 400.667 457.888 404.315 455.904C408.027 453.856 411.227 451.2 413.915 447.936C414.683 447.04 415.547 446.592 416.507 446.592ZM392.315 432.672C389.947 432.672 387.931 434.048 386.267 436.8C384.667 439.552 383.867 442.88 383.867 446.784V446.976C387.643 446.08 390.619 444.736 392.795 442.944C394.971 441.152 396.059 439.072 396.059 436.704C396.059 435.488 395.707 434.528 395.003 433.824C394.363 433.056 393.467 432.672 392.315 432.672ZM429.235 470.592C425.907 470.592 423.347 469.824 421.555 468.288C419.827 466.752 418.963 465.024 418.963 463.104C418.963 461.44 419.571 460 420.787 458.784C422.003 457.568 423.795 456.96 426.163 456.96C426.995 456.96 427.955 457.056 429.043 457.248C430.195 457.376 431.059 457.472 431.635 457.536C431.571 455.872 431.187 454.304 430.483 452.832C429.843 451.36 429.011 449.952 427.987 448.608C426.963 447.2 426.003 445.984 425.107 444.96C423.123 448.736 421.139 451.872 419.155 454.368C417.235 456.864 415.123 459.232 412.819 461.472C411.667 462.624 410.451 463.2 409.171 463.2C408.147 463.2 407.315 462.848 406.675 462.144C406.035 461.376 405.715 460.448 405.715 459.36C405.715 458.08 406.163 456.896 407.059 455.808L408.307 454.272C411.827 449.92 414.483 446.336 416.275 443.52C417.363 441.664 418.643 439.2 420.115 436.128C421.587 432.992 423.027 429.76 424.435 426.432C425.651 423.616 428.179 422.208 432.019 422.208C433.811 422.208 435.059 422.368 435.763 422.688C436.467 423.008 436.819 423.52 436.819 424.224C436.819 424.608 436.691 425.216 436.435 426.048C436.179 426.88 435.827 427.712 435.379 428.544C434.227 430.848 433.651 432.8 433.651 434.4C433.651 435.36 433.971 436.416 434.611 437.568C435.315 438.72 436.371 440.16 437.779 441.888C439.827 444.576 441.363 446.88 442.387 448.8C443.475 450.656 444.019 452.704 444.019 454.944C444.019 455.584 443.955 456.48 443.827 457.632C446.963 456.416 450.643 453.184 454.867 447.936C455.635 447.04 456.499 446.592 457.459 446.592C458.291 446.592 458.931 446.976 459.379 447.744C459.891 448.512 460.147 449.568 460.147 450.912C460.147 453.344 459.539 455.328 458.323 456.864C455.123 460.832 452.051 463.552 449.107 465.024C446.227 466.432 442.643 467.2 438.355 467.328C435.795 469.504 432.755 470.592 429.235 470.592ZM495.163 446.592C495.995 446.592 496.635 446.976 497.083 447.744C497.595 448.512 497.851 449.568 497.851 450.912C497.851 453.472 497.243 455.456 496.027 456.864C493.275 460.256 490.267 463.04 487.003 465.216C483.739 467.392 479.995 468.48 475.771 468.48C462.715 468.48 456.187 459.296 456.187 440.928C456.187 438.112 456.283 435.264 456.475 432.384H452.731C450.811 432.384 449.499 432.032 448.795 431.328C448.155 430.624 447.835 429.504 447.835 427.968C447.835 424.384 449.275 422.592 452.155 422.592H457.627C458.715 415.552 460.379 409.12 462.619 403.296C464.859 397.472 467.547 392.832 470.683 389.376C473.883 385.92 477.307 384.192 480.955 384.192C483.643 384.192 485.755 385.376 487.291 387.744C488.827 390.112 489.595 393.088 489.595 396.672C489.595 406.592 485.435 415.232 477.115 422.592H487.867C488.891 422.592 489.627 422.816 490.075 423.264C490.523 423.712 490.747 424.544 490.747 425.76C490.747 430.176 487.131 432.384 479.899 432.384H468.187C468.059 435.584 467.995 438.08 467.995 439.872C467.995 446.528 468.763 451.2 470.299 453.888C471.899 456.576 474.395 457.92 477.787 457.92C480.539 457.92 482.971 457.088 485.083 455.424C487.195 453.76 489.691 451.264 492.571 447.936C493.339 447.04 494.203 446.592 495.163 446.592ZM478.363 393.408C477.403 393.408 476.315 394.624 475.099 397.056C473.947 399.424 472.827 402.752 471.739 407.04C470.715 411.264 469.851 415.968 469.147 421.152C472.923 417.888 475.739 414.24 477.595 410.208C479.515 406.112 480.475 402.4 480.475 399.072C480.475 395.296 479.771 393.408 478.363 393.408ZM501.843 468.48C497.875 468.48 494.707 467.04 492.339 464.16C489.971 461.28 488.787 457.504 488.787 452.832C488.787 447.712 489.971 442.88 492.339 438.336C494.707 433.728 497.843 430.048 501.747 427.296C505.715 424.48 509.907 423.072 514.323 423.072C515.731 423.072 516.659 423.36 517.107 423.936C517.619 424.448 518.035 425.408 518.355 426.816C519.699 426.56 521.107 426.432 522.579 426.432C525.715 426.432 527.283 427.552 527.283 429.792C527.283 431.136 526.803 434.336 525.843 439.392C524.371 446.752 523.635 451.872 523.635 454.752C523.635 455.712 523.859 456.48 524.307 457.056C524.819 457.632 525.459 457.92 526.227 457.92C527.443 457.92 528.915 457.152 530.643 455.616C532.371 454.016 534.707 451.456 537.651 447.936C538.419 447.04 539.283 446.592 540.243 446.592C541.075 446.592 541.715 446.976 542.163 447.744C542.675 448.512 542.931 449.568 542.931 450.912C542.931 453.472 542.323 455.456 541.107 456.864C538.483 460.128 535.699 462.88 532.755 465.12C529.811 467.36 526.963 468.48 524.211 468.48C522.099 468.48 520.147 467.776 518.355 466.368C516.627 464.896 515.315 462.912 514.419 460.416C511.091 465.792 506.899 468.48 501.843 468.48ZM505.299 458.784C506.707 458.784 508.051 457.952 509.331 456.288C510.611 454.624 511.539 452.416 512.115 449.664L515.667 432C512.979 432.064 510.483 433.088 508.179 435.072C505.939 436.992 504.147 439.552 502.803 442.752C501.459 445.952 500.787 449.344 500.787 452.928C500.787 454.912 501.171 456.384 501.939 457.344C502.771 458.304 503.891 458.784 505.299 458.784ZM544.921 468.48C542.041 468.48 539.673 467.168 537.817 464.544C536.025 461.856 535.129 458.528 535.129 454.56C535.129 449.76 535.449 445.376 536.089 441.408C536.729 437.376 537.785 433.12 539.257 428.64C539.897 426.72 540.793 425.344 541.945 424.512C543.097 423.68 544.921 423.264 547.417 423.264C548.825 423.264 549.785 423.488 550.297 423.936C550.873 424.384 551.161 425.056 551.161 425.952C551.161 426.464 550.809 428.192 550.105 431.136C549.465 433.504 548.953 435.648 548.569 437.568C547.289 444.288 546.649 448.768 546.649 451.008C546.649 452.352 546.809 453.312 547.129 453.888C547.449 454.4 547.961 454.656 548.665 454.656C549.625 454.656 550.809 453.696 552.217 451.776C553.689 449.856 555.225 446.944 556.825 443.04C558.489 439.136 560.089 434.336 561.625 428.64C562.137 426.72 562.905 425.344 563.929 424.512C565.017 423.68 566.617 423.264 568.729 423.264C570.201 423.264 571.225 423.456 571.801 423.84C572.377 424.16 572.665 424.8 572.665 425.76C572.665 427.36 571.865 431.744 570.265 438.912C568.473 447.104 567.577 452.16 567.577 454.08C567.577 455.296 567.833 456.256 568.345 456.96C568.857 457.6 569.529 457.92 570.361 457.92C571.641 457.92 573.145 457.152 574.873 455.616C576.665 454.016 579.033 451.456 581.977 447.936C582.745 447.04 583.609 446.592 584.569 446.592C585.401 446.592 586.041 446.976 586.489 447.744C587.001 448.512 587.257 449.568 587.257 450.912C587.257 453.472 586.649 455.456 585.433 456.864C582.681 460.256 579.705 463.04 576.505 465.216C573.369 467.392 569.785 468.48 565.753 468.48C562.681 468.48 560.409 467.296 558.937 464.928C557.529 462.56 556.825 459.232 556.825 454.944C555.737 459.296 554.105 462.656 551.929 465.024C549.753 467.328 547.417 468.48 544.921 468.48ZM586.288 468.48C583.856 468.48 582.128 467.2 581.104 464.64C580.144 462.08 579.664 457.984 579.664 452.352C579.664 444.032 580.848 436.128 583.216 428.64C583.792 426.784 584.72 425.44 586 424.608C587.344 423.712 589.2 423.264 591.568 423.264C592.848 423.264 593.744 423.424 594.256 423.744C594.768 424.064 595.024 424.672 595.024 425.568C595.024 426.592 594.544 428.896 593.584 432.48C592.944 435.04 592.432 437.28 592.048 439.2C591.664 441.12 591.344 443.488 591.088 446.304C593.2 440.8 595.568 436.32 598.192 432.864C600.816 429.408 603.376 426.944 605.872 425.472C608.432 424 610.768 423.264 612.88 423.264C617.04 423.264 619.12 425.344 619.12 429.504C619.12 430.336 618.832 432.352 618.256 435.552C617.744 438.112 617.488 439.712 617.488 440.352C617.488 442.592 618.288 443.712 619.888 443.712C621.68 443.712 623.984 442.304 626.8 439.488C627.632 438.656 628.496 438.24 629.392 438.24C630.224 438.24 630.864 438.624 631.312 439.392C631.824 440.096 632.08 441.056 632.08 442.272C632.08 444.64 631.44 446.496 630.16 447.84C628.368 449.696 626.256 451.296 623.824 452.64C621.456 453.92 618.928 454.56 616.24 454.56C612.848 454.56 610.256 453.696 608.464 451.968C606.736 450.24 605.872 447.904 605.872 444.96C605.872 444 605.968 443.04 606.16 442.08C606.288 440.8 606.352 439.936 606.352 439.488C606.352 438.464 606 437.952 605.296 437.952C604.336 437.952 603.056 439.04 601.456 441.216C599.92 443.328 598.384 446.144 596.848 449.664C595.312 453.184 594.064 456.896 593.104 460.8C592.4 463.808 591.568 465.856 590.608 466.944C589.712 467.968 588.272 468.48 586.288 468.48ZM634.968 468.48C631 468.48 627.832 467.04 625.464 464.16C623.096 461.28 621.912 457.504 621.912 452.832C621.912 447.712 623.096 442.88 625.464 438.336C627.832 433.728 630.968 430.048 634.872 427.296C638.84 424.48 643.032 423.072 647.448 423.072C648.856 423.072 649.784 423.36 650.232 423.936C650.744 424.448 651.16 425.408 651.48 426.816C652.824 426.56 654.232 426.432 655.704 426.432C658.84 426.432 660.408 427.552 660.408 429.792C660.408 431.136 659.928 434.336 658.968 439.392C657.496 446.752 656.76 451.872 656.76 454.752C656.76 455.712 656.984 456.48 657.432 457.056C657.944 457.632 658.584 457.92 659.352 457.92C660.568 457.92 662.04 457.152 663.768 455.616C665.496 454.016 667.832 451.456 670.776 447.936C671.544 447.04 672.408 446.592 673.368 446.592C674.2 446.592 674.84 446.976 675.288 447.744C675.8 448.512 676.056 449.568 676.056 450.912C676.056 453.472 675.448 455.456 674.232 456.864C671.608 460.128 668.824 462.88 665.88 465.12C662.936 467.36 660.088 468.48 657.336 468.48C655.224 468.48 653.272 467.776 651.48 466.368C649.752 464.896 648.44 462.912 647.544 460.416C644.216 465.792 640.024 468.48 634.968 468.48ZM638.424 458.784C639.832 458.784 641.176 457.952 642.456 456.288C643.736 454.624 644.664 452.416 645.24 449.664L648.792 432C646.104 432.064 643.608 433.088 641.304 435.072C639.064 436.992 637.272 439.552 635.928 442.752C634.584 445.952 633.912 449.344 633.912 452.928C633.912 454.912 634.296 456.384 635.064 457.344C635.896 458.304 637.016 458.784 638.424 458.784ZM675.07 468.48C672.638 468.48 670.91 467.2 669.886 464.64C668.926 462.08 668.446 457.984 668.446 452.352C668.446 444.032 669.63 436.128 671.998 428.64C672.574 426.784 673.502 425.44 674.782 424.608C676.126 423.712 677.982 423.264 680.35 423.264C681.63 423.264 682.526 423.424 683.038 423.744C683.55 424.064 683.806 424.672 683.806 425.568C683.806 426.592 683.326 428.896 682.366 432.48C681.726 435.04 681.214 437.28 680.83 439.2C680.446 441.12 680.126 443.488 679.87 446.304C681.982 440.8 684.35 436.32 686.974 432.864C689.598 429.408 692.158 426.944 694.654 425.472C697.214 424 699.55 423.264 701.662 423.264C705.822 423.264 707.902 425.344 707.902 429.504C707.902 432 707.198 436.512 705.79 443.04C704.574 448.608 703.966 452.288 703.966 454.08C703.966 456.64 704.894 457.92 706.75 457.92C708.03 457.92 709.534 457.152 711.262 455.616C713.054 454.016 715.422 451.456 718.366 447.936C719.134 447.04 719.998 446.592 720.958 446.592C721.79 446.592 722.43 446.976 722.878 447.744C723.39 448.512 723.646 449.568 723.646 450.912C723.646 453.472 723.038 455.456 721.822 456.864C719.07 460.256 716.094 463.04 712.894 465.216C709.758 467.392 706.174 468.48 702.142 468.48C698.878 468.48 696.414 467.552 694.75 465.696C693.086 463.776 692.254 461.024 692.254 457.44C692.254 455.648 692.702 452.448 693.598 447.84C694.43 443.808 694.846 441.024 694.846 439.488C694.846 438.464 694.494 437.952 693.79 437.952C692.958 437.952 691.774 439.04 690.238 441.216C688.766 443.328 687.23 446.144 685.63 449.664C684.094 453.184 682.846 456.896 681.886 460.8C681.182 463.808 680.35 465.856 679.39 466.944C678.494 467.968 677.054 468.48 675.07 468.48ZM731.719 432.384C731.591 435.584 731.527 438.08 731.527 439.872C731.527 444.48 731.751 448.096 732.199 450.72C732.711 453.28 733.511 455.136 734.599 456.288C735.751 457.376 737.319 457.92 739.303 457.92C740.327 457.92 741.543 457.6 742.951 456.96C744.359 456.32 745.639 455.488 746.791 454.464C747.495 453.824 748.199 453.504 748.903 453.504C749.671 453.504 750.279 453.952 750.727 454.848C751.239 455.68 751.495 456.704 751.495 457.92C751.495 459.136 751.239 460.32 750.727 461.472C750.279 462.624 749.575 463.584 748.615 464.352C745.287 467.104 741.511 468.48 737.287 468.48C731.207 468.48 726.759 465.952 723.943 460.896C721.127 455.776 719.719 449.12 719.719 440.928C719.719 438.112 719.815 435.264 720.007 432.384H716.263C714.343 432.384 713.031 432.032 712.327 431.328C711.687 430.624 711.367 429.504 711.367 427.968C711.367 424.384 712.807 422.592 715.687 422.592H721.159C722.247 415.552 723.911 409.12 726.151 403.296C728.391 397.472 731.079 392.832 734.215 389.376C737.415 385.92 740.839 384.192 744.487 384.192C747.175 384.192 749.287 385.376 750.823 387.744C752.359 390.112 753.127 393.088 753.127 396.672C753.127 406.592 748.967 415.232 740.647 422.592H751.399C752.423 422.592 753.159 422.816 753.607 423.264C754.055 423.712 754.279 424.544 754.279 425.76C754.279 430.176 750.663 432.384 743.431 432.384H731.719ZM741.895 393.408C740.935 393.408 739.847 394.624 738.631 397.056C737.479 399.424 736.359 402.752 735.271 407.04C734.247 411.264 733.383 415.968 732.679 421.152C736.455 417.888 739.271 414.24 741.127 410.208C743.047 406.112 744.007 402.4 744.007 399.072C744.007 395.296 743.303 393.408 741.895 393.408Z" fill="#2D3748"/>
</g>
<path d="M121.427 312.579C121.427 345.764 94.245 372.666 60.7137 372.666C27.1825 372.666 0 345.764 0 312.579C0 279.394 27.1825 252.493 60.7137 252.493C94.245 252.493 121.427 279.394 121.427 312.579Z" fill="#667EEA" fill-opacity="0.95"/>
<g filter="url(#filter1_d)">
<rect x="69.148" y="290.189" width="9.81819" height="63.2728" rx="4.90909" transform="rotate(38 69.148 290.189)" fill="#00EEE0"/>
</g>
<g filter="url(#filter2_d)">
<path d="M76.7511 282.924C79.5269 281.917 82.3996 284.162 82.0939 287.099L80.5548 301.886C80.2294 305.013 76.5907 306.559 74.1137 304.624L61.6769 294.907C59.1998 292.972 59.8203 289.067 62.7752 287.995L76.7511 282.924Z" fill="#00EEE0"/>
</g>
<rect x="900.489" y="404" width="121" height="140" rx="21" fill="#6E85EB" fill-opacity="0.95"/>
<g filter="url(#filter3_d)">
<rect x="924.489" y="430" width="74" height="4" rx="2" fill="#00EEE0"/>
<rect x="924.489" y="448.4" width="74" height="4" rx="2" fill="#00EEE0"/>
<rect x="924.489" y="466.8" width="74" height="4" rx="2" fill="#00EEE0"/>
<rect x="924.489" y="485.2" width="74" height="4" rx="2" fill="#00EEE0"/>
<rect x="924.489" y="518" width="88" height="4.06593" rx="2.03297" transform="rotate(-90 924.489 518)" fill="#00EEE0"/>
</g>
<rect x="798.489" width="42" height="114" rx="6" fill="#37B2AC"/>
<rect x="850.489" y="32" width="45" height="82" rx="6" fill="#37B2AC"/>
<rect x="905.489" y="22" width="29" height="92" rx="6" fill="#37B2AC"/>
<circle cx="819.489" cy="22" r="10" fill="white"/>
<circle cx="873.489" cy="68" r="10" fill="white"/>
<circle cx="920.489" cy="57" r="10" fill="white"/>
<rect x="816.489" y="21.9958" width="4" height="75.4855" transform="rotate(-48.5 816.489 21.9958)" fill="white"/>
<rect x="876.32" y="69.5802" width="4" height="51.1956" transform="rotate(-105.5 876.32 69.5802)" fill="white"/>
<defs>
<filter id="filter0_d" x="200.393" y="131" width="639.448" height="387" filterUnits="userSpaceOnUse" color-interpolation-filters="sRGB">
<feFlood flood-opacity="0" result="BackgroundImageFix"/>
<feColorMatrix in="SourceAlpha" type="matrix" values="0 0 0 0 0 0 0 0 0 0 0 0 0 0 0 0 0 0 127 0"/>
<feOffset dy="2"/>
<feGaussianBlur stdDeviation="2"/>
<feColorMatrix type="matrix" values="0 0 0 0 0 0 0 0 0 0 0 0 0 0 0 0 0 0 0.25 0"/>
<feBlend mode="normal" in2="BackgroundImageFix" result="effect1_dropShadow"/>
<feBlend mode="normal" in="SourceGraphic" in2="effect1_dropShadow" result="shape"/>
</filter>
<filter id="filter1_d" x="26.1934" y="290.189" width="54.6914" height="63.9043" filterUnits="userSpaceOnUse" color-interpolation-filters="sRGB">
<feFlood flood-opacity="0" result="BackgroundImageFix"/>
<feColorMatrix in="SourceAlpha" type="matrix" values="0 0 0 0 0 0 0 0 0 0 0 0 0 0 0 0 0 0 127 0"/>
<feOffset dy="4"/>
<feGaussianBlur stdDeviation="2"/>
<feColorMatrix type="matrix" values="0 0 0 0 0 0 0 0 0 0 0 0 0 0 0 0 0 0 0.25 0"/>
<feBlend mode="normal" in2="BackgroundImageFix" result="effect1_dropShadow"/>
<feBlend mode="normal" in="SourceGraphic" in2="effect1_dropShadow" result="shape"/>
</filter>
<filter id="filter2_d" x="54.5198" y="276.208" width="39.4338" height="38.8831" filterUnits="userSpaceOnUse" color-interpolation-filters="sRGB">
<feFlood flood-opacity="0" result="BackgroundImageFix"/>
<feColorMatrix in="SourceAlpha" type="matrix" values="0 0 0 0 0 0 0 0 0 0 0 0 0 0 0 0 0 0 127 0"/>
<feOffset dy="4"/>
<feGaussianBlur stdDeviation="2"/>
<feColorMatrix type="matrix" values="0 0 0 0 0 0 0 0 0 0 0 0 0 0 0 0 0 0 0.25 0"/>
<feBlend mode="normal" in2="BackgroundImageFix" result="effect1_dropShadow"/>
<feBlend mode="normal" in="SourceGraphic" in2="effect1_dropShadow" result="shape"/>
</filter>
<filter id="filter3_d" x="920.489" y="430" width="82" height="96" filterUnits="userSpaceOnUse" color-interpolation-filters="sRGB">
<feFlood flood-opacity="0" result="BackgroundImageFix"/>
<feColorMatrix in="SourceAlpha" type="matrix" values="0 0 0 0 0 0 0 0 0 0 0 0 0 0 0 0 0 0 127 0"/>
<feOffset dy="4"/>
<feGaussianBlur stdDeviation="2"/>
<feColorMatrix type="matrix" values="0 0 0 0 0 0 0 0 0 0 0 0 0 0 0 0 0 0 0.25 0"/>
<feBlend mode="normal" in2="BackgroundImageFix" result="effect1_dropShadow"/>
<feBlend mode="normal" in="SourceGraphic" in2="effect1_dropShadow" result="shape"/>
</filter>
</defs>
</svg>
