<svg width="641" height="379" viewBox="0 0 641 379" fill="none" xmlns="http://www.w3.org/2000/svg">
<g filter="url(#filter0_d)">
<path d="M27.272 125.48C24.904 125.48 23.208 124.968 22.184 123.944C21.16 122.856 20.648 120.84 20.648 117.896C20.648 115.912 20.84 113.384 21.224 110.312C21.672 107.176 22.376 102.888 23.336 97.448C25 87.4 26.312 78.696 27.272 71.336C27.848 66.728 28.136 62.888 28.136 59.816C28.136 56.936 27.08 55.496 24.968 55.496C23.304 55.496 21.288 56.36 18.92 58.088C16.616 59.752 14.056 62.44 11.24 66.152C10.344 67.368 9.352 67.976 8.264 67.976C7.368 67.976 6.568 67.56 5.864 66.728C5.224 65.832 4.904 64.84 4.904 63.752C4.904 62.728 5.096 61.704 5.48 60.68C5.928 59.592 6.632 58.376 7.592 57.032C10.664 52.744 14.088 49.448 17.864 47.144C21.64 44.776 25.416 43.592 29.192 43.592C32.712 43.592 35.4 44.712 37.256 46.952C39.176 49.192 40.136 52.456 40.136 56.744C40.136 58.472 39.976 60.52 39.656 62.888C39.336 65.192 39.048 67.08 38.792 68.552C38.536 70.024 38.344 71.048 38.216 71.624C41.864 61.192 45.96 53.928 50.504 49.832C55.048 45.672 60.04 43.592 65.48 43.592C69.64 43.592 72.904 45.064 75.272 48.008C77.704 50.952 78.92 55.112 78.92 60.488C78.92 62.6 78.632 65.224 78.056 68.36C81.256 59.528 85 53.192 89.288 49.352C93.576 45.512 98.504 43.592 104.072 43.592C108.552 43.592 111.976 45.032 114.344 47.912C116.776 50.792 117.992 54.824 117.992 60.008C117.992 62.824 117.576 66.248 116.744 70.28L110.888 97.736C110.248 100.936 109.928 103.688 109.928 105.992C109.928 108.68 110.536 110.696 111.752 112.04C113.032 113.384 114.792 114.056 117.032 114.056C119.144 114.056 121.192 113.352 123.176 111.944C125.224 110.536 127.624 108.2 130.376 104.936C131.144 104.04 132.008 103.592 132.968 103.592C133.8 103.592 134.44 103.976 134.888 104.744C135.4 105.512 135.656 106.568 135.656 107.912C135.656 110.408 135.048 112.392 133.832 113.864C130.504 117.896 127.208 120.84 123.944 122.696C120.68 124.552 117.256 125.48 113.672 125.48C108.232 125.48 103.976 123.88 100.904 120.68C97.832 117.416 96.296 113.064 96.296 107.624C96.296 103.848 97.064 98.376 98.6 91.208L102.44 73.64C102.568 73.064 102.792 72.04 103.112 70.568C103.432 69.096 103.688 67.72 103.88 66.44C104.072 65.096 104.168 63.784 104.168 62.504C104.168 60.264 103.72 58.6 102.824 57.512C101.992 56.36 100.776 55.784 99.176 55.784C96.168 55.784 93 57.736 89.672 61.64C86.408 65.48 83.272 71.88 80.264 80.84C77.32 89.8 74.92 101.448 73.064 115.784C72.616 119.624 71.816 122.216 70.664 123.56C69.576 124.84 67.784 125.48 65.288 125.48C63.112 125.48 61.512 124.968 60.488 123.944C59.528 122.92 59.048 121 59.048 118.184C59.048 115.56 59.4 112.136 60.104 107.912C60.808 103.624 61.704 98.6 62.792 92.84C65.736 77.352 67.208 67.368 67.208 62.888C67.208 60.456 66.728 58.664 65.768 57.512C64.872 56.36 63.496 55.784 61.64 55.784C58.504 55.784 55.272 57.576 51.944 61.16C48.616 64.68 45.352 70.984 42.152 80.072C39.016 89.096 36.392 101.32 34.28 116.744C33.832 120.008 33.16 122.28 32.264 123.56C31.432 124.84 29.768 125.48 27.272 125.48ZM139.729 125.48C135.761 125.48 132.593 124.04 130.225 121.16C127.857 118.28 126.673 114.504 126.673 109.832C126.673 104.712 127.857 99.88 130.225 95.336C132.593 90.728 135.729 87.048 139.633 84.296C143.601 81.48 147.793 80.072 152.209 80.072C153.617 80.072 154.545 80.36 154.993 80.936C155.505 81.448 155.921 82.408 156.241 83.816C157.585 83.56 158.993 83.432 160.465 83.432C163.601 83.432 165.169 84.552 165.169 86.792C165.169 88.136 164.689 91.336 163.729 96.392C162.257 103.752 161.521 108.872 161.521 111.752C161.521 112.712 161.745 113.48 162.193 114.056C162.705 114.632 163.345 114.92 164.113 114.92C165.329 114.92 166.801 114.152 168.529 112.616C170.257 111.016 172.593 108.456 175.537 104.936C176.305 104.04 177.169 103.592 178.129 103.592C178.961 103.592 179.601 103.976 180.049 104.744C180.561 105.512 180.817 106.568 180.817 107.912C180.817 110.472 180.209 112.456 178.993 113.864C176.369 117.128 173.585 119.88 170.641 122.12C167.697 124.36 164.849 125.48 162.097 125.48C159.985 125.48 158.033 124.776 156.241 123.368C154.513 121.896 153.201 119.912 152.305 117.416C148.977 122.792 144.785 125.48 139.729 125.48ZM143.185 115.784C144.593 115.784 145.937 114.952 147.217 113.288C148.497 111.624 149.425 109.416 150.001 106.664L153.553 89C150.865 89.064 148.369 90.088 146.065 92.072C143.825 93.992 142.033 96.552 140.689 99.752C139.345 102.952 138.673 106.344 138.673 109.928C138.673 111.912 139.057 113.384 139.825 114.344C140.657 115.304 141.777 115.784 143.185 115.784ZM191.35 125.48C185.078 125.48 180.182 123.72 176.662 120.2C173.206 116.616 171.478 111.912 171.478 106.088C171.478 100.904 172.502 96.36 174.55 92.456C176.598 88.552 179.254 85.544 182.518 83.432C185.782 81.32 189.206 80.264 192.79 80.264C196.31 80.264 199.03 81.32 200.95 83.432C202.934 85.48 203.926 88.136 203.926 91.4C203.926 94.088 203.318 96.36 202.102 98.216C200.95 100.072 199.414 101 197.494 101C196.278 101 195.286 100.712 194.518 100.136C193.814 99.56 193.462 98.76 193.462 97.736C193.462 97.288 193.526 96.776 193.654 96.2C193.782 95.624 193.878 95.208 193.942 94.952C194.262 93.992 194.422 93.096 194.422 92.264C194.422 91.432 194.198 90.792 193.75 90.344C193.366 89.896 192.79 89.672 192.022 89.672C190.55 89.672 189.174 90.344 187.894 91.688C186.614 92.968 185.59 94.728 184.822 96.968C184.054 99.208 183.67 101.672 183.67 104.36C183.67 111.784 186.902 115.496 193.366 115.496C195.99 115.496 198.806 114.632 201.814 112.904C204.886 111.112 207.894 108.456 210.838 104.936C211.606 104.04 212.47 103.592 213.43 103.592C214.262 103.592 214.902 103.976 215.35 104.744C215.862 105.512 216.118 106.568 216.118 107.912C216.118 110.344 215.51 112.328 214.294 113.864C211.286 117.576 207.67 120.456 203.446 122.504C199.286 124.488 195.254 125.48 191.35 125.48ZM242.342 80.264C244.39 80.264 245.926 80.808 246.95 81.896C248.038 82.92 248.582 84.456 248.582 86.504C248.582 88.168 248.23 91.304 247.526 95.912C246.886 99.816 246.374 103.528 245.99 107.048C245.606 110.504 245.414 114.376 245.414 118.664C245.414 121.096 244.902 122.856 243.878 123.944C242.918 124.968 241.318 125.48 239.078 125.48C236.966 125.48 235.43 124.936 234.47 123.848C233.51 122.76 233.03 121.128 233.03 118.952C233.03 116.392 233.478 112.168 234.374 106.28C235.142 101.16 235.526 97.896 235.526 96.488C235.526 95.464 235.174 94.952 234.47 94.952C233.638 94.952 232.454 96.04 230.918 98.216C229.382 100.328 227.846 103.144 226.31 106.664C224.774 110.184 223.526 113.896 222.566 117.8C221.862 120.808 221.03 122.856 220.07 123.944C219.174 124.968 217.734 125.48 215.75 125.48C213.766 125.48 212.294 124.776 211.334 123.368C210.438 121.896 209.83 119.656 209.51 116.648C209.19 113.64 209.03 109.224 209.03 103.4C209.03 93.544 210.022 83.272 212.006 72.584C214.054 61.896 217.03 52.936 220.934 45.704C224.902 38.408 229.638 34.76 235.142 34.76C238.086 34.76 240.454 36.04 242.246 38.6C244.102 41.096 245.03 44.36 245.03 48.392C245.03 54.856 243.142 61.576 239.366 68.552C235.59 75.464 229.446 83.56 220.934 92.84C220.742 96.168 220.646 99.592 220.646 103.112C222.758 97.672 225.094 93.256 227.654 89.864C230.278 86.408 232.838 83.944 235.334 82.472C237.894 81 240.23 80.264 242.342 80.264ZM233.126 44.264C231.974 44.264 230.694 45.928 229.286 49.256C227.878 52.52 226.502 56.968 225.158 62.6C223.878 68.168 222.822 74.248 221.99 80.84C225.958 76.168 229.222 71.08 231.782 65.576C234.406 60.072 235.718 55.08 235.718 50.6C235.718 48.552 235.494 46.984 235.046 45.896C234.598 44.808 233.958 44.264 233.126 44.264ZM335.355 103.592C336.187 103.592 336.827 103.976 337.275 104.744C337.787 105.512 338.043 106.568 338.043 107.912C338.043 110.472 337.435 112.456 336.219 113.864C333.595 117.064 330.715 119.816 327.579 122.12C324.443 124.36 321.339 125.48 318.267 125.48C313.403 125.48 309.691 122.632 307.131 116.936C304.443 120.328 302.075 122.6 300.027 123.752C298.043 124.904 295.707 125.48 293.019 125.48C289.115 125.48 285.883 124.04 283.323 121.16C280.827 118.216 279.579 114.408 279.579 109.736C279.579 104.616 280.667 99.88 282.843 95.528C285.019 91.112 287.995 87.528 291.771 84.776C295.611 81.96 299.899 80.296 304.635 79.784C305.851 67.368 308.155 56.776 311.547 48.008C315.003 39.176 319.515 34.76 325.083 34.76C327.835 34.76 330.107 36.008 331.899 38.504C333.755 41 334.683 44.776 334.683 49.832C334.683 57 332.923 65.384 329.403 74.984C325.883 84.584 321.179 94.44 315.291 104.552C315.547 108.264 316.091 110.92 316.923 112.52C317.819 114.12 318.939 114.92 320.283 114.92C322.011 114.92 323.771 114.152 325.563 112.616C327.355 111.08 329.755 108.52 332.763 104.936C333.531 104.04 334.395 103.592 335.355 103.592ZM324.027 44.168C322.811 44.168 321.595 46.344 320.379 50.696C319.163 54.984 318.107 60.616 317.211 67.592C316.379 74.568 315.771 81.864 315.387 89.48C322.555 73.864 326.139 61.32 326.139 51.848C326.139 49.416 325.915 47.528 325.467 46.184C325.083 44.84 324.603 44.168 324.027 44.168ZM296.379 115.784C297.595 115.784 298.811 115.304 300.027 114.344C301.243 113.32 302.779 111.464 304.635 108.776C303.995 105.32 303.675 101.448 303.675 97.16C303.675 95.624 303.739 93.128 303.867 89.672C300.347 90.76 297.403 93.128 295.035 96.776C292.731 100.36 291.579 104.36 291.579 108.776C291.579 113.448 293.179 115.784 296.379 115.784ZM341.104 125.48C337.136 125.48 333.968 124.04 331.6 121.16C329.232 118.28 328.048 114.504 328.048 109.832C328.048 104.712 329.232 99.88 331.6 95.336C333.968 90.728 337.104 87.048 341.008 84.296C344.976 81.48 349.168 80.072 353.584 80.072C354.992 80.072 355.92 80.36 356.368 80.936C356.88 81.448 357.296 82.408 357.616 83.816C358.96 83.56 360.368 83.432 361.84 83.432C364.976 83.432 366.544 84.552 366.544 86.792C366.544 88.136 366.064 91.336 365.104 96.392C363.632 103.752 362.896 108.872 362.896 111.752C362.896 112.712 363.12 113.48 363.568 114.056C364.08 114.632 364.72 114.92 365.488 114.92C366.704 114.92 368.176 114.152 369.904 112.616C371.632 111.016 373.968 108.456 376.912 104.936C377.68 104.04 378.544 103.592 379.504 103.592C380.336 103.592 380.976 103.976 381.424 104.744C381.936 105.512 382.192 106.568 382.192 107.912C382.192 110.472 381.584 112.456 380.368 113.864C377.744 117.128 374.96 119.88 372.016 122.12C369.072 124.36 366.224 125.48 363.472 125.48C361.36 125.48 359.408 124.776 357.616 123.368C355.888 121.896 354.576 119.912 353.68 117.416C350.352 122.792 346.16 125.48 341.104 125.48ZM344.56 115.784C345.968 115.784 347.312 114.952 348.592 113.288C349.872 111.624 350.8 109.416 351.376 106.664L354.928 89C352.24 89.064 349.744 90.088 347.44 92.072C345.2 93.992 343.408 96.552 342.064 99.752C340.72 102.952 340.048 106.344 340.048 109.928C340.048 111.912 340.432 113.384 341.2 114.344C342.032 115.304 343.152 115.784 344.56 115.784ZM392.245 127.592C388.917 127.592 386.357 126.824 384.565 125.288C382.837 123.752 381.973 122.024 381.973 120.104C381.973 118.44 382.581 117 383.797 115.784C385.013 114.568 386.805 113.96 389.173 113.96C390.005 113.96 390.965 114.056 392.053 114.248C393.205 114.376 394.069 114.472 394.645 114.536C394.581 112.872 394.197 111.304 393.493 109.832C392.853 108.36 392.021 106.952 390.997 105.608C389.973 104.2 389.013 102.984 388.117 101.96C386.133 105.736 384.149 108.872 382.165 111.368C380.245 113.864 378.133 116.232 375.829 118.472C374.677 119.624 373.461 120.2 372.181 120.2C371.157 120.2 370.325 119.848 369.685 119.144C369.045 118.376 368.725 117.448 368.725 116.36C368.725 115.08 369.173 113.896 370.069 112.808L371.317 111.272C374.837 106.92 377.493 103.336 379.285 100.52C380.437 98.664 381.589 96.456 382.741 93.896C383.957 91.336 385.525 87.848 387.445 83.432C388.661 80.616 391.189 79.208 395.029 79.208C396.821 79.208 398.069 79.368 398.773 79.688C399.477 80.008 399.829 80.52 399.829 81.224C399.829 81.608 399.701 82.216 399.445 83.048C399.189 83.88 398.837 84.712 398.389 85.544C397.237 87.848 396.661 89.8 396.661 91.4C396.661 92.36 396.981 93.416 397.621 94.568C398.325 95.72 399.381 97.16 400.789 98.888C402.837 101.576 404.373 103.88 405.397 105.8C406.485 107.656 407.029 109.704 407.029 111.944C407.029 114.632 406.389 117.192 405.109 119.624C403.893 121.992 402.165 123.912 399.925 125.384C397.685 126.856 395.125 127.592 392.245 127.592ZM488.649 95.528C489.481 95.528 490.121 95.944 490.569 96.776C491.017 97.608 491.241 98.664 491.241 99.944C491.241 101.544 491.017 102.792 490.569 103.688C490.121 104.52 489.417 105.096 488.457 105.416C484.617 106.76 480.393 107.528 475.785 107.72C474.505 113.032 472.073 117.32 468.489 120.584C464.969 123.848 461.065 125.48 456.777 125.48C450.313 125.48 445.609 123.016 442.665 118.088C439.721 113.16 438.249 106.024 438.249 96.68C438.249 88.424 439.273 79.464 441.321 69.8C443.369 60.072 446.345 51.816 450.249 45.032C454.217 38.184 458.921 34.76 464.361 34.76C467.305 34.76 469.673 36.04 471.465 38.6C473.257 41.096 474.153 44.36 474.153 48.392C474.153 53.64 473.161 58.856 471.177 64.04C469.193 69.224 465.897 74.664 461.289 80.36C465.577 80.68 469.065 82.472 471.753 85.736C474.441 88.936 476.041 92.904 476.553 97.64C479.561 97.448 483.145 96.808 487.305 95.72C487.689 95.592 488.137 95.528 488.649 95.528ZM462.153 44.264C460.873 44.264 459.465 46.184 457.929 50.024C456.457 53.8 455.081 58.952 453.801 65.48C452.521 72.008 451.561 79.144 450.921 86.888C455.145 79.144 458.505 72.328 461.001 66.44C463.561 60.488 464.841 55.208 464.841 50.6C464.841 48.552 464.585 46.984 464.073 45.896C463.625 44.808 462.985 44.264 462.153 44.264ZM457.161 115.304C459.145 115.304 460.905 114.472 462.441 112.808C463.977 111.144 465.001 108.744 465.513 105.608C463.529 104.264 461.993 102.504 460.905 100.328C459.881 98.152 459.369 95.848 459.369 93.416C459.369 92.52 459.497 91.304 459.753 89.768H459.465C456.841 89.768 454.633 91.08 452.841 93.704C451.113 96.264 450.249 99.72 450.249 104.072C450.249 107.72 450.921 110.504 452.265 112.424C453.673 114.344 455.305 115.304 457.161 115.304ZM525.768 103.592C526.6 103.592 527.24 103.976 527.688 104.744C528.2 105.512 528.456 106.568 528.456 107.912C528.456 110.472 527.848 112.456 526.632 113.864C524.264 116.744 520.904 119.4 516.552 121.832C512.264 124.264 507.656 125.48 502.728 125.48C496.008 125.48 490.792 123.656 487.08 120.008C483.368 116.36 481.512 111.368 481.512 105.032C481.512 100.616 482.44 96.52 484.296 92.744C486.152 88.904 488.712 85.864 491.976 83.624C495.304 81.384 499.048 80.264 503.208 80.264C506.92 80.264 509.896 81.384 512.136 83.624C514.376 85.8 515.496 88.776 515.496 92.552C515.496 96.968 513.896 100.776 510.696 103.976C507.56 107.112 502.216 109.608 494.664 111.464C496.264 114.408 499.304 115.88 503.784 115.88C506.664 115.88 509.928 114.888 513.576 112.904C517.288 110.856 520.488 108.2 523.176 104.936C523.944 104.04 524.808 103.592 525.768 103.592ZM501.576 89.672C499.208 89.672 497.192 91.048 495.528 93.8C493.928 96.552 493.128 99.88 493.128 103.784V103.976C496.904 103.08 499.88 101.736 502.056 99.944C504.232 98.152 505.32 96.072 505.32 93.704C505.32 92.488 504.968 91.528 504.264 90.824C503.624 90.056 502.728 89.672 501.576 89.672ZM538.495 127.592C535.167 127.592 532.607 126.824 530.815 125.288C529.087 123.752 528.223 122.024 528.223 120.104C528.223 118.44 528.831 117 530.047 115.784C531.263 114.568 533.055 113.96 535.423 113.96C536.255 113.96 537.215 114.056 538.303 114.248C539.455 114.376 540.319 114.472 540.895 114.536C540.831 112.872 540.447 111.304 539.743 109.832C539.103 108.36 538.271 106.952 537.247 105.608C536.223 104.2 535.263 102.984 534.367 101.96C532.383 105.736 530.399 108.872 528.415 111.368C526.495 113.864 524.383 116.232 522.079 118.472C520.927 119.624 519.711 120.2 518.431 120.2C517.407 120.2 516.575 119.848 515.935 119.144C515.295 118.376 514.975 117.448 514.975 116.36C514.975 115.08 515.423 113.896 516.319 112.808L517.567 111.272C521.087 106.92 523.743 103.336 525.535 100.52C526.623 98.664 527.903 96.2 529.375 93.128C530.847 89.992 532.287 86.76 533.695 83.432C534.911 80.616 537.439 79.208 541.279 79.208C543.071 79.208 544.319 79.368 545.023 79.688C545.727 80.008 546.079 80.52 546.079 81.224C546.079 81.608 545.951 82.216 545.695 83.048C545.439 83.88 545.087 84.712 544.639 85.544C543.487 87.848 542.911 89.8 542.911 91.4C542.911 92.36 543.231 93.416 543.871 94.568C544.575 95.72 545.631 97.16 547.039 98.888C549.087 101.576 550.623 103.88 551.647 105.8C552.735 107.656 553.279 109.704 553.279 111.944C553.279 112.584 553.215 113.48 553.087 114.632C556.223 113.416 559.903 110.184 564.127 104.936C564.895 104.04 565.759 103.592 566.719 103.592C567.551 103.592 568.191 103.976 568.639 104.744C569.151 105.512 569.407 106.568 569.407 107.912C569.407 110.344 568.799 112.328 567.583 113.864C564.383 117.832 561.311 120.552 558.367 122.024C555.487 123.432 551.903 124.2 547.615 124.328C545.055 126.504 542.015 127.592 538.495 127.592ZM604.424 103.592C605.256 103.592 605.896 103.976 606.344 104.744C606.856 105.512 607.112 106.568 607.112 107.912C607.112 110.472 606.504 112.456 605.288 113.864C602.536 117.256 599.528 120.04 596.264 122.216C593 124.392 589.256 125.48 585.032 125.48C571.976 125.48 565.448 116.296 565.448 97.928C565.448 95.112 565.544 92.264 565.736 89.384H561.992C560.072 89.384 558.76 89.032 558.056 88.328C557.416 87.624 557.096 86.504 557.096 84.968C557.096 81.384 558.536 79.592 561.416 79.592H566.888C567.976 72.552 569.64 66.12 571.88 60.296C574.12 54.472 576.808 49.832 579.944 46.376C583.144 42.92 586.568 41.192 590.216 41.192C592.904 41.192 595.016 42.376 596.552 44.744C598.088 47.112 598.856 50.088 598.856 53.672C598.856 63.592 594.696 72.232 586.376 79.592H597.128C598.152 79.592 598.888 79.816 599.336 80.264C599.784 80.712 600.008 81.544 600.008 82.76C600.008 87.176 596.392 89.384 589.16 89.384H577.448C577.32 92.584 577.256 95.08 577.256 96.872C577.256 103.528 578.024 108.2 579.56 110.888C581.16 113.576 583.656 114.92 587.048 114.92C589.8 114.92 592.232 114.088 594.344 112.424C596.456 110.76 598.952 108.264 601.832 104.936C602.6 104.04 603.464 103.592 604.424 103.592ZM587.624 50.408C586.664 50.408 585.576 51.624 584.36 54.056C583.208 56.424 582.088 59.752 581 64.04C579.976 68.264 579.112 72.968 578.408 78.152C582.184 74.888 585 71.24 586.856 67.208C588.776 63.112 589.736 59.4 589.736 56.072C589.736 52.296 589.032 50.408 587.624 50.408ZM633.664 106.472C634.496 106.472 635.136 106.856 635.584 107.624C636.096 108.392 636.352 109.448 636.352 110.792C636.352 113.096 635.808 115.08 634.72 116.744C632.928 119.496 630.56 121.64 627.616 123.176C624.736 124.712 621.28 125.48 617.248 125.48C611.104 125.48 606.336 123.656 602.944 120.008C599.552 116.296 597.855 111.304 597.855 105.032C597.855 100.616 598.784 96.52 600.64 92.744C602.496 88.904 605.056 85.864 608.32 83.624C611.648 81.384 615.392 80.264 619.552 80.264C623.264 80.264 626.24 81.384 628.48 83.624C630.72 85.8 631.84 88.776 631.84 92.552C631.84 96.968 630.24 100.776 627.04 103.976C623.904 107.112 618.528 109.608 610.912 111.464C612.448 114.408 615.04 115.88 618.688 115.88C621.312 115.88 623.456 115.272 625.12 114.056C626.848 112.84 628.832 110.792 631.072 107.912C631.84 106.952 632.704 106.472 633.664 106.472ZM617.92 89.672C615.552 89.672 613.536 91.048 611.872 93.8C610.272 96.552 609.472 99.88 609.472 103.784V103.976C613.248 103.08 616.224 101.736 618.4 99.944C620.576 98.152 621.664 96.072 621.664 93.704C621.664 92.488 621.312 91.528 620.608 90.824C619.968 90.056 619.072 89.672 617.92 89.672Z" fill="#2D3748"/>
<path d="M174.312 219.36C171.336 219.36 168.96 218.28 167.184 216.12C165.408 213.96 164.52 211.128 164.52 207.624C164.52 203.784 165.408 200.16 167.184 196.752C168.96 193.296 171.312 190.536 174.24 188.472C177.216 186.36 180.36 185.304 183.672 185.304C184.728 185.304 185.424 185.52 185.76 185.952C186.144 186.336 186.456 187.056 186.696 188.112C187.704 187.92 188.76 187.824 189.864 187.824C192.216 187.824 193.392 188.664 193.392 190.344C193.392 191.352 193.032 193.752 192.312 197.544C191.208 203.064 190.656 206.904 190.656 209.064C190.656 209.784 190.824 210.36 191.16 210.792C191.544 211.224 192.024 211.44 192.6 211.44C193.512 211.44 194.616 210.864 195.912 209.712C197.208 208.512 198.96 206.592 201.168 203.952C201.744 203.28 202.392 202.944 203.112 202.944C203.736 202.944 204.216 203.232 204.552 203.808C204.936 204.384 205.128 205.176 205.128 206.184C205.128 208.104 204.672 209.592 203.76 210.648C201.792 213.096 199.704 215.16 197.496 216.84C195.288 218.52 193.152 219.36 191.088 219.36C189.504 219.36 188.04 218.832 186.696 217.776C185.4 216.672 184.416 215.184 183.744 213.312C181.248 217.344 178.104 219.36 174.312 219.36ZM176.904 212.088C177.96 212.088 178.968 211.464 179.928 210.216C180.888 208.968 181.584 207.312 182.016 205.248L184.68 192C182.664 192.048 180.792 192.816 179.064 194.304C177.384 195.744 176.04 197.664 175.032 200.064C174.024 202.464 173.52 205.008 173.52 207.696C173.52 209.184 173.808 210.288 174.384 211.008C175.008 211.728 175.848 212.088 176.904 212.088ZM206.62 219.36C204.46 219.36 202.684 218.376 201.292 216.408C199.948 214.392 199.276 211.896 199.276 208.92C199.276 205.32 199.516 202.032 199.996 199.056C200.476 196.032 201.268 192.84 202.372 189.48C202.852 188.04 203.524 187.008 204.388 186.384C205.252 185.76 206.62 185.448 208.492 185.448C209.548 185.448 210.268 185.616 210.652 185.952C211.084 186.288 211.3 186.792 211.3 187.464C211.3 187.848 211.036 189.144 210.508 191.352C210.028 193.128 209.644 194.736 209.356 196.176C208.396 201.216 207.916 204.576 207.916 206.256C207.916 207.264 208.036 207.984 208.276 208.416C208.516 208.8 208.9 208.992 209.428 208.992C210.148 208.992 211.036 208.272 212.092 206.832C213.196 205.392 214.348 203.208 215.548 200.28C216.796 197.352 217.996 193.752 219.148 189.48C219.532 188.04 220.108 187.008 220.876 186.384C221.692 185.76 222.892 185.448 224.476 185.448C225.58 185.448 226.348 185.592 226.78 185.88C227.212 186.12 227.428 186.6 227.428 187.32C227.428 188.52 226.828 191.808 225.628 197.184C224.284 203.328 223.612 207.12 223.612 208.56C223.612 209.472 223.804 210.192 224.188 210.72C224.572 211.2 225.076 211.44 225.7 211.44C226.66 211.44 227.788 210.864 229.084 209.712C230.428 208.512 232.204 206.592 234.412 203.952C234.988 203.28 235.636 202.944 236.356 202.944C236.98 202.944 237.46 203.232 237.796 203.808C238.18 204.384 238.372 205.176 238.372 206.184C238.372 208.104 237.916 209.592 237.004 210.648C234.94 213.192 232.708 215.28 230.308 216.912C227.956 218.544 225.268 219.36 222.244 219.36C219.94 219.36 218.236 218.472 217.132 216.696C216.076 214.92 215.548 212.424 215.548 209.208C214.732 212.472 213.508 214.992 211.876 216.768C210.244 218.496 208.492 219.36 206.62 219.36ZM245.926 220.944C243.43 220.944 241.51 220.368 240.166 219.216C238.87 218.064 238.222 216.768 238.222 215.328C238.222 214.08 238.678 213 239.59 212.088C240.502 211.176 241.846 210.72 243.622 210.72C244.246 210.72 244.966 210.792 245.782 210.936C246.646 211.032 247.294 211.104 247.726 211.152C247.678 209.904 247.39 208.728 246.862 207.624C246.382 206.52 245.758 205.464 244.99 204.456C244.222 203.4 243.502 202.488 242.83 201.72C241.342 204.552 239.854 206.904 238.366 208.776C236.926 210.648 235.342 212.424 233.614 214.104C232.75 214.968 231.838 215.4 230.878 215.4C230.11 215.4 229.486 215.136 229.006 214.608C228.526 214.032 228.286 213.336 228.286 212.52C228.286 211.56 228.622 210.672 229.294 209.856L230.23 208.704C232.87 205.44 234.862 202.752 236.206 200.64C237.07 199.248 237.934 197.592 238.798 195.672C239.71 193.752 240.886 191.136 242.326 187.824C243.238 185.712 245.134 184.656 248.014 184.656C249.358 184.656 250.294 184.776 250.822 185.016C251.35 185.256 251.614 185.64 251.614 186.168C251.614 186.456 251.518 186.912 251.326 187.536C251.134 188.16 250.87 188.784 250.534 189.408C249.67 191.136 249.238 192.6 249.238 193.8C249.238 194.52 249.478 195.312 249.958 196.176C250.486 197.04 251.278 198.12 252.334 199.416C253.87 201.432 255.022 203.16 255.79 204.6C256.606 205.992 257.014 207.528 257.014 209.208C257.014 211.224 256.534 213.144 255.574 214.968C254.662 216.744 253.366 218.184 251.686 219.288C250.006 220.392 248.086 220.944 245.926 220.944ZM320.821 202.944C321.445 202.944 321.925 203.232 322.261 203.808C322.645 204.384 322.837 205.176 322.837 206.184C322.837 208.104 322.381 209.592 321.469 210.648C319.501 213.048 317.341 215.112 314.989 216.84C312.637 218.52 310.309 219.36 308.005 219.36C304.357 219.36 301.573 217.224 299.653 212.952C297.637 215.496 295.861 217.2 294.325 218.064C292.837 218.928 291.085 219.36 289.069 219.36C286.141 219.36 283.717 218.28 281.797 216.12C279.925 213.912 278.989 211.056 278.989 207.552C278.989 203.712 279.805 200.16 281.437 196.896C283.069 193.584 285.301 190.896 288.133 188.832C291.013 186.72 294.229 185.472 297.781 185.088C298.693 175.776 300.421 167.832 302.965 161.256C305.557 154.632 308.941 151.32 313.117 151.32C315.181 151.32 316.885 152.256 318.229 154.128C319.621 156 320.317 158.832 320.317 162.624C320.317 168 318.997 174.288 316.357 181.488C313.717 188.688 310.189 196.08 305.773 203.664C305.965 206.448 306.373 208.44 306.997 209.64C307.669 210.84 308.509 211.44 309.517 211.44C310.813 211.44 312.133 210.864 313.477 209.712C314.821 208.56 316.621 206.64 318.877 203.952C319.453 203.28 320.101 202.944 320.821 202.944ZM312.325 158.376C311.413 158.376 310.501 160.008 309.589 163.272C308.677 166.488 307.885 170.712 307.213 175.944C306.589 181.176 306.133 186.648 305.845 192.36C311.221 180.648 313.909 171.24 313.909 164.136C313.909 162.312 313.741 160.896 313.405 159.888C313.117 158.88 312.757 158.376 312.325 158.376ZM291.589 212.088C292.501 212.088 293.413 211.728 294.325 211.008C295.237 210.24 296.389 208.848 297.781 206.832C297.301 204.24 297.061 201.336 297.061 198.12C297.061 196.968 297.109 195.096 297.205 192.504C294.565 193.32 292.357 195.096 290.581 197.832C288.853 200.52 287.989 203.52 287.989 206.832C287.989 210.336 289.189 212.088 291.589 212.088ZM349.091 202.944C349.715 202.944 350.195 203.232 350.531 203.808C350.915 204.384 351.107 205.176 351.107 206.184C351.107 208.104 350.651 209.592 349.739 210.648C347.963 212.808 345.443 214.8 342.179 216.624C338.963 218.448 335.507 219.36 331.811 219.36C326.771 219.36 322.859 217.992 320.075 215.256C317.291 212.52 315.899 208.776 315.899 204.024C315.899 200.712 316.595 197.64 317.987 194.808C319.379 191.928 321.299 189.648 323.747 187.968C326.243 186.288 329.051 185.448 332.171 185.448C334.955 185.448 337.187 186.288 338.867 187.968C340.547 189.6 341.387 191.832 341.387 194.664C341.387 197.976 340.187 200.832 337.787 203.232C335.435 205.584 331.427 207.456 325.763 208.848C326.963 211.056 329.243 212.16 332.603 212.16C334.763 212.16 337.211 211.416 339.947 209.928C342.731 208.392 345.131 206.4 347.147 203.952C347.723 203.28 348.371 202.944 349.091 202.944ZM330.947 192.504C329.171 192.504 327.659 193.536 326.411 195.6C325.211 197.664 324.611 200.16 324.611 203.088V203.232C327.443 202.56 329.675 201.552 331.307 200.208C332.939 198.864 333.755 197.304 333.755 195.528C333.755 194.616 333.491 193.896 332.963 193.368C332.483 192.792 331.811 192.504 330.947 192.504ZM354.677 180.696C352.661 180.696 351.149 180.24 350.141 179.328C349.133 178.368 348.629 177.048 348.629 175.368C348.629 173.688 349.277 172.296 350.573 171.192C351.917 170.04 353.573 169.464 355.541 169.464C357.317 169.464 358.757 169.896 359.861 170.76C360.965 171.624 361.517 172.848 361.517 174.432C361.517 176.352 360.893 177.888 359.645 179.04C358.397 180.144 356.741 180.696 354.677 180.696ZM354.101 219.36C350.981 219.36 348.701 218.256 347.261 216.048C345.869 213.84 345.173 210.912 345.173 207.264C345.173 205.104 345.437 202.344 345.965 198.984C346.541 195.576 347.261 192.408 348.125 189.48C348.557 187.944 349.133 186.888 349.853 186.312C350.573 185.736 351.725 185.448 353.309 185.448C355.757 185.448 356.981 186.264 356.981 187.896C356.981 189.096 356.525 191.88 355.613 196.248C354.461 201.528 353.885 205.104 353.885 206.976C353.885 208.416 354.077 209.52 354.461 210.288C354.845 211.056 355.493 211.44 356.405 211.44C357.269 211.44 358.349 210.84 359.645 209.64C360.941 208.44 362.669 206.544 364.829 203.952C365.405 203.28 366.053 202.944 366.773 202.944C367.397 202.944 367.877 203.232 368.213 203.808C368.597 204.384 368.789 205.176 368.789 206.184C368.789 208.104 368.333 209.592 367.421 210.648C362.669 216.456 358.229 219.36 354.101 219.36ZM368.076 219.36C366.252 219.36 364.956 218.4 364.188 216.48C363.468 214.56 363.108 211.488 363.108 207.264C363.108 201.024 363.996 195.096 365.772 189.48C366.204 188.088 366.9 187.08 367.86 186.456C368.868 185.784 370.26 185.448 372.036 185.448C372.996 185.448 373.668 185.568 374.052 185.808C374.436 186.048 374.628 186.504 374.628 187.176C374.628 187.944 374.268 189.672 373.548 192.36C373.068 194.28 372.684 195.96 372.396 197.4C372.108 198.84 371.868 200.616 371.676 202.728C373.26 198.6 375.036 195.24 377.004 192.648C378.972 190.056 380.892 188.208 382.764 187.104C384.684 186 386.436 185.448 388.02 185.448C391.14 185.448 392.7 187.008 392.7 190.128C392.7 192 392.172 195.384 391.116 200.28C390.204 204.456 389.748 207.216 389.748 208.56C389.748 210.48 390.444 211.44 391.836 211.44C392.796 211.44 393.924 210.864 395.22 209.712C396.564 208.512 398.34 206.592 400.548 203.952C401.124 203.28 401.772 202.944 402.492 202.944C403.116 202.944 403.596 203.232 403.932 203.808C404.316 204.384 404.508 205.176 404.508 206.184C404.508 208.104 404.052 209.592 403.14 210.648C401.076 213.192 398.844 215.28 396.444 216.912C394.092 218.544 391.404 219.36 388.38 219.36C385.932 219.36 384.084 218.664 382.836 217.272C381.588 215.832 380.964 213.768 380.964 211.08C380.964 209.736 381.3 207.336 381.972 203.88C382.596 200.856 382.908 198.768 382.908 197.616C382.908 196.848 382.644 196.464 382.116 196.464C381.492 196.464 380.604 197.28 379.452 198.912C378.348 200.496 377.196 202.608 375.996 205.248C374.844 207.888 373.908 210.672 373.188 213.6C372.66 215.856 372.036 217.392 371.316 218.208C370.644 218.976 369.564 219.36 368.076 219.36ZM430.795 202.944C431.419 202.944 431.899 203.232 432.235 203.808C432.619 204.384 432.811 205.176 432.811 206.184C432.811 208.104 432.355 209.592 431.443 210.648C429.667 212.808 427.147 214.8 423.883 216.624C420.667 218.448 417.211 219.36 413.515 219.36C408.475 219.36 404.563 217.992 401.779 215.256C398.995 212.52 397.603 208.776 397.603 204.024C397.603 200.712 398.299 197.64 399.691 194.808C401.083 191.928 403.003 189.648 405.451 187.968C407.947 186.288 410.755 185.448 413.875 185.448C416.659 185.448 418.891 186.288 420.571 187.968C422.251 189.6 423.091 191.832 423.091 194.664C423.091 197.976 421.891 200.832 419.491 203.232C417.139 205.584 413.131 207.456 407.467 208.848C408.667 211.056 410.947 212.16 414.307 212.16C416.467 212.16 418.915 211.416 421.651 209.928C424.435 208.392 426.835 206.4 428.851 203.952C429.427 203.28 430.075 202.944 430.795 202.944ZM412.651 192.504C410.875 192.504 409.363 193.536 408.115 195.6C406.915 197.664 406.315 200.16 406.315 203.088V203.232C409.147 202.56 411.379 201.552 413.011 200.208C414.643 198.864 415.459 197.304 415.459 195.528C415.459 194.616 415.195 193.896 414.667 193.368C414.187 192.792 413.515 192.504 412.651 192.504ZM432.06 219.36C430.236 219.36 428.94 218.4 428.172 216.48C427.452 214.56 427.092 211.488 427.092 207.264C427.092 201.024 427.98 195.096 429.756 189.48C430.188 188.088 430.884 187.08 431.844 186.456C432.852 185.784 434.244 185.448 436.02 185.448C436.98 185.448 437.652 185.568 438.036 185.808C438.42 186.048 438.612 186.504 438.612 187.176C438.612 187.944 438.252 189.672 437.532 192.36C437.052 194.28 436.668 195.96 436.38 197.4C436.092 198.792 435.852 200.544 435.66 202.656C436.956 198.912 438.492 195.744 440.268 193.152C442.092 190.56 443.94 188.64 445.812 187.392C447.732 186.096 449.532 185.448 451.212 185.448C452.892 185.448 454.068 185.832 454.74 186.6C455.46 187.368 455.82 188.544 455.82 190.128C455.82 191.664 455.364 194.448 454.452 198.48C454.068 200.208 453.804 201.504 453.66 202.368C455.244 198.336 456.996 195.048 458.916 192.504C460.884 189.96 462.804 188.16 464.676 187.104C466.548 186 468.276 185.448 469.86 185.448C471.396 185.448 472.548 185.856 473.316 186.672C474.132 187.44 474.54 188.592 474.54 190.128C474.54 191.376 474.276 193.728 473.748 197.184C473.268 200.112 472.884 202.896 472.596 205.536C472.308 208.128 472.164 211.032 472.164 214.248C472.164 216.072 471.78 217.392 471.012 218.208C470.292 218.976 469.092 219.36 467.412 219.36C465.828 219.36 464.676 218.952 463.956 218.136C463.236 217.32 462.876 216.096 462.876 214.464C462.876 212.544 463.212 209.376 463.884 204.96C464.46 201.12 464.748 198.672 464.748 197.616C464.748 196.848 464.484 196.464 463.956 196.464C463.332 196.464 462.444 197.28 461.292 198.912C460.14 200.496 458.988 202.608 457.836 205.248C456.684 207.888 455.748 210.672 455.028 213.6C454.5 215.904 453.876 217.44 453.156 218.208C452.484 218.976 451.38 219.36 449.844 219.36C448.26 219.36 447.06 218.616 446.244 217.128C445.476 215.592 445.092 213.744 445.092 211.584C445.092 209.76 445.332 207.12 445.812 203.664C446.196 200.592 446.388 198.576 446.388 197.616C446.388 196.848 446.124 196.464 445.596 196.464C444.876 196.464 443.964 197.328 442.86 199.056C441.756 200.784 440.676 202.992 439.62 205.68C438.612 208.368 437.796 211.008 437.172 213.6C436.644 215.856 436.02 217.392 435.3 218.208C434.628 218.976 433.548 219.36 432.06 219.36Z" fill="#2D3748"/>
<path d="M181.176 313.592C182.008 313.592 182.648 313.976 183.096 314.744C183.608 315.512 183.864 316.568 183.864 317.912C183.864 320.408 183.256 322.392 182.04 323.864C178.968 327.576 175.864 330.456 172.728 332.504C169.592 334.488 165.88 335.48 161.592 335.48C157.432 335.48 153.88 334.36 150.936 332.12C148.056 329.88 145.304 326.04 142.68 320.6C140.568 316.248 138.904 313.048 137.688 311C136.472 308.888 135.256 307.384 134.04 306.488C132.888 305.592 131.448 305.048 129.72 304.856C129.464 306.2 128.728 310.424 127.512 317.528C127 320.728 126.68 322.68 126.552 323.384C125.912 327.288 124.632 330.296 122.712 332.408C120.792 334.456 117.88 335.48 113.976 335.48C109.688 335.48 105.88 334.232 102.552 331.736C99.288 329.176 96.76 325.656 94.968 321.176C93.176 316.632 92.28 311.48 92.28 305.72C92.28 294.968 94.136 285.688 97.848 277.88C101.624 270.072 106.872 264.12 113.592 260.024C120.376 255.864 128.184 253.784 137.016 253.784C143.16 253.784 148.312 254.712 152.472 256.568C156.632 258.424 159.704 260.984 161.688 264.248C163.736 267.512 164.76 271.192 164.76 275.288C164.76 278.872 163.896 282.392 162.168 285.848C160.504 289.24 157.976 292.248 154.584 294.872C151.192 297.496 147.064 299.448 142.2 300.728C145.272 301.56 147.64 302.904 149.304 304.76C150.968 306.616 152.632 309.336 154.296 312.92C156.088 316.76 157.848 319.576 159.576 321.368C161.368 323.16 163.416 324.056 165.72 324.056C167.768 324.056 169.72 323.384 171.576 322.04C173.432 320.632 175.768 318.264 178.584 314.936C179.352 314.04 180.216 313.592 181.176 313.592ZM116.472 304.76C114.296 304.76 112.792 304.248 111.96 303.224C111.192 302.2 110.808 301.048 110.808 299.768C110.808 298.232 111.288 297.016 112.248 296.12C113.272 295.224 114.424 294.776 115.704 294.776H118.104C119.128 288.504 120.088 283.096 120.984 278.552C121.816 274.392 124.504 272.312 129.048 272.312C132.696 272.312 134.52 273.944 134.52 277.208C134.52 277.912 134.488 278.456 134.424 278.84L131.544 294.776C135 294.584 138.136 293.752 140.952 292.28C143.832 290.808 146.104 288.76 147.768 286.136C149.496 283.512 150.36 280.536 150.36 277.208C150.36 273.176 148.984 270.008 146.232 267.704C143.48 265.4 139.448 264.248 134.136 264.248C127.864 264.248 122.36 265.816 117.624 268.952C112.952 272.024 109.304 276.632 106.68 282.776C104.056 288.856 102.744 296.28 102.744 305.048C102.744 309.144 103.16 312.664 103.992 315.608C104.824 318.552 105.848 320.76 107.064 322.232C108.28 323.704 109.432 324.44 110.52 324.44C111.352 324.44 112.024 324.024 112.536 323.192C113.112 322.36 113.56 321.016 113.88 319.16L116.472 304.76ZM217.018 313.592C217.85 313.592 218.49 313.976 218.938 314.744C219.45 315.512 219.706 316.568 219.706 317.912C219.706 320.472 219.098 322.456 217.882 323.864C215.514 326.744 212.154 329.4 207.802 331.832C203.514 334.264 198.906 335.48 193.978 335.48C187.258 335.48 182.042 333.656 178.33 330.008C174.618 326.36 172.762 321.368 172.762 315.032C172.762 310.616 173.69 306.52 175.546 302.744C177.402 298.904 179.962 295.864 183.226 293.624C186.554 291.384 190.298 290.264 194.458 290.264C198.17 290.264 201.146 291.384 203.386 293.624C205.626 295.8 206.746 298.776 206.746 302.552C206.746 306.968 205.146 310.776 201.946 313.976C198.81 317.112 193.466 319.608 185.914 321.464C187.514 324.408 190.554 325.88 195.034 325.88C197.914 325.88 201.178 324.888 204.826 322.904C208.538 320.856 211.738 318.2 214.426 314.936C215.194 314.04 216.058 313.592 217.018 313.592ZM192.826 299.672C190.458 299.672 188.442 301.048 186.778 303.8C185.178 306.552 184.378 309.88 184.378 313.784V313.976C188.154 313.08 191.13 311.736 193.306 309.944C195.482 308.152 196.57 306.072 196.57 303.704C196.57 302.488 196.218 301.528 195.514 300.824C194.874 300.056 193.978 299.672 192.826 299.672ZM229.745 337.592C226.417 337.592 223.857 336.824 222.065 335.288C220.337 333.752 219.473 332.024 219.473 330.104C219.473 328.44 220.081 327 221.297 325.784C222.513 324.568 224.305 323.96 226.673 323.96C227.505 323.96 228.465 324.056 229.553 324.248C230.705 324.376 231.569 324.472 232.145 324.536C232.081 322.872 231.697 321.304 230.993 319.832C230.353 318.36 229.521 316.952 228.497 315.608C227.473 314.2 226.513 312.984 225.617 311.96C223.633 315.736 221.649 318.872 219.665 321.368C217.745 323.864 215.633 326.232 213.329 328.472C212.177 329.624 210.961 330.2 209.681 330.2C208.657 330.2 207.825 329.848 207.185 329.144C206.545 328.376 206.225 327.448 206.225 326.36C206.225 325.08 206.673 323.896 207.569 322.808L208.817 321.272C212.337 316.92 214.993 313.336 216.785 310.52C217.873 308.664 219.153 306.2 220.625 303.128C222.097 299.992 223.537 296.76 224.945 293.432C226.161 290.616 228.689 289.208 232.529 289.208C234.321 289.208 235.569 289.368 236.273 289.688C236.977 290.008 237.329 290.52 237.329 291.224C237.329 291.608 237.201 292.216 236.945 293.048C236.689 293.88 236.337 294.712 235.889 295.544C234.737 297.848 234.161 299.8 234.161 301.4C234.161 302.36 234.481 303.416 235.121 304.568C235.825 305.72 236.881 307.16 238.289 308.888C240.337 311.576 241.873 313.88 242.897 315.8C243.985 317.656 244.529 319.704 244.529 321.944C244.529 322.584 244.465 323.48 244.337 324.632C247.473 323.416 251.153 320.184 255.377 314.936C256.145 314.04 257.009 313.592 257.969 313.592C258.801 313.592 259.441 313.976 259.889 314.744C260.401 315.512 260.657 316.568 260.657 317.912C260.657 320.344 260.049 322.328 258.833 323.864C255.633 327.832 252.561 330.552 249.617 332.024C246.737 333.432 243.153 334.2 238.865 334.328C236.305 336.504 233.265 337.592 229.745 337.592ZM295.674 313.592C296.506 313.592 297.146 313.976 297.594 314.744C298.106 315.512 298.362 316.568 298.362 317.912C298.362 320.472 297.754 322.456 296.538 323.864C293.786 327.256 290.778 330.04 287.514 332.216C284.25 334.392 280.506 335.48 276.282 335.48C263.226 335.48 256.698 326.296 256.698 307.928C256.698 305.112 256.794 302.264 256.986 299.384H253.242C251.322 299.384 250.01 299.032 249.306 298.328C248.666 297.624 248.346 296.504 248.346 294.968C248.346 291.384 249.786 289.592 252.666 289.592H258.138C259.226 282.552 260.89 276.12 263.13 270.296C265.37 264.472 268.058 259.832 271.194 256.376C274.394 252.92 277.818 251.192 281.466 251.192C284.154 251.192 286.266 252.376 287.802 254.744C289.338 257.112 290.106 260.088 290.106 263.672C290.106 273.592 285.946 282.232 277.626 289.592H288.378C289.402 289.592 290.138 289.816 290.586 290.264C291.034 290.712 291.258 291.544 291.258 292.76C291.258 297.176 287.642 299.384 280.41 299.384H268.698C268.57 302.584 268.506 305.08 268.506 306.872C268.506 313.528 269.274 318.2 270.81 320.888C272.41 323.576 274.906 324.92 278.298 324.92C281.05 324.92 283.482 324.088 285.594 322.424C287.706 320.76 290.202 318.264 293.082 314.936C293.85 314.04 294.714 313.592 295.674 313.592ZM278.874 260.408C277.914 260.408 276.826 261.624 275.61 264.056C274.458 266.424 273.338 269.752 272.25 274.04C271.226 278.264 270.362 282.968 269.658 288.152C273.434 284.888 276.25 281.24 278.106 277.208C280.026 273.112 280.986 269.4 280.986 266.072C280.986 262.296 280.282 260.408 278.874 260.408ZM302.354 335.48C298.386 335.48 295.218 334.04 292.85 331.16C290.482 328.28 289.298 324.504 289.298 319.832C289.298 314.712 290.482 309.88 292.85 305.336C295.218 300.728 298.354 297.048 302.258 294.296C306.226 291.48 310.418 290.072 314.834 290.072C316.242 290.072 317.17 290.36 317.618 290.936C318.13 291.448 318.546 292.408 318.866 293.816C320.21 293.56 321.618 293.432 323.09 293.432C326.226 293.432 327.794 294.552 327.794 296.792C327.794 298.136 327.314 301.336 326.354 306.392C324.882 313.752 324.146 318.872 324.146 321.752C324.146 322.712 324.37 323.48 324.818 324.056C325.33 324.632 325.97 324.92 326.738 324.92C327.954 324.92 329.426 324.152 331.154 322.616C332.882 321.016 335.218 318.456 338.162 314.936C338.93 314.04 339.794 313.592 340.754 313.592C341.586 313.592 342.226 313.976 342.674 314.744C343.186 315.512 343.442 316.568 343.442 317.912C343.442 320.472 342.834 322.456 341.618 323.864C338.994 327.128 336.21 329.88 333.266 332.12C330.322 334.36 327.474 335.48 324.722 335.48C322.61 335.48 320.658 334.776 318.866 333.368C317.138 331.896 315.826 329.912 314.93 327.416C311.602 332.792 307.41 335.48 302.354 335.48ZM305.81 325.784C307.218 325.784 308.562 324.952 309.842 323.288C311.122 321.624 312.05 319.416 312.626 316.664L316.178 299C313.49 299.064 310.994 300.088 308.69 302.072C306.45 303.992 304.658 306.552 303.314 309.752C301.97 312.952 301.298 316.344 301.298 319.928C301.298 321.912 301.682 323.384 302.45 324.344C303.282 325.304 304.402 325.784 305.81 325.784ZM345.431 335.48C342.551 335.48 340.183 334.168 338.327 331.544C336.535 328.856 335.639 325.528 335.639 321.56C335.639 316.76 335.959 312.376 336.599 308.408C337.239 304.376 338.295 300.12 339.767 295.64C340.407 293.72 341.303 292.344 342.455 291.512C343.607 290.68 345.431 290.264 347.927 290.264C349.335 290.264 350.295 290.488 350.807 290.936C351.383 291.384 351.671 292.056 351.671 292.952C351.671 293.464 351.319 295.192 350.615 298.136C349.975 300.504 349.463 302.648 349.079 304.568C347.799 311.288 347.159 315.768 347.159 318.008C347.159 319.352 347.319 320.312 347.639 320.888C347.959 321.4 348.471 321.656 349.175 321.656C350.135 321.656 351.319 320.696 352.727 318.776C354.199 316.856 355.735 313.944 357.335 310.04C358.999 306.136 360.599 301.336 362.135 295.64C362.647 293.72 363.415 292.344 364.439 291.512C365.527 290.68 367.127 290.264 369.239 290.264C370.711 290.264 371.735 290.456 372.311 290.84C372.887 291.16 373.175 291.8 373.175 292.76C373.175 294.36 372.375 298.744 370.775 305.912C368.983 314.104 368.087 319.16 368.087 321.08C368.087 322.296 368.343 323.256 368.855 323.96C369.367 324.6 370.039 324.92 370.871 324.92C372.151 324.92 373.655 324.152 375.383 322.616C377.175 321.016 379.543 318.456 382.487 314.936C383.255 314.04 384.119 313.592 385.079 313.592C385.911 313.592 386.551 313.976 386.999 314.744C387.511 315.512 387.767 316.568 387.767 317.912C387.767 320.472 387.159 322.456 385.943 323.864C383.191 327.256 380.215 330.04 377.015 332.216C373.879 334.392 370.295 335.48 366.263 335.48C363.191 335.48 360.919 334.296 359.447 331.928C358.039 329.56 357.335 326.232 357.335 321.944C356.247 326.296 354.615 329.656 352.439 332.024C350.263 334.328 347.927 335.48 345.431 335.48ZM386.799 335.48C384.367 335.48 382.639 334.2 381.615 331.64C380.655 329.08 380.175 324.984 380.175 319.352C380.175 311.032 381.359 303.128 383.727 295.64C384.303 293.784 385.231 292.44 386.511 291.608C387.855 290.712 389.711 290.264 392.079 290.264C393.359 290.264 394.255 290.424 394.767 290.744C395.279 291.064 395.535 291.672 395.535 292.568C395.535 293.592 395.055 295.896 394.095 299.48C393.455 302.04 392.943 304.28 392.559 306.2C392.175 308.12 391.855 310.488 391.599 313.304C393.711 307.8 396.079 303.32 398.703 299.864C401.327 296.408 403.887 293.944 406.383 292.472C408.943 291 411.279 290.264 413.391 290.264C417.551 290.264 419.631 292.344 419.631 296.504C419.631 297.336 419.343 299.352 418.767 302.552C418.255 305.112 417.999 306.712 417.999 307.352C417.999 309.592 418.799 310.712 420.399 310.712C422.191 310.712 424.495 309.304 427.311 306.488C428.143 305.656 429.007 305.24 429.903 305.24C430.735 305.24 431.375 305.624 431.823 306.392C432.335 307.096 432.591 308.056 432.591 309.272C432.591 311.64 431.951 313.496 430.671 314.84C428.879 316.696 426.767 318.296 424.335 319.64C421.967 320.92 419.439 321.56 416.751 321.56C413.359 321.56 410.767 320.696 408.975 318.968C407.247 317.24 406.383 314.904 406.383 311.96C406.383 311 406.479 310.04 406.671 309.08C406.799 307.8 406.863 306.936 406.863 306.488C406.863 305.464 406.511 304.952 405.807 304.952C404.847 304.952 403.567 306.04 401.967 308.216C400.431 310.328 398.895 313.144 397.359 316.664C395.823 320.184 394.575 323.896 393.615 327.8C392.911 330.808 392.079 332.856 391.119 333.944C390.223 334.968 388.783 335.48 386.799 335.48ZM435.479 335.48C431.511 335.48 428.343 334.04 425.975 331.16C423.607 328.28 422.423 324.504 422.423 319.832C422.423 314.712 423.607 309.88 425.975 305.336C428.343 300.728 431.479 297.048 435.383 294.296C439.351 291.48 443.543 290.072 447.959 290.072C449.367 290.072 450.295 290.36 450.743 290.936C451.255 291.448 451.671 292.408 451.991 293.816C453.335 293.56 454.743 293.432 456.215 293.432C459.351 293.432 460.919 294.552 460.919 296.792C460.919 298.136 460.439 301.336 459.479 306.392C458.007 313.752 457.271 318.872 457.271 321.752C457.271 322.712 457.495 323.48 457.943 324.056C458.455 324.632 459.095 324.92 459.863 324.92C461.079 324.92 462.551 324.152 464.279 322.616C466.007 321.016 468.343 318.456 471.287 314.936C472.055 314.04 472.919 313.592 473.879 313.592C474.711 313.592 475.351 313.976 475.799 314.744C476.311 315.512 476.567 316.568 476.567 317.912C476.567 320.472 475.959 322.456 474.743 323.864C472.119 327.128 469.335 329.88 466.391 332.12C463.447 334.36 460.599 335.48 457.847 335.48C455.735 335.48 453.783 334.776 451.991 333.368C450.263 331.896 448.951 329.912 448.055 327.416C444.727 332.792 440.535 335.48 435.479 335.48ZM438.935 325.784C440.343 325.784 441.687 324.952 442.967 323.288C444.247 321.624 445.175 319.416 445.751 316.664L449.303 299C446.615 299.064 444.119 300.088 441.815 302.072C439.575 303.992 437.783 306.552 436.439 309.752C435.095 312.952 434.423 316.344 434.423 319.928C434.423 321.912 434.807 323.384 435.575 324.344C436.407 325.304 437.527 325.784 438.935 325.784ZM475.58 335.48C473.148 335.48 471.42 334.2 470.396 331.64C469.436 329.08 468.956 324.984 468.956 319.352C468.956 311.032 470.14 303.128 472.508 295.64C473.084 293.784 474.012 292.44 475.292 291.608C476.636 290.712 478.492 290.264 480.86 290.264C482.14 290.264 483.036 290.424 483.548 290.744C484.06 291.064 484.316 291.672 484.316 292.568C484.316 293.592 483.836 295.896 482.876 299.48C482.236 302.04 481.724 304.28 481.34 306.2C480.956 308.12 480.636 310.488 480.38 313.304C482.492 307.8 484.86 303.32 487.484 299.864C490.108 296.408 492.668 293.944 495.164 292.472C497.724 291 500.06 290.264 502.172 290.264C506.332 290.264 508.412 292.344 508.412 296.504C508.412 299 507.708 303.512 506.3 310.04C505.084 315.608 504.476 319.288 504.476 321.08C504.476 323.64 505.404 324.92 507.26 324.92C508.54 324.92 510.044 324.152 511.772 322.616C513.564 321.016 515.932 318.456 518.876 314.936C519.644 314.04 520.508 313.592 521.468 313.592C522.3 313.592 522.94 313.976 523.388 314.744C523.9 315.512 524.156 316.568 524.156 317.912C524.156 320.472 523.548 322.456 522.332 323.864C519.58 327.256 516.604 330.04 513.404 332.216C510.268 334.392 506.684 335.48 502.652 335.48C499.388 335.48 496.924 334.552 495.26 332.696C493.596 330.776 492.764 328.024 492.764 324.44C492.764 322.648 493.212 319.448 494.108 314.84C494.94 310.808 495.356 308.024 495.356 306.488C495.356 305.464 495.004 304.952 494.3 304.952C493.468 304.952 492.284 306.04 490.748 308.216C489.276 310.328 487.74 313.144 486.14 316.664C484.604 320.184 483.356 323.896 482.396 327.8C481.692 330.808 480.86 332.856 479.9 333.944C479.004 334.968 477.564 335.48 475.58 335.48ZM532.229 299.384C532.101 302.584 532.037 305.08 532.037 306.872C532.037 311.48 532.261 315.096 532.709 317.72C533.221 320.28 534.021 322.136 535.109 323.288C536.261 324.376 537.829 324.92 539.813 324.92C540.837 324.92 542.053 324.6 543.461 323.96C544.869 323.32 546.149 322.488 547.301 321.464C548.005 320.824 548.709 320.504 549.413 320.504C550.181 320.504 550.789 320.952 551.237 321.848C551.749 322.68 552.005 323.704 552.005 324.92C552.005 326.136 551.749 327.32 551.237 328.472C550.789 329.624 550.085 330.584 549.125 331.352C545.797 334.104 542.021 335.48 537.797 335.48C531.717 335.48 527.269 332.952 524.453 327.896C521.637 322.776 520.229 316.12 520.229 307.928C520.229 305.112 520.325 302.264 520.517 299.384H516.773C514.853 299.384 513.541 299.032 512.837 298.328C512.197 297.624 511.877 296.504 511.877 294.968C511.877 291.384 513.317 289.592 516.197 289.592H521.669C522.757 282.552 524.421 276.12 526.661 270.296C528.901 264.472 531.589 259.832 534.725 256.376C537.925 252.92 541.349 251.192 544.997 251.192C547.685 251.192 549.797 252.376 551.333 254.744C552.869 257.112 553.637 260.088 553.637 263.672C553.637 273.592 549.477 282.232 541.157 289.592H551.909C552.933 289.592 553.669 289.816 554.117 290.264C554.565 290.712 554.789 291.544 554.789 292.76C554.789 297.176 551.173 299.384 543.941 299.384H532.229ZM542.405 260.408C541.445 260.408 540.357 261.624 539.141 264.056C537.989 266.424 536.869 269.752 535.781 274.04C534.757 278.264 533.893 282.968 533.189 288.152C536.965 284.888 539.781 281.24 541.637 277.208C543.557 273.112 544.517 269.4 544.517 266.072C544.517 262.296 543.813 260.408 542.405 260.408Z" fill="#2D3748"/>
</g>
<defs>
<filter id="filter0_d" x="0.904053" y="-2" width="639.448" height="387" filterUnits="userSpaceOnUse" color-interpolation-filters="sRGB">
<feFlood flood-opacity="0" result="BackgroundImageFix"/>
<feColorMatrix in="SourceAlpha" type="matrix" values="0 0 0 0 0 0 0 0 0 0 0 0 0 0 0 0 0 0 127 0"/>
<feOffset dy="2"/>
<feGaussianBlur stdDeviation="2"/>
<feColorMatrix type="matrix" values="0 0 0 0 0 0 0 0 0 0 0 0 0 0 0 0 0 0 0.25 0"/>
<feBlend mode="normal" in2="BackgroundImageFix" result="effect1_dropShadow"/>
<feBlend mode="normal" in="SourceGraphic" in2="effect1_dropShadow" result="shape"/>
</filter>
</defs>
</svg>
