<svg width="3096" height="704" viewBox="0 0 3096 704" fill="none" xmlns="http://www.w3.org/2000/svg">
<rect width="3096" height="704" fill="#F7FAFC"/>
<rect width="3096" height="704" fill="url(#paint0_linear)"/>
<path d="M502 522.5C502 548.734 480.734 570 454.5 570C428.266 570 407 548.734 407 522.5C407 496.266 428.266 475 454.5 475C480.734 475 502 496.266 502 522.5Z" fill="#667EEA" fill-opacity="0.95"/>
<path d="M502 522.5C502 548.734 480.734 570 454.5 570C428.266 570 407 548.734 407 522.5C407 496.266 428.266 475 454.5 475C480.734 475 502 496.266 502 522.5Z" fill="url(#paint1_linear)"/>
<g filter="url(#filter0_d)">
<rect width="7.71185" height="49.8236" rx="3.85592" transform="matrix(0.784895 0.619629 -0.611688 0.791099 461.099 504.8)" fill="#00EEE0"/>
</g>
<g filter="url(#filter1_d)">
<path d="M465.76 499.529C468.523 498.516 471.39 500.779 471.085 503.733L470.18 512.518C469.857 515.657 466.24 517.203 463.775 515.257L456.463 509.484C453.997 507.538 454.607 503.618 457.543 502.541L465.76 499.529Z" fill="#00EEE0"/>
</g>
<g filter="url(#filter2_d)">
<rect x="2506.88" y="179" width="42" height="114" rx="6" transform="rotate(7.5 2506.88 179)" fill="#37B2AC"/>
<rect x="2506.88" y="179" width="42" height="114" rx="6" transform="rotate(7.5 2506.88 179)" fill="url(#paint2_linear)"/>
<rect x="2554.26" y="217.514" width="45" height="82" rx="6" transform="rotate(7.5 2554.26 217.514)" fill="#37B2AC"/>
<rect x="2554.26" y="217.514" width="45" height="82" rx="6" transform="rotate(7.5 2554.26 217.514)" fill="url(#paint3_linear)"/>
<rect x="2610.09" y="214.778" width="29" height="92" rx="6" transform="rotate(7.5 2610.09 214.778)" fill="#37B2AC"/>
<rect x="2610.09" y="214.778" width="29" height="92" rx="6" transform="rotate(7.5 2610.09 214.778)" fill="url(#paint4_linear)"/>
<circle cx="2524.83" cy="203.553" r="10" transform="rotate(7.5 2524.83 203.553)" fill="white"/>
<circle cx="2572.36" cy="256.208" r="10" transform="rotate(7.5 2572.36 256.208)" fill="white"/>
<circle cx="2620.4" cy="251.437" r="10" transform="rotate(7.5 2620.4 251.437)" fill="white"/>
<rect x="2521.85" y="203.157" width="4" height="75.4855" transform="rotate(-41 2521.85 203.157)" fill="white"/>
<rect x="2574.96" y="258.144" width="4" height="51.1956" transform="rotate(-98 2574.96 258.144)" fill="white"/>
</g>
<g filter="url(#filter3_d)">
<path fill-rule="evenodd" clip-rule="evenodd" d="M361.071 126.246C359.379 124.826 356.856 125.047 355.436 126.739L325.969 161.857L321.973 116.188C321.781 113.987 319.84 112.359 317.64 112.552C315.439 112.745 313.811 114.685 314.004 116.885L317.999 162.554L282.881 133.087C281.189 131.667 278.666 131.887 277.246 133.58C275.826 135.272 276.047 137.795 277.739 139.215L312.857 168.682L267.188 172.678C264.987 172.87 263.359 174.81 263.552 177.011C263.744 179.212 265.685 180.84 267.885 180.647L313.554 176.652L284.087 211.77C282.667 213.462 282.887 215.985 284.58 217.405C286.272 218.825 288.795 218.604 290.215 216.912L319.682 181.794L323.678 227.463C323.87 229.664 325.811 231.292 328.011 231.099C330.212 230.907 331.84 228.966 331.647 226.766L327.652 181.097L362.77 210.564C364.462 211.984 366.985 211.764 368.405 210.071C369.825 208.379 369.604 205.856 367.912 204.436L332.794 174.969L378.463 170.973C380.664 170.781 382.292 168.84 382.099 166.64C381.907 164.439 379.966 162.811 377.766 163.004L332.097 166.999L361.564 131.881C362.984 130.189 362.764 127.666 361.071 126.246Z" fill="#8E6EE9"/>
<path fill-rule="evenodd" clip-rule="evenodd" d="M361.071 126.246C359.379 124.826 356.856 125.047 355.436 126.739L325.969 161.857L321.973 116.188C321.781 113.987 319.84 112.359 317.64 112.552C315.439 112.745 313.811 114.685 314.004 116.885L317.999 162.554L282.881 133.087C281.189 131.667 278.666 131.887 277.246 133.58C275.826 135.272 276.047 137.795 277.739 139.215L312.857 168.682L267.188 172.678C264.987 172.87 263.359 174.81 263.552 177.011C263.744 179.212 265.685 180.84 267.885 180.647L313.554 176.652L284.087 211.77C282.667 213.462 282.887 215.985 284.58 217.405C286.272 218.825 288.795 218.604 290.215 216.912L319.682 181.794L323.678 227.463C323.87 229.664 325.811 231.292 328.011 231.099C330.212 230.907 331.84 228.966 331.647 226.766L327.652 181.097L362.77 210.564C364.462 211.984 366.985 211.764 368.405 210.071C369.825 208.379 369.604 205.856 367.912 204.436L332.794 174.969L378.463 170.973C380.664 170.781 382.292 168.84 382.099 166.64C381.907 164.439 379.966 162.811 377.766 163.004L332.097 166.999L361.564 131.881C362.984 130.189 362.764 127.666 361.071 126.246Z" fill="url(#paint5_linear)"/>
</g>
<g filter="url(#filter4_d)">
<path fill-rule="evenodd" clip-rule="evenodd" d="M2422.97 512.807C2420.92 511.997 2418.6 513.007 2417.79 515.062L2400.98 557.716L2382.7 515.675C2381.82 513.649 2379.47 512.721 2377.44 513.602C2375.42 514.483 2374.49 516.839 2375.37 518.865L2393.65 560.906L2350.99 544.104C2348.94 543.294 2346.62 544.304 2345.81 546.36C2345 548.415 2346.01 550.738 2348.06 551.547L2390.72 568.349L2348.67 586.629C2346.65 587.51 2345.72 589.866 2346.6 591.892C2347.48 593.918 2349.84 594.846 2351.86 593.965L2393.91 575.685L2377.1 618.339C2376.29 620.394 2377.3 622.717 2379.36 623.527C2381.42 624.336 2383.74 623.326 2384.55 621.271L2401.35 578.618L2419.63 620.659C2420.51 622.684 2422.87 623.613 2424.89 622.732C2426.92 621.851 2427.85 619.494 2426.97 617.469L2408.69 575.427L2451.34 592.229C2453.39 593.039 2455.72 592.029 2456.53 589.973C2457.34 587.918 2456.33 585.595 2454.27 584.786L2411.62 567.984L2453.66 549.704C2455.68 548.823 2456.61 546.467 2455.73 544.441C2454.85 542.415 2452.49 541.487 2450.47 542.368L2408.43 560.648L2425.23 517.994C2426.04 515.939 2425.03 513.616 2422.97 512.807Z" fill="#8E6EE9"/>
<path fill-rule="evenodd" clip-rule="evenodd" d="M2422.97 512.807C2420.92 511.997 2418.6 513.007 2417.79 515.062L2400.98 557.716L2382.7 515.675C2381.82 513.649 2379.47 512.721 2377.44 513.602C2375.42 514.483 2374.49 516.839 2375.37 518.865L2393.65 560.906L2350.99 544.104C2348.94 543.294 2346.62 544.304 2345.81 546.36C2345 548.415 2346.01 550.738 2348.06 551.547L2390.72 568.349L2348.67 586.629C2346.65 587.51 2345.72 589.866 2346.6 591.892C2347.48 593.918 2349.84 594.846 2351.86 593.965L2393.91 575.685L2377.1 618.339C2376.29 620.394 2377.3 622.717 2379.36 623.527C2381.42 624.336 2383.74 623.326 2384.55 621.271L2401.35 578.618L2419.63 620.659C2420.51 622.684 2422.87 623.613 2424.89 622.732C2426.92 621.851 2427.85 619.494 2426.97 617.469L2408.69 575.427L2451.34 592.229C2453.39 593.039 2455.72 592.029 2456.53 589.973C2457.34 587.918 2456.33 585.595 2454.27 584.786L2411.62 567.984L2453.66 549.704C2455.68 548.823 2456.61 546.467 2455.73 544.441C2454.85 542.415 2452.49 541.487 2450.47 542.368L2408.43 560.648L2425.23 517.994C2426.04 515.939 2425.03 513.616 2422.97 512.807Z" fill="url(#paint6_linear)"/>
</g>
<defs>
<filter id="filter0_d" x="428.17" y="506.364" width="41.4337" height="49.0644" filterUnits="userSpaceOnUse" color-interpolation-filters="sRGB">
<feFlood flood-opacity="0" result="BackgroundImageFix"/>
<feColorMatrix in="SourceAlpha" type="matrix" values="0 0 0 0 0 0 0 0 0 0 0 0 0 0 0 0 0 0 127 0"/>
<feOffset dy="4"/>
<feGaussianBlur stdDeviation="2"/>
<feColorMatrix type="matrix" values="0 0 0 0 0 0 0 0 0 0 0 0 0 0 0 0 0 0 0.25 0"/>
<feBlend mode="normal" in2="BackgroundImageFix" result="effect1_dropShadow"/>
<feBlend mode="normal" in="SourceGraphic" in2="effect1_dropShadow" result="shape"/>
</filter>
<filter id="filter1_d" x="450.928" y="499.283" width="24.1797" height="24.8336" filterUnits="userSpaceOnUse" color-interpolation-filters="sRGB">
<feFlood flood-opacity="0" result="BackgroundImageFix"/>
<feColorMatrix in="SourceAlpha" type="matrix" values="0 0 0 0 0 0 0 0 0 0 0 0 0 0 0 0 0 0 127 0"/>
<feOffset dy="4"/>
<feGaussianBlur stdDeviation="2"/>
<feColorMatrix type="matrix" values="0 0 0 0 0 0 0 0 0 0 0 0 0 0 0 0 0 0 0.25 0"/>
<feBlend mode="normal" in2="BackgroundImageFix" result="effect1_dropShadow"/>
<feBlend mode="normal" in="SourceGraphic" in2="effect1_dropShadow" result="shape"/>
</filter>
<filter id="filter2_d" x="2488" y="179" width="157.716" height="138.776" filterUnits="userSpaceOnUse" color-interpolation-filters="sRGB">
<feFlood flood-opacity="0" result="BackgroundImageFix"/>
<feColorMatrix in="SourceAlpha" type="matrix" values="0 0 0 0 0 0 0 0 0 0 0 0 0 0 0 0 0 0 127 0"/>
<feOffset dy="4"/>
<feGaussianBlur stdDeviation="2"/>
<feColorMatrix type="matrix" values="0 0 0 0 0 0 0 0 0 0 0 0 0 0 0 0 0 0 0.25 0"/>
<feBlend mode="normal" in2="BackgroundImageFix" result="effect1_dropShadow"/>
<feBlend mode="normal" in="SourceGraphic" in2="effect1_dropShadow" result="shape"/>
</filter>
<filter id="filter3_d" x="235" y="88" width="175.651" height="175.651" filterUnits="userSpaceOnUse" color-interpolation-filters="sRGB">
<feFlood flood-opacity="0" result="BackgroundImageFix"/>
<feColorMatrix in="SourceAlpha" type="matrix" values="0 0 0 0 0 0 0 0 0 0 0 0 0 0 0 0 0 0 127 0"/>
<feOffset dy="4"/>
<feGaussianBlur stdDeviation="2"/>
<feColorMatrix type="matrix" values="0 0 0 0 0 0 0 0 0 0 0 0 0 0 0 0 0 0 0.25 0"/>
<feBlend mode="normal" in2="BackgroundImageFix" result="effect1_dropShadow"/>
<feBlend mode="normal" in="SourceGraphic" in2="effect1_dropShadow" result="shape"/>
</filter>
<filter id="filter4_d" x="2320" y="491" width="162.333" height="162.333" filterUnits="userSpaceOnUse" color-interpolation-filters="sRGB">
<feFlood flood-opacity="0" result="BackgroundImageFix"/>
<feColorMatrix in="SourceAlpha" type="matrix" values="0 0 0 0 0 0 0 0 0 0 0 0 0 0 0 0 0 0 127 0"/>
<feOffset dy="4"/>
<feGaussianBlur stdDeviation="2"/>
<feColorMatrix type="matrix" values="0 0 0 0 0 0 0 0 0 0 0 0 0 0 0 0 0 0 0.25 0"/>
<feBlend mode="normal" in2="BackgroundImageFix" result="effect1_dropShadow"/>
<feBlend mode="normal" in="SourceGraphic" in2="effect1_dropShadow" result="shape"/>
</filter>
<linearGradient id="paint0_linear" x1="1548" y1="0" x2="1548" y2="704" gradientUnits="userSpaceOnUse">
<stop stop-color="white"/>
<stop offset="1" stop-color="white" stop-opacity="0"/>
</linearGradient>
<linearGradient id="paint1_linear" x1="454.5" y1="475" x2="454.729" y2="565.515" gradientUnits="userSpaceOnUse">
<stop stop-color="#A168FF"/>
<stop offset="1" stop-color="white" stop-opacity="0"/>
</linearGradient>
<linearGradient id="paint2_linear" x1="2527.88" y1="179" x2="2527.88" y2="293" gradientUnits="userSpaceOnUse">
<stop stop-color="#55A8AD"/>
<stop offset="1" stop-color="white" stop-opacity="0"/>
</linearGradient>
<linearGradient id="paint3_linear" x1="2576.76" y1="217.514" x2="2576.76" y2="299.514" gradientUnits="userSpaceOnUse">
<stop stop-color="#55A8AD"/>
<stop offset="1" stop-color="white" stop-opacity="0"/>
</linearGradient>
<linearGradient id="paint4_linear" x1="2624.59" y1="214.778" x2="2624.59" y2="306.778" gradientUnits="userSpaceOnUse">
<stop stop-color="#55A8AD"/>
<stop offset="1" stop-color="white" stop-opacity="0"/>
</linearGradient>
<linearGradient id="paint5_linear" x1="328.919" y1="111.669" x2="325.722" y2="204.933" gradientUnits="userSpaceOnUse">
<stop stop-color="#CE15DE" stop-opacity="0.95"/>
<stop offset="1" stop-color="white" stop-opacity="0"/>
</linearGradient>
<linearGradient id="paint6_linear" x1="2387.86" y1="509.185" x2="2414.42" y2="598.644" gradientUnits="userSpaceOnUse">
<stop stop-color="#667EEA" stop-opacity="0.95"/>
<stop offset="1" stop-color="white" stop-opacity="0"/>
</linearGradient>
</defs>
</svg>
