<svg width="417" height="417" viewBox="0 0 417 417" fill="none" xmlns="http://www.w3.org/2000/svg">
<path fill-rule="evenodd" clip-rule="evenodd" d="M208.333 0.226815C323.213 0.226815 416.333 93.3468 416.333 208.223C416.333 323.099 323.213 416.224 208.333 416.224C93.4573 416.224 0.332031 323.099 0.332031 208.223C0.332031 93.3468 93.4573 0.226815 208.333 0.226815Z" fill="#15777C"/>
<path fill-rule="evenodd" clip-rule="evenodd" d="M206.808 416.204L186.053 163.433L274.466 70.0935L416.293 211.912C414.32 325.084 321.973 416.224 208.333 416.224C207.824 416.224 207.317 416.208 206.808 416.204" fill="#0B585C"/>
<path fill-rule="evenodd" clip-rule="evenodd" d="M162.005 150.433C163.148 155.556 163.784 161.243 163.784 167.233C163.784 189.755 154.792 208.011 143.699 208.011C132.607 208.011 123.615 189.755 123.615 167.233C123.615 140.827 141.792 150.433 162.005 150.433" fill="#F49A6A"/>
<path fill-rule="evenodd" clip-rule="evenodd" d="M254.333 150.433C253.192 155.556 252.555 161.243 252.555 167.233C252.555 189.755 261.547 208.011 272.64 208.011C283.733 208.011 292.72 189.755 292.72 167.233C292.72 140.827 274.547 150.433 254.333 150.433Z" fill="#F49A6A"/>
<path fill-rule="evenodd" clip-rule="evenodd" d="M208.333 273.481C157.476 273.491 116.252 309.703 116.252 354.373C116.252 357.087 116.12 382.061 116.115 394.699C143.908 408.469 175.212 416.224 208.333 416.224C241.453 416.224 272.76 408.469 300.547 394.699C300.547 382.061 300.413 357.087 300.413 354.373C300.413 309.703 259.191 273.491 208.333 273.481" fill="#D1D1B8"/>
<path fill-rule="evenodd" clip-rule="evenodd" d="M255.76 190.453C254.201 220.485 252.644 250.517 251.087 280.551C250.397 293.837 231.625 308.205 209.428 307.979C187.753 307.757 166.337 293.133 165.685 280.479C164.137 250.471 162.588 220.463 161.04 190.453C192.613 190.453 224.185 190.453 255.76 190.453" fill="#F49A6A"/>
<path fill-rule="evenodd" clip-rule="evenodd" d="M252.172 265.103C252.043 267.585 251.215 278.069 251.087 280.551C250.397 293.837 231.625 308.205 209.428 307.979C187.753 307.757 166.337 293.133 165.685 280.479C165.559 278.02 164.831 267.561 164.704 265.103C177.137 280.463 193.523 287.36 208.801 285.981C223.989 284.612 241.191 279.609 252.172 265.103Z" fill="#E6E6C9"/>
<path fill-rule="evenodd" clip-rule="evenodd" d="M275.133 99.0934C279.293 113.533 281.613 129.56 281.613 146.453C281.613 158.957 280.386 171.001 278.093 182.275C273.92 202.733 269.24 224.8 258.998 238.395C233.849 271.764 182.848 270.121 158.09 237.328C148.064 224.045 143.113 203.608 138.874 183.717C136.385 172.031 135.048 159.492 135.048 146.453C135.048 129.56 137.368 113.533 141.536 99.0934H275.133Z" fill="#FAB385"/>
<path fill-rule="evenodd" clip-rule="evenodd" d="M134.925 156.457C140.211 147.947 151.771 125.773 152.243 107.373C164.631 105.36 186.476 111.56 208.333 112.667C230.191 111.56 252.036 105.36 264.427 107.373C264.893 125.773 276.453 147.947 281.746 156.457C283.346 130.667 289.547 77.0667 273.32 67.32C245.149 50.4134 239.303 51.7466 208.333 51.7466C177.364 51.7466 171.517 50.4134 143.341 67.32C127.12 77.0667 133.324 130.667 134.925 156.457" fill="#764718"/>
<path fill-rule="evenodd" clip-rule="evenodd" d="M168.785 326.115C166.681 318.025 167.679 309.764 169.261 301.709C170.165 297.112 170.7 298.409 174.276 299.681C183.499 302.965 201.783 309.569 207.745 309.377C207.939 309.371 208.136 309.36 208.333 309.348C208.531 309.36 208.728 309.371 208.921 309.377C214.884 309.569 233.167 302.965 242.391 299.681C245.967 298.409 246.501 297.112 247.404 301.709C248.988 309.764 249.985 318.025 247.881 326.115C246.352 332.009 246.392 330.692 241.404 328.993C228.097 324.449 218.224 321.133 208.333 320.085C198.443 321.133 188.569 324.449 175.263 328.993C170.275 330.692 170.315 332.009 168.785 326.115Z" fill="#006D74"/>
<path fill-rule="evenodd" clip-rule="evenodd" d="M199.849 343.156C202.941 343.156 205.448 345.663 205.448 348.755C205.448 351.848 202.941 354.355 199.849 354.355C196.756 354.355 194.249 351.848 194.249 348.755C194.249 345.663 196.756 343.156 199.849 343.156ZM199.849 394.756C202.941 394.756 205.448 397.263 205.448 400.356C205.448 403.449 202.941 405.956 199.849 405.956C196.756 405.956 194.249 403.449 194.249 400.356C194.249 397.263 196.756 394.756 199.849 394.756ZM199.849 368.956C202.941 368.956 205.448 371.463 205.448 374.556C205.448 377.648 202.941 380.155 199.849 380.155C196.756 380.155 194.249 377.648 194.249 374.556C194.249 371.463 196.756 368.956 199.849 368.956Z" fill="#575757"/>
</svg>
